<svg width="34" height="33" viewBox="0 0 34 33" fill="none" xmlns="http://www.w3.org/2000/svg">
<g clip-path="url(#clip0)">
<path d="M31.1645 0.0249023H2.83555C1.24844 0.0249023 0 1.23662 0 2.77705V30.2792C0 31.8196 1.24844 33.0314 2.83555 33.0314H15.8711H22.6711H31.1711C32.7582 33.0314 34.0066 31.8196 34.0066 30.2792V2.77705C34 1.23662 32.7516 0.0249023 31.1645 0.0249023ZM2.83555 31.9292C1.87266 31.9292 1.13555 31.2138 1.13555 30.2792V2.77705C1.13555 1.84248 1.87266 1.12705 2.83555 1.12705H31.1711C32.134 1.12705 32.8711 1.84248 32.8711 2.77705V30.2792C32.8711 31.2138 32.134 31.9292 31.1711 31.9292H2.83555Z" fill="#78808C"/>
<path d="M16.6285 13.6189C14.8621 13.6189 13.4277 15.0111 13.4277 16.7255C13.4277 18.44 14.8621 19.8322 16.6285 19.8322C18.3949 19.8322 19.8293 18.44 19.8293 16.7255C19.8293 15.0111 18.3949 13.6189 16.6285 13.6189Z" fill="#78808C"/>
<path d="M26.1844 12.8778C26.1379 11.8852 25.9719 11.202 25.7395 10.6155C25.4937 9.99028 25.1219 9.42954 24.6305 8.95903C24.1523 8.48208 23.568 8.1147 22.9305 7.88267C22.3195 7.65064 21.6223 7.4895 20.5996 7.45083C19.5703 7.40571 19.2449 7.39282 16.6352 7.39282C14.0254 7.39282 13.7 7.40571 12.6707 7.44438C11.648 7.4895 10.9441 7.65063 10.3398 7.87622C9.6957 8.1147 9.11797 8.47563 8.6332 8.95259C8.1418 9.41665 7.76328 9.98384 7.52422 10.6026C7.28516 11.1956 7.11914 11.8723 7.0793 12.8649C7.03281 13.8639 7.01953 14.1797 7.01953 16.7127C7.01953 19.2458 7.03281 19.5616 7.07266 20.5606C7.11914 21.5532 7.28516 22.2364 7.51758 22.8229C7.76328 23.4481 8.1418 24.0088 8.62656 24.4793C9.10469 24.9563 9.68906 25.3237 10.3266 25.5557C10.9375 25.7877 11.6348 25.9489 12.6574 25.9875C13.6801 26.0327 14.0121 26.0391 16.6219 26.0391C19.2316 26.0391 19.557 26.0262 20.5863 25.9875C21.609 25.9424 22.3129 25.7813 22.9172 25.5557C24.2121 25.0723 25.2281 24.0797 25.7328 22.8229C25.9719 22.2299 26.1379 21.5532 26.1777 20.5606C26.2242 19.568 26.2309 19.2458 26.2309 16.7127C26.2375 14.1926 26.2309 13.8768 26.1844 12.8778ZM16.6285 21.5209C13.8992 21.5209 11.6879 19.3747 11.6879 16.7256C11.6879 14.0766 13.8992 11.9303 16.6285 11.9303C19.3578 11.9303 21.5691 14.0766 21.5691 16.7256C21.5691 19.3747 19.3578 21.5209 16.6285 21.5209ZM21.7617 12.8649C21.1242 12.8649 20.6062 12.3622 20.6062 11.7434C20.6062 11.1247 21.1242 10.6219 21.7617 10.6219C22.3992 10.6219 22.9172 11.1247 22.9172 11.7434C22.9172 12.3622 22.3992 12.8649 21.7617 12.8649Z" fill="#78808C"/>
</g>
<defs>
<clipPath id="clip0">
<rect width="34" height="33" fill="white"/>
</clipPath>
</defs>
</svg>
