<svg width="33" height="33" viewBox="0 0 33 33" fill="none" xmlns="http://www.w3.org/2000/svg">
<g clip-path="url(#clip0)">
<path d="M30.2479 0.0249023H2.75215C1.21172 0.0249023 0 1.23662 0 2.77705V30.2792C0 31.8196 1.21172 33.0314 2.75215 33.0314H15.4043H22.0043H30.2543C31.7947 33.0314 33.0064 31.8196 33.0064 30.2792V2.77705C33 1.23662 31.7883 0.0249023 30.2479 0.0249023ZM2.75215 31.9292C1.81758 31.9292 1.10215 31.2138 1.10215 30.2792V2.77705C1.10215 1.84248 1.81758 1.12705 2.75215 1.12705H30.2543C31.1889 1.12705 31.9043 1.84248 31.9043 2.77705V30.2792C31.9043 31.2138 31.1889 31.9292 30.2543 31.9292H2.75215Z" fill="#78808C"/>
<path d="M26.8326 12.2589V12.246C26.8133 12.072 26.6328 10.5445 25.8916 9.7646C25.0344 8.84936 24.0547 8.73979 23.5906 8.68179C23.552 8.67534 23.5133 8.67534 23.4875 8.6689L23.4488 8.66245C20.6258 8.4562 16.359 8.43042 16.3139 8.43042H16.3074H16.301C16.2559 8.43042 11.9955 8.4562 9.14023 8.66245L9.10156 8.6689C9.06934 8.67534 9.03711 8.67534 8.99844 8.68179C8.53438 8.73335 7.57402 8.84936 6.71035 9.79682C6.00137 10.5638 5.79512 12.0656 5.77578 12.2332V12.2525C5.76934 12.3234 5.62109 14.025 5.62109 15.7394V17.3378C5.62109 19.0458 5.76934 20.7539 5.77578 20.8248V20.8376C5.79512 21.0052 5.97559 22.507 6.7168 23.2869C7.52246 24.1699 8.54727 24.2859 9.09512 24.3503C9.17891 24.3632 9.25625 24.3697 9.30781 24.3761L9.35938 24.3826C10.99 24.5373 16.1012 24.6146 16.3203 24.6146H16.3268H16.3332C16.3783 24.6146 20.6387 24.5888 23.4682 24.3826L23.5068 24.3761C23.5455 24.3697 23.5842 24.3697 23.6293 24.3632C24.0869 24.3117 25.0473 24.215 25.898 23.2804C26.607 22.5134 26.8133 21.0117 26.8326 20.8441V20.8248C26.8391 20.7539 26.9873 19.0523 26.9873 17.3378V15.7394C26.9938 14.0314 26.8391 12.3298 26.8326 12.2589ZM19.2143 16.9898L15.1408 19.1812C15.0313 19.2392 14.9088 19.2714 14.7863 19.2714C14.651 19.2714 14.5221 19.2328 14.3996 19.1619C14.174 19.0265 14.0322 18.788 14.0322 18.5173V14.0958C14.0322 13.8316 14.1676 13.5867 14.3996 13.4513C14.6316 13.316 14.9088 13.3095 15.1408 13.4384L19.2143 15.6685C19.4527 15.7974 19.6074 16.0552 19.601 16.3259C19.6074 16.6095 19.4527 16.8609 19.2143 16.9898Z" fill="#78808C"/>
</g>
<defs>
<clipPath id="clip0">
<rect width="33" height="33" fill="white"/>
</clipPath>
</defs>
</svg>
