<svg width="60" height="60" viewBox="0 0 60 60" fill="none" xmlns="http://www.w3.org/2000/svg">
<path d="M30 0C13.457 0 0 13.4583 0 30C0 46.5417 13.457 60 30 60C46.543 60 60 46.5417 60 30C60 13.4583 46.543 0 30 0ZM30 57.5C14.8364 57.5 2.49996 45.1636 2.49996 30C2.49996 14.8364 14.8364 2.49996 30 2.49996C45.1636 2.49996 57.5 14.8364 57.5 30C57.5 45.1636 45.1636 57.5 30 57.5Z" fill="white"/>
<path d="M41.9263 28.9488L24.4263 17.6989C24.043 17.4487 23.5474 17.4352 23.1519 17.6524C22.749 17.8722 22.5 18.2922 22.5 18.7499V41.2499C22.5 41.7076 22.749 42.1276 23.1519 42.3473C23.3374 42.4487 23.545 42.4999 23.75 42.4999C23.9844 42.4999 24.2212 42.4339 24.4263 42.3009L41.9263 31.051C42.2828 30.8215 42.5 30.4247 42.5 29.9999C42.5 29.5751 42.2828 29.1784 41.9263 28.9488ZM25 38.9598V21.04L38.938 29.9999L25 38.9598Z" fill="white"/>
</svg>
