<svg width="14" height="12" viewBox="0 0 14 12" fill="none" xmlns="http://www.w3.org/2000/svg">
<path d="M7.09683 5.67074L1.55571 0.129616C1.37227 -0.0475487 1.07995 -0.0424621 0.902785 0.140979C0.72995 0.31993 0.72995 0.603615 0.902785 0.782538L6.11745 5.9972L0.902785 11.2119C0.722509 11.3922 0.722509 11.6845 0.902785 11.8648C1.08312 12.0451 1.3754 12.0451 1.55571 11.8648L7.09683 6.32366C7.27711 6.14333 7.27711 5.85105 7.09683 5.67074Z" fill="white"/>
<path d="M13.0968 5.67074L7.55571 0.129616C7.37227 -0.0475487 7.07995 -0.0424621 6.90279 0.140979C6.72995 0.31993 6.72995 0.603615 6.90279 0.782538L12.1175 5.9972L6.90279 11.2119C6.72251 11.3922 6.72251 11.6845 6.90279 11.8648C7.08312 12.0451 7.3754 12.0451 7.55571 11.8648L13.0968 6.32366C13.2771 6.14333 13.2771 5.85105 13.0968 5.67074Z" fill="white"/>
</svg>
