<svg width="19" height="13" viewBox="0 0 19 13" fill="none" xmlns="http://www.w3.org/2000/svg">
<path d="M10.505 3.11012L10.505 0.629194C10.5051 0.388319 10.6426 0.168609 10.8593 0.0633566C11.076 -0.0418956 11.3337 -0.0142142 11.5231 0.134647L18.6846 5.76155C18.8363 5.88084 18.9248 6.06313 18.9248 6.2561C18.9248 6.44906 18.8363 6.63135 18.6846 6.75064L11.5231 12.3775C11.3337 12.5264 11.076 12.5541 10.8593 12.4488C10.6426 12.3436 10.5051 12.1239 10.505 11.883L10.505 9.39578C10.5051 9.05146 10.2283 8.77106 9.88402 8.76659C7.16527 8.73198 1.18664 8.28966 0.0113 2.67471C-0.0379 2.41573 0.079564 2.15353 0.305575 2.01784C0.531589 1.88215 0.818225 1.90173 1.02368 2.06691C2.0285 2.88738 3.78271 3.73931 6.72986 3.73931L9.87584 3.73931C10.2233 3.73931 10.505 3.45761 10.505 3.11012Z" fill="#1976D3"/>
</svg>
