<svg width="19" height="13" viewBox="0 0 19 13" fill="none" xmlns="http://www.w3.org/2000/svg">
<path d="M8.52944 9.28185V11.6409C8.5294 11.8699 8.3986 12.0788 8.19258 12.1789C7.98656 12.279 7.74149 12.2526 7.56142 12.1111L0.751843 6.76072C0.607628 6.64729 0.523438 6.47395 0.523438 6.29048C0.523438 6.107 0.607628 5.93366 0.751843 5.82023L7.56142 0.469848C7.74149 0.328303 7.98656 0.301981 8.19258 0.402061C8.3986 0.50214 8.5294 0.711055 8.52944 0.940094V3.30508C8.52941 3.63248 8.79256 3.8991 9.11994 3.90335C11.7051 3.93626 17.3899 4.35685 18.5075 9.69586C18.5543 9.94212 18.4426 10.1914 18.2277 10.3205C18.0128 10.4495 17.7402 10.4309 17.5449 10.2738C16.5894 9.49365 14.9214 8.68358 12.1191 8.68358H9.12771C8.79729 8.68358 8.52944 8.95144 8.52944 9.28185Z" fill="#1976D3"/>
</svg>
