<svg width="107" height="47" fill="none" xmlns="http://www.w3.org/2000/svg"><path d="M46.593 26.346h-.205a53.554 53.554 0 00-2.434-.078h-1.948c-.64 0-1.307 0-2.435.078h-.205v-.903l.18-.026.563-.052c.36-.026.897-.103 1.18-.542.23-.335.281-.955.281-1.96v-4.078H33.6v4.077c0 1.006.05 1.626.282 1.961.307.439.82.516 1.178.542l.564.052.18.025v.904h-.205a53.558 53.558 0 00-2.435-.078h-1.948c-.64 0-1.307 0-2.435.078h-.205v-.903l.18-.026.564-.052c.358-.026.897-.103 1.179-.542.23-.335.282-.955.282-1.96v-8.877c0-1.007-.052-1.626-.282-1.962-.308-.438-.82-.516-1.18-.541l-.589-.052h-.18v-.903h.206c1.128.051 1.794.077 2.46.077h1.846c.64 0 1.306 0 2.46-.077h.205v.903h-.18l-.41.077c-.563.026-.974.207-1.178.542-.231.336-.283.955-.283 1.961v3.639h7.971v-3.64c0-1.006-.051-1.625-.282-1.96-.23-.336-.615-.517-1.179-.543l-.564-.051h-.179v-.903h.205c1.128.051 1.794.077 2.46.077h1.846c.64 0 1.307 0 2.46-.077h.205v.903h-.18l-.563.052c-.59.026-.974.207-1.18.542-.255.336-.281.955-.281 1.961v8.877c0 1.006.051 1.625.282 1.961.307.439.82.516 1.179.542l.564.051.18.026v.697l-.026.18zm6.433.206c-3.23 0-5.74-2.4-5.74-5.47s2.536-5.47 5.74-5.47c3.23 0 5.74 2.4 5.74 5.47s-2.51 5.47-5.74 5.47zm0-10.012c-.923 0-3.05.439-3.05 4.568 0 4.102 2.127 4.567 3.05 4.567s3.05-.439 3.05-4.567c0-4.13-2.127-4.568-3.05-4.568zm6.714 9.78v-.928l.18-.027.435-.051c.949-.103 1-.62 1-1.523v-5.47c0-.877-.077-1.42-1-1.497l-.435-.051-.18-.026v-.903h.18c1.41.026 1.845.026 2.127.051h.461c.436 0 .871-.025 1.282-.025.435-.026.871-.026 1.307-.026 3.92 0 4.33 1.858 4.33 2.658 0 .928-.665 1.754-1.64 2.167 1.462.31 2.435 1.29 2.435 2.58 0 .697-.333 3.02-4.485 3.02-.538 0-1.076-.026-1.614-.026-.513-.026-1.077-.026-1.59-.026-.64 0-1.716.026-2.588.077l-.205.026zm3.921-5.032v2.503c0 1.394.436 1.626 1.41 1.626h.051c.974 0 1.666-.284 2.05-.826.231-.335.36-.774.36-1.264 0-.568-.206-.929-.385-1.213-.436-.593-1.025-.8-2.204-.8l-1.282-.026zm0-.928h1.282c1.46 0 1.973-.955 1.973-1.781 0-1.6-1.281-1.806-2.537-1.806-.692 0-.718 0-.718.645v2.942zm17.094 6.192c-.922 0-1.742-.593-2.076-1.548-.922.748-2.127 1.548-3.639 1.548-1.743 0-2.64-1.135-2.64-2.245 0-2.22 2.307-3.148 4.537-4.077.23-.103.461-.18.692-.284.897-.361.897-.413.897-.722v-.362c0-1.703-.282-2.296-1.897-2.296-1.307 0-1.82.31-1.896 1.11v.051c-.026.31-.103 1.213-1.18 1.213-.486 0-1.025-.336-1.025-1.032 0-1.368 1.718-2.22 4.409-2.22 3.895 0 3.895 2.039 3.895 4.18v3.407c0 1.032.052 1.935.641 1.935.308 0 .538-.31.64-.49l.103-.18.103-.155.153.077.436.258.154.077-.077.155c-.538 1.006-1.358 1.6-2.23 1.6zm-2.28-6.012l-.154.077c-1.564.697-3.537 1.548-3.537 3.277 0 .671.41 1.316 1.333 1.316.948 0 1.973-.877 2.332-1.213l.025-3.457zm4.895 12.024v-.902l.154-.027.41-.051c.948-.104 1.025-.645 1.025-1.523V19.043c0-.361 0-.851-.154-1.264-.18-.439-.513-.671-1.025-.671h-.487v-.8l.154-.026c1.563-.206 2.69-.62 3.255-.8l.205-.077.05.206c.052.258.129.748.155 1.497.615-.774 1.614-1.523 3.178-1.523 3.1 0 5.33 2.323 5.33 5.497 0 3.56-2.69 5.418-5.33 5.418-.539 0-1.846-.103-2.973-1.083v4.67c0 1.393.41 1.445.948 1.523l.64.077.18.026v.903h-.205l-.487-.026a64.294 64.294 0 00-2.23-.052c-.845 0-1.82.026-2.563.078l-.23-.052zm6.689-15.817c-1.615 0-2.768 1.238-2.768 2.941v2.839c0 1.728.974 2.89 2.41 2.89 1.537 0 3.203-1.136 3.203-4.335 0-3.923-1.974-4.335-2.845-4.335zM107 29.443h-.923l-.026-.155-.102-.542c-.256-1.239-1.128-2.477-2.512-2.477h-4.126c-1.512 0-2.306 1.341-2.563 2.477l-.128.542-.026.155h-.923v-4.154h.95c.41 0 .922-.646 1.255-1.162 1.076-1.78 1.384-3.2 1.563-4.929.077-.8.103-1.651-.282-2.09-.179-.206-.487-.31-.871-.31h-.539v-.902h.206c.82.052 1.82.078 2.691.078h3.665c.589 0 1.358-.026 1.973-.052l.41-.025h.205v.9l-.179.027-.41.051c-.974.13-1.025.645-1.025 1.522v6.09c0 .774.102.826.487.826H107v4.13zm-5.408-12.49c-.666 0-.743 0-.897 1.29l-.128 1.11c-.384 3.097-1.05 4.258-1.794 5.47-.154.259-.18.362-.18.414 0 .077.18.077.334.077h3.639c.256 0 .359 0 .359-.568v-7.302c0-.387 0-.49-.359-.49h-.974zM9.61 0v7.509c.744.516 6.254 5.135 6.254 9.212 0 0 .154 1.729-6.253 17.52v2.53s8.637-18.038 8.637-24.979C18.273 5.651 9.61 0 9.61 0zM0 11.792c0 1.678.513 4 1.256 6.554.256-6.012 6.484-10.218 7.38-10.811V.025C8.664 0 0 5.652 0 11.793zm1.512 7.277c2.46 7.922 7.15 17.701 7.15 17.701V8.644c-.87.594-6.689 4.387-7.15 10.425zm30.986 17.676v.774h-2.87v6.425h-.923v-7.225h3.793v.026zm.052 3.715c0-.67-.026-1.187-.052-1.703h.846l.051.877h.026c.384-.619 1-1.006 1.82-1.006 1.255 0 2.178 1.058 2.178 2.632 0 1.858-1.128 2.787-2.332 2.787-.692 0-1.282-.31-1.59-.826h-.025v2.864h-.923V40.46zm.922 1.393c0 .13.026.258.051.388.18.645.743 1.11 1.41 1.11 1 0 1.563-.827 1.563-2.014 0-1.032-.538-1.935-1.538-1.935-.64 0-1.23.465-1.41 1.161-.025.13-.076.258-.076.387v.903zm5.355-3.069l1.128 3.07c.128.336.256.748.333 1.058h.026c.102-.31.205-.697.333-1.084l1.025-3.044h1l-1.41 3.69c-.666 1.78-1.127 2.683-1.768 3.25a2.651 2.651 0 01-1.154.62l-.23-.8c.23-.077.538-.232.82-.465.256-.206.564-.567.794-1.057a.596.596 0 00.077-.233c0-.051-.025-.129-.05-.258l-1.898-4.773h.974v.026zm8.919-.001v5.187h-.948v-4.438h-2.383v4.438h-.923v-5.187h4.255zm5.743 0v5.187h-.923v-4.438h-2.383v4.438h-.949v-5.187h4.255zm5.124 3.922c0 .439.026.877.077 1.238h-.846l-.077-.645h-.025c-.282.413-.846.774-1.563.774-1.051 0-1.564-.748-1.564-1.496 0-1.264 1.102-1.935 3.101-1.935v-.104c0-.438-.128-1.187-1.179-1.187-.487 0-.974.155-1.332.387L55 39.118c.435-.284 1.05-.464 1.691-.464 1.563 0 1.948 1.083 1.948 2.116v1.935h-.026zm-.897-1.393c-1.025-.026-2.178.154-2.178 1.16 0 .62.41.904.871.904.667 0 1.102-.439 1.256-.878a1.3 1.3 0 00.051-.31v-.877zm5.587-2.529v2.245h.23l1.949-2.245h1.127l-2.255 2.349c.82.077 1.333.645 1.743 1.574.128.335.307.851.564 1.264h-.974a15.19 15.19 0 01-.487-1.058c-.359-.825-.82-1.213-1.692-1.213h-.18v2.271h-.922v-5.187h.897zm8.765 2.554c0 1.91-1.307 2.762-2.563 2.762-1.384 0-2.46-1.033-2.46-2.658 0-1.73 1.128-2.761 2.563-2.761 1.46-.026 2.46 1.058 2.46 2.657zm-4.075.052c0 1.136.64 1.987 1.564 1.987.897 0 1.563-.851 1.563-2.013 0-.877-.436-1.987-1.538-1.987s-1.589 1.007-1.589 2.013zm5.306-2.605h1.153l.948 2.605c.129.388.36 1.007.462 1.42h.026c.128-.387.41-1.213.615-1.78l.82-2.271h1.153l.359 5.186h-.897l-.128-2.477c-.026-.568-.077-1.213-.103-1.858h-.025c-.129.465-.282.877-.564 1.677l-1 2.606h-.692l-.922-2.554a44.154 44.154 0 01-.513-1.729h-.051c-.026.62-.052 1.29-.077 1.858l-.128 2.451h-.872l.436-5.134zm10.969-.001v5.187h-.923v-4.438h-2.383v4.438h-.923v-5.187h4.229zm5.15 3.922c0 .439.026.877.077 1.238h-.846l-.077-.645h-.025c-.282.413-.846.774-1.564.774-1.05 0-1.563-.748-1.563-1.496 0-1.264 1.102-1.935 3.101-1.935v-.104c0-.438-.128-1.187-1.179-1.187a2.53 2.53 0 00-1.333.387l-.205-.619c.436-.284 1.051-.464 1.692-.464 1.563 0 1.948 1.083 1.948 2.116v1.935h-.026zm-.897-1.393c-1.025-.026-2.178.154-2.178 1.16 0 .62.41.904.87.904.667 0 1.103-.439 1.257-.878a1.3 1.3 0 00.051-.31v-.877zm3.306-2.529v2.09h2.435v-2.09h.922v5.187h-.922v-2.348h-2.435v2.348h-.923v-5.187h.923zm5.767 0v2.194c0 .826 0 1.342-.051 2.064h.026c.307-.62.487-.98.82-1.574l1.614-2.684h1.102v5.187h-.897v-2.193c0-.852.026-1.29.052-2.116h-.026c-.333.67-.564 1.084-.846 1.6-.487.8-1.05 1.806-1.614 2.71h-1.077v-5.188h.897zm5.895 0v2.194c0 .825 0 1.341-.051 2.064h.025c.308-.62.487-.98.82-1.574l1.615-2.684H107v5.187h-.897v-2.194c0-.851.026-1.29.051-2.116h-.025c-.334.671-.564 1.084-.846 1.6-.487.8-1.051 1.807-1.615 2.71h-1.076v-5.187h.897zm.589-2.116c.026.465.257.826.692.826.462 0 .667-.336.718-.826h.692c-.051.877-.59 1.316-1.41 1.316-.948 0-1.307-.593-1.332-1.316h.64z" fill="#B2B9C1"/></svg>