<svg width="290" height="67" fill="none" xmlns="http://www.w3.org/2000/svg"><path d="M132.307 33.956l-6.427 19.45c-2.018 6.164-4.408 9.512-10.57 9.512-2.708 0-5.364-.213-7.064-.638v-4.995c2.178.053 3.24.106 4.674.106 1.859 0 2.603-.797 3.399-2.976l.479-1.328-7.171-19.13-2.496-.266v-5.633h8.71l3.665 12.807a68.387 68.387 0 011.594 6.748h.106c.266-2.072.797-4.357 1.381-6.642l3.346-12.913h8.764v5.633l-2.39.265zm33.621 8.928v.372c0 3.242.425 4.942 5.895 4.942 2.55 0 7.011-.16 9.508-.425v5.208c-1.966.478-5.524 1.116-9.826 1.116-9.295 0-13.226-3.348-13.226-12.01v-2.285c0-8.45 4.462-12.275 12.163-12.275 9.455 0 12.057 6.11 12.057 12.806v2.604h-16.571v-.053zm9.029-4.623c0-2.817-.584-5.208-4.515-5.208-3.877 0-4.461 2.498-4.461 5.208v.372h8.976v-.372zm28.521 15.145l-7.754-11.691v11.69h-9.72v-5.632l2.018-.213V33.85l-2.018-.16v-5.632h9.72V39.27l7.914-11.212h7.701v5.686l-2.868.266-5.205 6.27 5.577 7.174 2.549.319v5.633h-7.914zm43.448.638c-7.648 0-12.11-3.56-12.11-11.904v-2.763c0-8.396 4.409-11.904 12.11-11.904 7.755 0 12.163 3.56 12.163 11.904v2.763c0 8.343-4.408 11.904-12.163 11.904zm4.462-14.667c0-4.41-1.328-5.952-4.462-5.952-3.08 0-4.408 1.488-4.408 5.952v2.763c0 4.41 1.328 5.952 4.408 5.952 3.134 0 4.462-1.488 4.462-5.952v-2.763zm9.772 23.009v-5.632l2.018-.213V33.957l-2.018-.213V28.11h9.189v1.594c2.337-1.594 4.992-2.232 7.489-2.232 5.63 0 9.242 3.082 9.242 11.585v3.135c0 8.715-4.515 11.904-11.738 11.904-1.488 0-3.347-.16-4.409-.372v2.87l2.018.212v5.633l-11.791-.053zm18.218-23.381c0-4.305-1.222-5.527-4.143-5.527-1.274 0-2.549.213-4.461 1.01V47.72c1.328.212 2.602.425 3.824.425 3.08 0 4.727-1.01 4.727-5.952l.053-3.188zM142.77 53.406h7.754V33.69h6.746v-5.633h-20.821v5.633h6.321v19.715zm76.59 0h7.754V33.69h6.746v-5.633h-20.821v5.633h6.321v19.715zm-142.292.053v-5.74l2.072-.159V26.517l-2.072-.213v-5.792c4.143-.319 8.605-.425 12.907-.425 8.604 0 15.456 1.594 15.456 10.787v.425c0 9.3-6.852 11-14.66 11-1.168 0-2.23-.053-3.611-.053v5.261l2.071.213v5.739H77.068zm20.29-22.585c0-3.773-2.284-4.463-6.852-4.463-1.168 0-2.337.053-3.4.053v9.352c1.063.054 2.232.054 3.453.054 4.568 0 6.799-.904 6.799-4.57v-.426z" fill="#78808C"/><path d="M18.803 38.048v-18.12H3.453v33.478h33.462V38.048H18.803z" fill="#0054A4"/><path d="M39.145 19.927v33.479h15.35V19.927h-15.35z" fill="#78808C"/><path d="M3.453 2.338v15.41h17.58V35.87h15.882V17.749h17.58V2.339H3.453z" fill="#EF3E42"/></svg>