<svg width="48" height="29" fill="none" xmlns="http://www.w3.org/2000/svg"><g clip-path="url(#clip0)"><path fill-rule="evenodd" clip-rule="evenodd" d="M33.285 28.421h.695l.757-.063.695-.126.695-.064.695-.19.694-.189.632-.252.631-.253.632-.252.632-.316.568-.38.632-.315.505-.442.568-.379.506-.442.505-.505.442-.506.442-.505.442-.505.38-.569.378-.568.379-.632.316-.631.252-.632.253-.631.253-.632.19-.695.125-.694.127-.695.126-.695.063-.758v-1.452l-.063-.695-.126-.758-.127-.695-.126-.631-.19-.695-.252-.695-.253-.631-.252-.632-.316-.568-.379-.632-.379-.568-.379-.569-.442-.505-.442-.505-.442-.506-.505-.505-.506-.442-.568-.379-.505-.442-.632-.316-.568-.379-.632-.316-.632-.252-.631-.253-.632-.252-.694-.19-.695-.126-.695-.127-.695-.126L33.98 0h-1.452l-.758.063-.695.126-.695.127-.694.126-.632.19-.695.252-.631.253-.632.252-.631.316-.569.38-.568.315-.569.442-.505.379-.568.442-.442.505-.506.506-.442.505-.442.505-.379.569-.379.568-.316.632-.315.568-.316.632-.253.631-.19.695-.189.695-.19.631-.125.695-.064.758-.063.695v1.452l.063.758.064.695.126.695.19.694.189.695.19.632.252.631.316.632.316.631.315.632.38.568.378.569.442.505.442.505.506.506.442.505.568.442.505.379.569.442.568.316.569.379.631.316.632.252.631.253.695.253.632.189.695.19.694.063.695.126.758.063h.758z" fill="#FBB230"/><path fill-rule="evenodd" clip-rule="evenodd" d="M14.21 28.421h.758l.695-.063.758-.126.695-.064.695-.19.631-.189.695-.252.631-.253.632-.252.632-.316.568-.38.568-.315.569-.442.505-.379.505-.442.506-.505.505-.506.442-.505.379-.505.442-.569.379-.568.316-.632.316-.631.252-.632.253-.631.253-.632.189-.695.19-.694.063-.695.126-.695.063-.758v-1.452l-.063-.695-.126-.758-.064-.695-.19-.631-.189-.695-.252-.695-.253-.631-.252-.632-.316-.568-.316-.632-.379-.568-.442-.569-.379-.505-.442-.505-.505-.506-.506-.505-.505-.442-.505-.379-.569-.442-.568-.316-.568-.379-.632-.316-.632-.252-.631-.253-.695-.252-.631-.19-.695-.126-.695-.127-.758-.126L14.968 0h-1.452l-.758.063-.695.126-.695.127-.694.126-.695.19-.632.252-.631.253-.632.252-.631.316-.569.38-.631.315-.506.442-.568.379-.505.442-.506.505-.442.506-.505.505-.379.505-.442.569-.316.568-.379.632-.316.568-.252.632-.253.631-.252.695-.19.695-.126.631L.189 12l-.126.758-.063.695v1.452l.063.758.126.695.127.695.126.694.19.695.252.632.253.631.252.632.316.631.38.632.315.568.442.569.379.505.505.505.442.506.506.505.505.442.568.379.506.442.631.316.569.379.631.316.632.252.631.253.632.253.695.189.694.19.695.063.695.126.758.063h.694z" fill="#EB2230"/><path fill-rule="evenodd" clip-rule="evenodd" d="M22.105 5.432h7.516v-.758h-6.884l-.631.758zm-1.136 1.705h8.652v-.758h-8.21l-.442.758zm-.885 1.768h9.537v-.82h-9.158l-.379.82zm-.568 1.705H29.62v-.757h-9.853l-.252.757zm.316 8.274h9.853v-.758H19.643l.19.758zm.758 1.706h9.095v-.759H20.21l.379.758zm1.009 1.705h8.084v-.758h-8.59l.506.758zm1.39 1.768h6.695v-.82h-7.327l.632.82zM19.2 12.316h10.42v-.758H19.326l-.127.758zm6.378 4.863h3.98v-.758h-3.854l-.126.758zm.317-1.705h3.663v-.758H26.02l-.127.758zm-6.948-.758h1.01v.758h-1.01v-.758z" fill="#FBB230"/><path fill-rule="evenodd" clip-rule="evenodd" d="M16.99 13.768h-.127l-.063-.063h-.316l-.063-.063h-.569l-.189.063h-.189l-.064.063h-.063l-.063.063h-.063l-.063.064-.063.063v.316l.063.063v.063l.126.063.126.126.127.064h.126l.19.063.126.063.19.063.126.063.126.063.126.127.127.126.126.126.063.19.063.19v.567l-.063.252-.063.19-.063.19-.063.126-.127.189-.126.063-.126.127-.127.126-.19.063-.126.063h-.189l-.19.063h-.126l-.19.064h-1.261l-.127-.064h-.315l-.064-.063h-.19l-.063-.063h-.063l-.127-.063.253-1.01h.126l.127.063h.126l.126.063h.253l.126.063h.948l.126-.063.063-.064.063-.063.063-.063.063-.063v-.442l-.126-.063-.126-.063-.127-.127-.126-.063-.19-.063-.189-.063-.19-.063-.189-.127-.19-.126-.126-.126-.126-.19-.126-.252v-.695l.063-.19v-.19l.063-.125.127-.19.063-.126.126-.063.063-.127.19-.126.126-.063.19-.063.189-.063h.19l.252-.064H16.8l.063.064h.316v.063h.063l-.253 1.073z" fill="#fff"/><path d="M16.99 13.768h-.127l-.063-.063h-.316l-.063-.063h-.569l-.189.063h-.189l-.064.063h-.063l-.063.063h-.063l-.063.064-.063.063v.316l.063.063v.063l.126.063.126.126.127.064h.126l.19.063.126.063.19.063.126.063.126.063.126.127.127.126.126.126.063.19.063.19v.567l-.063.252-.063.19-.063.19-.063.126-.127.189-.126.063-.126.127-.127.126-.19.063-.126.063h-.189l-.19.063h-.126l-.19.064h-1.261l-.127-.064h-.315l-.064-.063h-.19l-.063-.063h-.063l-.127-.063.253-1.01h.126l.127.063h.126l.126.063h.253l.126.063h.948l.126-.063.063-.064.063-.063.063-.063.063-.063v-.442l-.126-.063-.126-.063-.127-.127-.126-.063-.19-.063-.189-.063-.19-.063-.189-.127-.19-.126-.126-.126-.126-.19-.126-.252v-.695l.063-.19v-.19l.063-.125.127-.19.063-.126.126-.063.063-.127.19-.126.126-.063.19-.063.189-.063h.19l.252-.064H16.8l.063.064h.316v.063h.063l-.253 1.073z" stroke="#fff" stroke-width=".216" stroke-miterlimit="2.613"/><path fill-rule="evenodd" clip-rule="evenodd" d="M18.127 11.495h1.326l-.19 1.137h.822l-.19 1.073h-.884l-.442 2.653v.126l.063.063v.063l.063.064.127.063h.631l.064-.063h.126l-.19.884-.063.063h-.063l-.063.063h-.126l-.064.063h-.315l-.127.063h-.316l-.189-.063h-.316l-.19-.063-.062-.063h-.127l-.063-.063-.063-.063-.063-.064v-.126l-.063-.063v-.379l.063-.126.884-5.242z" fill="#fff"/><path d="M18.127 11.495h1.326l-.19 1.137h.822l-.19 1.073h-.884l-.442 2.653v.126l.063.063v.063l.063.064.127.063h.631l.064-.063h.126l-.19.884-.063.063h-.063l-.063.063h-.126l-.064.063h-.315l-.127.063h-.316l-.189-.063h-.316l-.19-.063-.062-.063h-.127l-.063-.063-.063-.063-.063-.064v-.126l-.063-.063v-.379l.063-.126.884-5.242z" stroke="#fff" stroke-width=".216" stroke-miterlimit="2.613"/><path d="M21.095 15.537v.252l.063.127v.063l.063.063.063.126v.064l.063.063.127.126.063.063.063.063h.126l.063.063.127.064h.315l.127.063h.631l.127-.063h.252l.127-.064.126-.063.19-.063.126-.063.126-.063-.19 1.137-.063.063-.126.063h-.126l-.063.063h-.127l-.126.063h-.632l-.126.064h-.19l-.252-.064H21.6l-.253-.063-.252-.063-.19-.126-.253-.127-.189-.126-.19-.19-.126-.189-.19-.19-.062-.252-.127-.316-.063-.316v-.315l.063-.443v-.316l.063-.189.064-.19.063-.189.063-.252.126-.19.127-.19.189-.189.19-.19.189-.189.253-.126.252-.126.316-.063.316-.064h.821l.19.064h.189l.19.063.189.126.19.126.125.127.127.126.126.19.126.252.064.253.063.252v.38l-.063.315-.064.442v.253h-3.536l.252-.948h2.084v-.378l-.063-.127v-.063l-.063-.063-.063-.063-.063-.063-.063-.064-.063-.063h-.064l-.063-.063h-.505l-.126.063h-.064l-.063.063-.063.063-.063.064-.063.063-.063.063-.063.063-.064.063v.127l-.063.063v.126l-.063.063-.19 1.01z" stroke="#fff" stroke-width=".216" stroke-miterlimit="2.613"/><path fill-rule="evenodd" clip-rule="evenodd" d="M32.525 12.947l-.063-.063H32.4l-.063-.063h-.063l-.064-.063h-.063l-.063-.063h-.189l-.127-.063h-.315l-.064-.063h-.379l-.126.063h-.253l-.126.063-.126.063-.19.063-.126.063-.126.127-.127.126-.126.126-.063.19-.126.19-.127.252-.063.253-.063.315-.063.19v.631l.063.19v.126l.063.126.063.127.127.126.063.126.126.127.127.063.126.063.19.063.189.063h.126l.063.063h.569l.126-.063h.253l.126-.063.126-.063.063-.063.127-.063.126-.063-.253 1.263-.063.063-.063.063h-.063l-.063.063h-.063l-.064.063h-.126l-.126.063h-1.454l-.253-.063-.189-.063-.253-.126-.189-.063-.19-.19-.189-.126-.19-.19-.126-.252-.19-.253-.062-.252-.127-.316-.063-.316v-.695l.063-.379.063-.19v-.189l.064-.19.063-.189.063-.19.063-.125.063-.19.063-.126.063-.19.064-.126.063-.126.126-.127.063-.126.064-.126.126-.063.126-.127.063-.063.127-.126.126-.063.126-.063.127-.127.126-.063h.126l.127-.063.189-.063.126-.064h.127l.19-.063h.505l.189-.063.126.063h.442l.127.063h.252l.127.064h.126l.063.063h.126l.063.063h.127l.063.063-.253 1.326z" fill="#fff"/><path d="M32.525 12.947l-.063-.063H32.4l-.063-.063h-.063l-.064-.063h-.063l-.063-.063h-.189l-.127-.063h-.315l-.064-.063h-.379l-.126.063h-.253l-.126.063-.126.063-.19.063-.126.063-.126.127-.127.126-.126.126-.063.19-.126.19-.127.252-.063.253-.063.315-.063.19v.631l.063.19v.126l.063.126.063.127.127.126.063.126.126.127.127.063.126.063.19.063.189.063h.126l.063.063h.569l.126-.063h.253l.126-.063.126-.063.063-.063.127-.063.126-.063-.253 1.263-.063.063-.063.063h-.063l-.063.063h-.063l-.064.063h-.126l-.126.063h-1.454l-.253-.063-.189-.063-.253-.126-.189-.063-.19-.19-.189-.126-.19-.19-.126-.252-.19-.253-.062-.252-.127-.316-.063-.316v-.695l.063-.379.063-.19v-.189l.064-.19.063-.189.063-.19.063-.125.063-.19.063-.126.063-.19.064-.126.063-.126.126-.127.063-.126.064-.126.126-.063.126-.127.063-.063.127-.126.126-.063.126-.063.127-.127.126-.063h.126l.127-.063.189-.063.126-.064h.127l.19-.063h.505l.189-.063.126.063h.442l.127.063h.252l.127.064h.126l.063.063h.126l.063.063h.127l.063.063-.253 1.326z" stroke="#fff" stroke-width=".216" stroke-miterlimit="2.613"/><path fill-rule="evenodd" clip-rule="evenodd" d="M44.336 17.81H43.01l.126-.568v-.063l-.063.126-.126.063-.063.064-.063.126-.127.063h-.063l-.063.063-.126.063h-.063l-.127.063H42l-.127.064h-.189l-.253-.064h-.19l-.252-.126-.19-.063-.126-.19-.19-.126-.125-.19-.127-.189-.063-.252-.126-.19v-.253l-.064-.252v-.758l.064-.19.063-.315.063-.253.126-.253.127-.252.126-.19.126-.19.127-.189.189-.126.19-.19.126-.063.19-.126.189-.063.19-.063.189-.063.19-.063h.379l.126.063h.252l.063.063.127.063.063.063h.126l.063.063.063.063.063.064.064.063.063.063v.063l.063.063v.063l.379-1.894h1.263l-1.074 6.315z" fill="#fff"/><path d="M44.336 17.81H43.01l.126-.568v-.063l-.063.126-.126.063-.063.064-.063.126-.127.063h-.063l-.063.063-.126.063h-.063l-.127.063H42l-.127.064h-.189l-.253-.064h-.19l-.252-.126-.19-.063-.126-.19-.19-.126-.125-.19-.127-.189-.063-.252-.126-.19v-.253l-.064-.252v-.758l.064-.19.063-.315.063-.253.126-.253.127-.252.126-.19.126-.19.127-.189.189-.126.19-.19.126-.063.19-.126.189-.063.19-.063.189-.063.19-.063h.379l.126.063h.252l.063.063.127.063.063.063h.126l.063.063.063.063.063.064.064.063.063.063v.063l.063.063v.063l.379-1.894h1.263l-1.074 6.315z" stroke="#fff" stroke-width=".216" stroke-miterlimit="2.613"/><path fill-rule="evenodd" clip-rule="evenodd" d="M42.189 16.61h.253l.126-.063.126-.063.063-.063.127-.063.063-.063.063-.127.126-.063.063-.126.064-.063v-.127l.063-.126.063-.126v-.127l.063-.126v-.821l-.063-.063v-.126l-.063-.127-.063-.063-.064-.063-.063-.063-.063-.063-.126-.063h-.442l-.127.063h-.063l-.126.063-.063.126-.127.063-.063.063-.063.127-.063.126-.063.126-.063.127-.063.126v.126l-.064.127v.126l-.063.19v.252l.063.253.063.19.064.189.126.19.19.125h.189z" fill="#FBB230"/><path fill-rule="evenodd" clip-rule="evenodd" d="M12.758 16.737l-.19 1.074h-1.2v-.253l.064-.127v-.252l-.063.126-.063.063-.127.064-.063.063-.126.063-.127.063-.126.063-.126.063h-.126l-.127.064h-.19l-.125.063h-.379l-.127-.063h-.19l-.126-.064-.189-.063-.126-.063-.064-.063-.126-.127-.063-.063-.063-.126-.063-.063-.063-.126v-.127l-.064-.063v-.821l.064-.19.063-.126.063-.19.126-.125.063-.127.127-.126.126-.127.126-.063.127-.126.19-.063.125-.063.127-.063h.19l.189-.064h.252l.063-.063h1.327V14.4l.063-.126v-.19l-.063-.063-.063-.126-.064-.063-.126-.064h-.063l-.126-.063h-1.011l-.19.063h-.252l-.126.063h-.253l-.126.064h-.063l-.064.063h-.063l.316-1.137.126-.063h.127l.063-.063h.126l.127-.063h.378l.127-.064h1.073l.127.064h.315l.127.063.19.063.126.063.126.063.126.127.127.126.126.063.126.126.063.19v.126l.064.19v.189l-.064.19-.442 2.526z" fill="#fff"/><path d="M12.758 16.737l-.19 1.074h-1.2v-.253l.064-.127v-.252l-.063.126-.063.063-.127.064-.063.063-.126.063-.127.063-.126.063-.126.063h-.126l-.127.064h-.19l-.125.063h-.379l-.127-.063h-.19l-.126-.064-.189-.063-.126-.063-.064-.063-.126-.127-.063-.063-.063-.126-.063-.063-.063-.126v-.127l-.064-.063v-.821l.064-.19.063-.126.063-.19.126-.125.063-.127.127-.126.126-.127.126-.063.127-.126.19-.063.125-.063.127-.063h.19l.189-.064h.252l.063-.063h1.327V14.4l.063-.126v-.19l-.063-.063-.063-.126-.064-.063-.126-.064h-.063l-.126-.063h-1.011l-.19.063h-.252l-.126.063h-.253l-.126.064h-.063l-.064.063h-.063l.316-1.137.126-.063h.127l.063-.063h.126l.127-.063h.378l.127-.064h1.073l.127.064h.315l.127.063.19.063.126.063.126.063.126.127.127.126.126.063.126.126.063.19v.126l.064.19v.189l-.064.19-.442 2.526z" stroke="#fff" stroke-width=".216" stroke-miterlimit="2.613"/><path fill-rule="evenodd" clip-rule="evenodd" d="M11.559 15.474v-.063H10.8l-.063.063h-.127l-.063.063h-.126l-.063.063h-.063l-.063.063-.064.063-.063.064-.063.063H9.98v.063l-.063.063v.126l-.063.064v.126l.063.19v.063l.063.063.063.063h.126l.063.063h.19l.19-.063h.189l.126-.063.063-.064h.063l.127-.063.063-.063.063-.063v-.063l.063-.063.063-.063v-.127l.064-.126.063-.19v-.252z" fill="#EB2230"/><path fill-rule="evenodd" clip-rule="evenodd" d="M2.652 17.81H1.326l1.137-6.315h2.274l.19 3.726 1.578-3.726h2.337L7.768 17.81H6.442l.821-4.736H7.2L5.242 17.81H3.789v-.252l-.063-.506v-.757l-.063-.821-.063-.885-.063-.758v-.757h-.063l-.822 4.736z" fill="#fff"/><path d="M2.652 17.81H1.326l1.137-6.315h2.274l.19 3.726 1.578-3.726h2.337L7.768 17.81H6.442l.821-4.736H7.2L5.242 17.81H3.789v-.252l-.063-.506v-.757l-.063-.821-.063-.885-.063-.758v-.757h-.063l-.822 4.736z" stroke="#fff" stroke-width=".216" stroke-miterlimit="2.613"/><path fill-rule="evenodd" clip-rule="evenodd" d="M36.569 16.737l-.253 1.074h-1.2v-.253l.063-.127v-.189l-.063.063-.063.063-.126.064-.063.063-.127.063-.126.063-.126.063-.127.063h-.126l-.126.064h-.127l-.126.063h-.379l-.126-.063h-.19l-.19-.064-.126-.063-.126-.063-.063-.063-.126-.127-.063-.063-.064-.126-.063-.063-.063-.126v-.127l-.063-.063v-.821l.063-.19.063-.126.063-.19.127-.125.063-.127.126-.126.127-.127.126-.063.126-.126.19-.063.126-.063.126-.063h.19l.126-.064h.253l.063-.063h1.389v-.252l.063-.063-.063-.127v-.063l-.063-.126-.126-.063-.063-.064h-.063l-.127-.063h-1.01l-.127.063h-.315l-.127.063h-.252l-.127.064h-.063l-.063.063h-.063l.316-1.137.126-.063h.126l.063-.063h.127l.126-.063h.379l.126-.064h1.074l.126.064h.317l.125.063.127.063.19.063.126.063.126.127.126.126.127.063.063.126.063.19.063.126.063.19v.189l-.063.19-.442 2.526z" fill="#fff"/><path fill-rule="evenodd" clip-rule="evenodd" d="M36.316 17.81h.064l.189-1.073h-.063l-.19 1.01v.064h.064-.064zm-1.201 0h1.2v-.063h-1.2l.063.064h-.063z" fill="#fff"/><path fill-rule="evenodd" clip-rule="evenodd" d="M35.178 17.242l-.063-.063v.632h.063v-.569l-.063-.063.063.063z" fill="#fff"/><path fill-rule="evenodd" clip-rule="evenodd" d="M33.348 17.874h.631l.127-.063h.189l.126-.064.127-.063h.126l.063-.063.127-.063.126-.126.063-.064.063-.063.063-.063-.063-.063-.063.126-.063.063-.063.064-.127.063-.063.063-.126.063-.127.063h-.126l-.126.063h-.126l-.127.064h-.631v.063zm-1.201-1.453v.19l.063.126v.189l.063.127.063.126.063.063.063.127.063.063.064.126.126.063.126.063.127.063.189.064.19.063v-.063l-.19-.064-.126-.063-.127-.063-.126-.063-.126-.063-.063-.063-.127-.127-.063-.063v-.126l-.063-.063-.063-.127v-.189l-.063-.126v-.19h-.063z" fill="#fff"/><path fill-rule="evenodd" clip-rule="evenodd" d="M33.852 14.59h-.127l-.189.063-.126.063-.19.063-.126.063-.127.063-.126.127-.126.126-.126.126-.127.126-.063.127-.063.19-.063.125-.063.19-.063.19v.189h.063v-.19l.063-.189v-.19l.063-.126.126-.126.063-.19.127-.126.063-.126.126-.063.127-.127.126-.063.19-.063.126-.063.19-.063.125-.063h.127v-.064zm1.012-.127h-.316l-.126.063h-.442l-.063.063h-.064v.064h.064v-.064h.442l.063-.063h.442v-.063z" fill="#fff"/><path fill-rule="evenodd" clip-rule="evenodd" d="M35.495 14.526l.063-.063h-.695v.063h.695-.063z" fill="#fff"/><path fill-rule="evenodd" clip-rule="evenodd" d="M35.557 14.21v.19l-.063.063v.063h.063v-.063l.063-.063v-.19h-.063z" fill="#fff"/><path fill-rule="evenodd" clip-rule="evenodd" d="M34.99 13.705v.063h.19l.126.064.063.063.063.063.063.063.064.063v.127h.063v-.127l-.063-.063-.063-.126-.064-.063-.126-.064-.063-.063h-.127l-.126-.063v.063z" fill="#fff"/><path fill-rule="evenodd" clip-rule="evenodd" d="M32.906 13.958l.063.063.064-.063h.063l.063-.063h.126l.127-.063h.252l.127-.064h.442l.189-.063h.569l-.127-.063h-.442l-.19.063h-.442l-.126.063h-.253l-.126.064h-.126l-.063.063h-.063l-.064.063h-.063z" fill="#fff"/><path fill-rule="evenodd" clip-rule="evenodd" d="M33.285 12.758v.063l-.379 1.137h.063l.38-1.137h-.064v-.063.063-.063z" fill="#fff"/><path fill-rule="evenodd" clip-rule="evenodd" d="M35.432 12.568h-1.326l-.126.064h-.253l-.126.063h-.063l-.127.063h-.126v.063h.127l.126-.063h.063l.126-.063h.127l.126-.063h1.453v-.064z" fill="#fff"/><path fill-rule="evenodd" clip-rule="evenodd" d="M37.074 14.21v-.567l-.063-.126-.064-.19-.126-.126-.126-.126-.127-.127-.126-.063-.126-.063-.127-.063-.189-.063-.126-.063-.19-.064h-.252v.064h.252l.19.063.126.063.126.063.19.063.126.063.127.064.126.126.063.126.126.126.063.127.064.126v.569h.063z" fill="#fff"/><path fill-rule="evenodd" clip-rule="evenodd" d="M36.569 16.737l.505-2.527h-.063l-.505 2.527h.063z" fill="#fff"/><path fill-rule="evenodd" clip-rule="evenodd" d="M35.367 15.474v-.063h-.126l-.063-.064h-.126l-.064.064h-.379l-.063.063h-.189l-.063.063h-.063l-.064.063h-.063l-.063.063-.063.063h-.063l-.063.063-.064.064v.063l-.063.063v.126l-.063.064v.126l.063.19v.062l.063.064.064.063h.126l.063.063h.253l.126-.063h.126l.063-.063h.127l.063-.064.126-.063h.063l.064-.063.063-.063.063-.063.063-.063v-.127l.063-.063v-.189l.063-.127v-.252z" fill="#FBB230"/><path fill-rule="evenodd" clip-rule="evenodd" d="M45.22 17.116l.064-.127v-.126l.063-.063.126-.126.063-.064.127-.063.126-.063h.253l.126.063.126.063.127.064.063.126.063.063.063.126v.127h-.19v-.19l-.063-.063-.063-.126-.063-.063-.063-.064h-.442l-.126.064-.064.063-.063.126-.063.063v.19h-.19z" fill="#fff"/><path fill-rule="evenodd" clip-rule="evenodd" d="M45.662 17.116v-.253h.442l.063.063v.19h-.252.126v-.064h.063v-.063l-.063-.063h-.253v.19h-.126z" fill="#fff"/><path fill-rule="evenodd" clip-rule="evenodd" d="M45.22 17.116v.063l.064.126v.127l.063.126.126.063.063.063.127.063.126.064h.253l.126-.064.126-.063.127-.063.063-.063.063-.127.063-.126v-.189h-.19l.064.063-.063.063v.126l-.063.127-.064.063-.063.063-.063.063h-.442l-.126-.063-.064-.063-.063-.063-.063-.127v-.252h-.19z" fill="#fff"/><path fill-rule="evenodd" clip-rule="evenodd" d="M45.662 17.116v.316h.126v-.253h.127l.126.253h.126l-.126-.253h.063l.063-.063h-.505z" fill="#fff"/><path d="M45.22 17.179v-.126l.064-.127.063-.126.063-.126.127-.064.126-.063.126-.063h.253l.126.063.126.063.127.064.063.126.063.126.063.127v.252l-.063.127-.063.126-.063.126h-.127l-.126.063-.126.063h-.253l-.126-.063-.127-.063-.063-.063-.063-.126-.063-.127-.063-.126-.063-.063zm.57.253h-.127v-.569h.505v.253h-.126l.126.252h-.126l-.127-.252h-.126v.316zm.125-.316h.064v-.063h-.127v.189h.063v-.126zm0 .568h.127l.126-.063.063-.063.063-.063.064-.064.063-.063v-.505l-.063-.126-.064-.063-.063-.064-.063-.063-.126-.063h-.253l-.126.063-.063.063-.064.064-.063.19-.063.125v.506l.063.063.063.063.064.063.063.063.126.063.126-.126z" stroke="#fff" stroke-width=".216" stroke-miterlimit="2.613"/><path fill-rule="evenodd" clip-rule="evenodd" d="M36.885 17.81h1.39l.441-2.778.063-.064v-.252l.064-.063.063-.127.063-.126.063-.063.063-.127.063-.063.127-.063.126-.063.126-.063.127-.063h.126l.19-.063h.315l.19-1.264-.127.064h-.252l-.127.063h-.063l-.126.063-.126.063-.063.063-.064.063-.126.064-.063.063-.063.063-.063.126-.064.063-.063.063-.126.127.19-.884h-1.39l-.884 5.179z" fill="#fff"/><path d="M36.885 17.81h1.39l.441-2.778.063-.064v-.252l.064-.063.063-.127.063-.126.063-.063.063-.127.063-.063.127-.063.126-.063.126-.063.127-.063h.126l.19-.063h.315l.19-1.264-.127.064h-.252l-.127.063h-.063l-.126.063-.126.063-.063.063-.064.063-.126.064-.063.063-.063.063-.063.126-.064.063-.063.063-.126.127.19-.884h-1.39l-.884 5.179z" stroke="#fff" stroke-width=".216" stroke-miterlimit="2.613"/><path fill-rule="evenodd" clip-rule="evenodd" d="M24.19 17.81h1.389l.442-2.778.063-.064v-.189l.063-.126v-.127l.064-.063.063-.063.063-.126.063-.063.126-.064.064-.063.126-.063h.126l.19-.063h.126l.19-.063h.063v.063h.126v-.19l.063-.063v-.126l.063-.19v-.126l.063-.126.064-.063v-.127l.063-.063.063-.063.063-.126v-.063h.063-.126l-.063-.064h-.064l-.126.064h-.253l-.126.063h-.126l-.063.063-.127.063-.063.063-.126.063-.063.064-.063.063-.063.063-.064.126-.063.063-.063.063-.126.127.19-.884h-1.39l-.885 5.179z" fill="#fff"/><path d="M24.19 17.81h1.389l.442-2.778.063-.064v-.189l.063-.126v-.127l.064-.063.063-.063.063-.126.063-.063.126-.064.064-.063.126-.063h.126l.19-.063h.126l.19-.063h.063v.063h.126v-.19l.063-.063v-.126l.063-.19v-.126l.063-.126.064-.063v-.127l.063-.063.063-.063.063-.126v-.063h.063-.126l-.063-.064h-.064l-.126.064h-.253l-.126.063h-.126l-.063.063-.127.063-.063.063-.126.063-.063.064-.063.063-.063.063-.064.126-.063.063-.063.063-.126.127.19-.884h-1.39l-.885 5.179z" stroke="#fff" stroke-width=".216" stroke-miterlimit="2.613"/><path fill-rule="evenodd" clip-rule="evenodd" d="M45.285 22.8v-.126l.063-.126.127-.064.063-.063.126-.063.126-.063h.253l.126.063.127.063.126.063.063.064.063.126.063.126h-.189v-.063l-.063-.126-.063-.063-.063-.064-.064-.063h-.126l-.126-.063-.127.063h-.063l-.126.063-.063.064-.063.063-.064.126v.063h-.126z" fill="#FBB230"/><path fill-rule="evenodd" clip-rule="evenodd" d="M45.662 22.8v-.126h.442l.063.063v.063h-.063v-.063h-.316v.063h-.126zm-.442.126l.064-.126h.126v.126h-.19zm.442 0V22.8h.126v.126h.253v-.063h.063V22.8h.063v.126h-.505zm.823 0l-.063-.126h.19v.126h-.127z" fill="#FBB230"/><path fill-rule="evenodd" clip-rule="evenodd" d="M45.22 22.926l.064.127v.19l.063.062.126.127.063.063.127.063.126.063h.253l.126-.063.126-.063.127-.064.063-.126.063-.063.063-.19v-.126h-.126l-.063.127v.126l-.063.063-.064.126-.063.064h-.063l-.126.063h-.253l-.063-.064H45.6l-.064-.063-.063-.126-.063-.063v-.253h-.19z" fill="#FBB230"/><path fill-rule="evenodd" clip-rule="evenodd" d="M45.662 22.926v.253h.126v-.19h.127l.126.19h.126l-.126-.19h.063v-.063h.063-.505z" fill="#FBB230"/><path fill-rule="evenodd" clip-rule="evenodd" d="M24.378 14.147l-.063-.252-.063-.253-.127-.19L24 13.2l-.126-.19-.19-.126-.19-.126-.125-.063-.19-.063h-.19l-.189-.064h-.758l-.379.064-.316.063-.252.126-.253.126-.19.19-.189.19-.126.189-.126.19-.19.189-.063.19-.063.189-.063.252-.063.19v1.073l.063.316.063.253.126.252.127.19.189.19.19.189.189.126.19.127.252.063.253.063.252.063.253.063h1.767l.064-.063.063-.063.19-1.2-.064.063-.126.063-.127.063-.126.063-.19.064h-1.514l-.127-.064-.126-.063-.063-.063-.063-.063-.063-.063-.064-.063-.063-.064-.063-.063-.063-.063-.063-.063v-.253h3.095v-.315l.063-.38.063-.378.063-.569zm-1.326.442h-1.769v-.315l.063-.127.064-.063.063-.063.063-.063.063-.063.063-.063.064-.064.063-.063.063-.063.063-.063h.505l.063.063.064.063.063.063.063.063.063.064.063.063.063.063.064.063v.379l.126.126z" fill="#fff"/></g><defs><clipPath id="clip0"><path fill="#fff" d="M0 0h48v28.737H0z"/></clipPath></defs></svg>