<svg width="56" height="34" fill="none" xmlns="http://www.w3.org/2000/svg"><path d="M14.884 9.505s-2.137 0-2.726 2.063c-.516 1.916-1.99 7.074-2.063 7.222h-.442s-1.548-5.306-2.064-7.221C7 9.505 4.863 9.505 4.863 9.505H0v15.621h4.937v-9.284h.442l2.874 9.284h3.39l2.873-9.284h.442v9.284h4.937V9.506h-5.01zm17.98 0s-1.474.148-2.137 1.621l-3.463 7.664h-.442V9.505h-4.937v15.621h4.642s1.474-.147 2.21-1.62l3.39-7.664h.442v9.284h4.937V9.506h-4.642zm6.851 7.074v8.547h4.937v-5.01h5.305c2.358 0 4.274-1.474 5.01-3.537H39.715z" fill="#4DB45E"/><path d="M49.96 9.505H38.98c.516 2.948 2.8 5.38 5.674 6.116.663.147 1.326.295 2.063.295h8.4c.074-.369.074-.737.074-1.105.074-2.948-2.284-5.306-5.232-5.306z" fill="url(#paint0_linear)"/><defs><linearGradient id="paint0_linear" x1="39" y1="12.705" x2="55.265" y2="12.705" gradientUnits="userSpaceOnUse"><stop offset=".3" stop-color="#00B4E6"/><stop offset="1" stop-color="#088CCB"/></linearGradient></defs></svg>