<svg width="56" height="19" fill="none" xmlns="http://www.w3.org/2000/svg"><path d="M24.021 17.684h-4.568L22.327.294h4.494l-2.8 17.39zM15.695.295L11.42 12.232l-.516-2.58-1.547-7.81S9.21.295 7.22.295H.074L0 .589s2.21.443 4.716 1.99L8.62 17.684h4.716L20.484.368h-4.79V.295zM51.21 17.684h4.127L51.727.294h-3.611c-1.695 0-2.064 1.327-2.064 1.327l-6.779 16.063h4.716l.958-2.579h5.747l.516 2.58zm-5.01-6.19l2.358-6.484 1.326 6.485H46.2zm-6.557-6.999l.59-3.758S38.242 0 36.18 0c-2.21 0-7.59.958-7.59 5.747 0 4.495 6.263 4.569 6.263 6.853 0 2.358-5.6 1.916-7.442.442l-.663 3.905s1.99.958 5.084.958c3.095 0 7.737-1.62 7.737-5.968 0-4.495-6.337-4.937-6.337-6.853.074-1.916 4.495-1.695 6.41-.59z" fill="#0A67B2"/><path d="M10.832 9.653L9.358 1.842S9.21.295 7.22.295H.074L0 .589s3.39.737 6.705 3.39c3.169 2.505 4.127 5.674 4.127 5.674z" fill="#FAA634"/></svg>