<svg width="16" height="16" viewBox="0 0 16 16" fill="none" xmlns="http://www.w3.org/2000/svg">
<path d="M1.66666 9C0.748 9 0 8.252 0 7.33334V2C0 1.08134 0.748 0.333344 1.66666 0.333344H3.66666C4.042 0.333344 4.38731 0.46 4.66666 0.670688V9H1.66666Z" fill="#78808C"/>
<path d="M15.9987 6.49997C15.9987 6.90063 15.84 7.27397 15.5647 7.54932C15.876 7.88997 16.0347 8.34666 15.9913 8.82197C15.9133 9.66931 15.15 10.3333 14.2527 10.3333H10.1347C10.3387 10.9527 10.6653 12.088 10.6653 13C10.6653 14.446 9.43669 15.6666 8.66534 15.6666C7.97269 15.6666 7.478 15.2766 7.45669 15.2606C7.37803 15.1973 7.33203 15.1013 7.33203 15V12.7393L5.41203 8.57997L5.33203 8.53931V1.39397C5.87469 1.13797 6.56134 0.999972 6.99869 0.999972H13.118C13.844 0.999972 14.4794 1.48932 14.6287 2.16463C14.7053 2.51197 14.6607 2.86197 14.508 3.16597C15.0007 3.41397 15.332 3.92132 15.332 4.49997C15.332 4.73597 15.278 4.96197 15.1754 5.16663C15.668 5.41463 15.9987 5.92197 15.9987 6.49997Z" fill="#78808C"/>
</svg>
