<svg width="16" height="16" viewBox="0 0 16 16" fill="none" xmlns="http://www.w3.org/2000/svg">
<path d="M1.66666 7C0.748 7 0 7.748 0 8.66666V14C0 14.9187 0.748 15.6667 1.66666 15.6667H3.66666C4.042 15.6667 4.38731 15.54 4.66666 15.3293V7H1.66666Z" fill="#78808C"/>
<path d="M15.9987 9.50003C15.9987 9.09937 15.84 8.72603 15.5647 8.45068C15.876 8.11003 16.0347 7.65334 15.9913 7.17803C15.9133 6.33069 15.15 5.66669 14.2527 5.66669H10.1347C10.3387 5.04734 10.6653 3.91203 10.6653 3.00003C10.6653 1.55403 9.43669 0.333374 8.66534 0.333374C7.97269 0.333374 7.478 0.723374 7.45669 0.739374C7.37803 0.802718 7.33203 0.898718 7.33203 1.00003V3.26069L5.41203 7.42003L5.33203 7.46069V14.606C5.87469 14.862 6.56134 15 6.99869 15H13.118C13.844 15 14.4794 14.5107 14.6287 13.8354C14.7053 13.488 14.6607 13.138 14.508 12.834C15.0007 12.586 15.332 12.0787 15.332 11.5C15.332 11.264 15.278 11.038 15.1754 10.8334C15.668 10.5854 15.9987 10.078 15.9987 9.50003Z" fill="#78808C"/>
</svg>
