<svg width="24" height="22" viewBox="0 0 24 22" fill="none" xmlns="http://www.w3.org/2000/svg">
<path d="M4.56341 21.3519C3.47071 21.3519 2.44396 20.926 1.67174 20.154C0.0775195 18.5596 0.0775195 15.9652 1.67174 14.371L14.3134 1.72873C15.3318 0.709202 16.6874 0.148438 18.1285 0.148438C19.5699 0.148438 20.9254 0.709202 21.9439 1.72873C22.9634 2.74798 23.5248 4.10272 23.5248 5.54384C23.5248 6.98524 22.964 8.33993 21.9448 9.35857L11.9931 19.3093C11.6943 19.608 11.2104 19.608 10.9118 19.3093C10.613 19.0106 10.613 18.5267 10.9118 18.2279L20.8633 8.27716C21.5937 7.54685 21.9954 6.57603 21.9954 5.54384C21.9954 4.51184 21.5929 3.5404 20.8626 2.81C20.1321 2.07969 19.1613 1.67778 18.1285 1.67778C17.0959 1.67778 16.1251 2.07969 15.3946 2.81L2.75314 15.4522C1.7555 16.4507 1.7555 18.0743 2.75314 19.0726C3.72088 20.039 5.40576 20.039 6.37344 19.0726L14.8621 10.5833C15.0929 10.3525 15.2251 10.033 15.2251 9.70727C15.2251 9.37704 15.096 9.06574 14.8614 8.83123C14.379 8.34884 13.5927 8.34738 13.1103 8.83123L7.31291 14.6292C7.01432 14.9281 6.53024 14.9281 6.23165 14.6292C5.93286 14.3306 5.93286 13.8466 6.23165 13.548L12.0288 7.75001C13.1072 6.6717 14.8629 6.6717 15.9427 7.75001C16.4663 8.27341 16.7545 8.96876 16.7545 9.70732C16.7545 10.4361 16.4588 11.1493 15.9435 11.6645L7.4549 20.154C6.68268 20.926 5.65588 21.3519 4.56341 21.3519Z" fill="#0054A4"/>
</svg>
