<svg width="23" height="23" viewBox="0 0 23 23" fill="none" xmlns="http://www.w3.org/2000/svg">
<g clip-path="url(#clip0)">
<path d="M20.7835 10.2499C20.4107 10.2499 20.1086 10.5521 20.1086 10.9249V13.2763C20.1086 14.0601 19.4709 14.6978 18.687 14.6978H8.18242C7.39858 14.6978 6.76091 14.0601 6.76091 13.2763V2.92903C6.76091 2.17817 6.28914 1.49504 5.58701 1.22919L2.45713 0.0438823C2.10853 -0.0880981 1.71893 0.0874566 1.5869 0.436005C1.45487 0.784644 1.63047 1.17421 1.97902 1.30623L5.10891 2.4915C5.28963 2.55991 5.41101 2.73574 5.41101 2.92899V17.184C5.41101 18.6201 6.55665 19.7929 7.98193 19.8383C7.85934 20.1161 7.79079 20.4227 7.79079 20.7453C7.79079 21.9885 8.80225 23 10.0455 23C11.2888 23 12.3002 21.9885 12.3002 20.7453C12.3002 20.4235 12.232 20.1176 12.1101 19.8405H16.1387C16.0168 20.1176 15.9486 20.4235 15.9486 20.7453C15.9486 21.9885 16.96 23 18.2033 23C19.4465 23 20.458 21.9885 20.458 20.7453C20.458 19.502 19.4465 18.4906 18.2033 18.4906C18.1947 18.4906 18.1863 18.4911 18.1778 18.4912C18.1735 18.4911 18.1694 18.4906 18.1651 18.4906H8.06756C7.3471 18.4906 6.76087 17.9044 6.76087 17.1839V15.6541C7.1768 15.9037 7.66303 16.0476 8.18238 16.0476H18.687C20.2152 16.0476 21.4585 14.8043 21.4585 13.2762V10.9247C21.4585 10.5521 21.1563 10.2499 20.7835 10.2499ZM18.2032 19.8405C18.7021 19.8405 19.1081 20.2464 19.1081 20.7453C19.1081 21.2442 18.7021 21.6501 18.2032 21.6501C17.7043 21.6501 17.2984 21.2442 17.2984 20.7453C17.2984 20.2464 17.7043 19.8405 18.2032 19.8405ZM10.0456 19.8405C10.5445 19.8405 10.9504 20.2464 10.9504 20.7453C10.9504 21.2442 10.5445 21.6501 10.0456 21.6501C9.54665 21.6501 9.14074 21.2442 9.14074 20.7453C9.14074 20.2464 9.54665 19.8405 10.0456 19.8405Z" fill="white"/>
<path d="M16.0965 8.50896C15.8037 8.27838 15.3793 8.32882 15.1487 8.62162L14.4976 9.44823V3.18176C14.4976 2.809 14.1955 2.50681 13.8227 2.50681C13.4499 2.50681 13.1477 2.809 13.1477 3.18176V9.40735L12.5504 8.6285C12.3236 8.33273 11.8999 8.27685 11.6041 8.50366C11.3083 8.73052 11.2524 9.15422 11.4793 9.44999L13.2794 11.7972C13.4034 11.9589 13.5863 12.0478 13.7749 12.0591C13.7753 12.0592 13.7757 12.0592 13.776 12.0592C13.7891 12.0599 13.8022 12.0614 13.8154 12.0614C13.8169 12.0614 13.8184 12.0612 13.8199 12.0612C13.8208 12.0612 13.8217 12.0613 13.8226 12.0613C13.8236 12.0613 13.8246 12.0612 13.8256 12.0612C13.8271 12.0612 13.8284 12.0614 13.8299 12.0614C13.8419 12.0614 13.8539 12.06 13.8659 12.0594C13.8672 12.0593 13.8685 12.0593 13.8699 12.0592C14.0558 12.0482 14.2363 11.9618 14.3606 11.804L16.209 9.45681C16.4398 9.16397 16.3894 8.73959 16.0965 8.50896Z" fill="white"/>
</g>
<defs>
<clipPath id="clip0">
<rect width="23" height="23" fill="white"/>
</clipPath>
</defs>
</svg>
