<svg width="24" height="28" viewBox="0 0 24 28" fill="none" xmlns="http://www.w3.org/2000/svg">
<path fill-rule="evenodd" clip-rule="evenodd" d="M21.2077 10.1784C20.7513 10.1768 20.3017 10.288 19.8987 10.5019C19.7967 9.84324 19.4629 9.24265 18.9573 8.8083C18.4518 8.37395 17.8078 8.13439 17.1413 8.13275C16.5753 8.13319 16.023 8.30688 15.5586 8.63047C15.3196 8.17812 14.9613 7.79983 14.5226 7.53661C14.0839 7.2734 13.5816 7.13531 13.07 7.13731C12.6271 7.13548 12.1902 7.23958 11.7958 7.44092V2.81711C11.7984 2.44727 11.7277 2.08058 11.5877 1.73825C11.4477 1.39593 11.2412 1.08477 10.9801 0.822785C10.719 0.560798 10.4086 0.353178 10.0668 0.211952C9.72495 0.0707265 9.35851 -0.00130761 8.98866 1.79676e-05C8.62199 0.000670999 8.25903 0.0735413 7.92051 0.214466C7.582 0.355391 7.27455 0.561615 7.01574 0.821357C6.75692 1.0811 6.5518 1.38928 6.41208 1.7283C6.27236 2.06731 6.20079 2.43053 6.20144 2.7972V11.2584C4.63363 9.87476 3.28481 9.17298 2.18983 9.17298C1.88908 9.16986 1.59087 9.22829 1.31354 9.3447C1.03621 9.46111 0.785635 9.63303 0.577218 9.84988C-0.945801 11.343 0.651876 13.742 2.86175 17.032C3.85718 18.5251 5.02185 20.2472 6.07203 22.1634C8.69999 26.9515 12.4229 27.9569 15.0907 27.9569C17.4466 27.9529 19.7048 27.015 21.3702 25.3486C23.0356 23.6823 23.9723 21.4235 23.975 19.0676V12.9656C23.975 12.2298 23.6841 11.5239 23.1657 11.0017C22.6473 10.4796 21.9434 10.1836 21.2077 10.1784ZM22.7307 19.0477C22.6924 21.058 21.8768 22.9753 20.455 24.3971C19.0333 25.8189 17.1159 26.6345 15.1056 26.6728C11.2881 26.6728 9.02351 24.5873 7.23172 21.5712C3.24997 14.8868 0.407995 11.8258 1.51293 10.7109C2.61787 9.59604 5.39514 12.0398 7.48555 14.2746V2.7972C7.48289 2.39498 7.63945 2.00803 7.92106 1.72082C8.20267 1.43362 8.58647 1.26948 8.98866 1.26423C9.18974 1.26423 9.38884 1.30391 9.57455 1.38101C9.76027 1.45811 9.92893 1.57111 10.0709 1.71352C10.2128 1.85594 10.3253 2.02497 10.4018 2.21093C10.4783 2.39689 10.5173 2.59613 10.5167 2.7972V13.4633H11.5121V9.9096C11.512 9.7062 11.5527 9.50485 11.6317 9.31742C11.7107 9.13 11.8265 8.9603 11.9722 8.81834C12.1178 8.67638 12.2905 8.56504 12.4799 8.49089C12.6693 8.41673 12.8716 8.38127 13.0749 8.38658C13.2765 8.38249 13.4768 8.41926 13.6637 8.49467C13.8507 8.57008 14.0204 8.68256 14.1628 8.82534C14.3051 8.96812 14.417 9.13823 14.4918 9.32543C14.5666 9.51264 14.6027 9.71305 14.598 9.91458V12.448H15.5934V10.9299C15.59 10.7257 15.6278 10.5229 15.7044 10.3336C15.781 10.1443 15.8949 9.97231 16.0393 9.8279C16.1837 9.68349 16.3557 9.56959 16.545 9.49299C16.7343 9.41639 16.9371 9.37866 17.1413 9.38202C17.3417 9.38202 17.5402 9.42158 17.7253 9.49843C17.9104 9.57528 18.0785 9.68791 18.22 9.82986C18.3615 9.97181 18.4736 10.1403 18.5498 10.3257C18.6261 10.511 18.665 10.7096 18.6643 10.91V13.4484H19.6598V12.9507C19.6591 12.7498 19.6982 12.5508 19.7747 12.3652C19.8513 12.1795 19.9638 12.0108 20.1058 11.8687C20.2478 11.7267 20.4166 11.6142 20.6022 11.5376C20.7879 11.4611 20.9869 11.422 21.1878 11.4227C21.3882 11.4227 21.5866 11.4622 21.7717 11.5391C21.9568 11.6159 22.125 11.7286 22.2665 11.8705C22.4079 12.0125 22.52 12.1809 22.5963 12.3663C22.6725 12.5517 22.7114 12.7502 22.7108 12.9507L22.7307 19.0477Z" fill="#0054A4"/>
</svg>
