<svg width="18" height="18" viewBox="0 0 18 18" fill="none" xmlns="http://www.w3.org/2000/svg">
<path d="M14.9232 5.88189C14.6841 5.88189 14.4902 6.0758 14.4902 6.31488V17.1339H0.865991V3.50979H11.4594C11.6985 3.50979 11.8924 3.31588 11.8924 3.07679C11.8924 2.83771 11.6985 2.6438 11.4594 2.6438H0.432996C0.19391 2.6438 0 2.83771 0 3.07679V17.5669C0 17.806 0.19391 17.9999 0.432996 17.9999H14.9232C15.1623 17.9999 15.3562 17.806 15.3562 17.5669V6.31488C15.3562 6.0758 15.1623 5.88189 14.9232 5.88189Z" fill="#1976D3"/>
<path d="M17.8706 0.126868C17.7015 -0.0422171 17.4273 -0.0423614 17.2582 0.126868L5.80073 11.5843L2.95789 8.74146C2.78881 8.57231 2.51458 8.57231 2.34556 8.74146C2.17648 8.91055 2.17648 9.18471 2.34556 9.35372L5.4946 12.5028C5.5791 12.5873 5.68995 12.6296 5.8008 12.6296C5.91165 12.6296 6.02242 12.5873 6.107 12.5028L17.8706 0.739196C18.0397 0.570111 18.0397 0.295953 17.8706 0.126868Z" fill="#1976D3"/>
</svg>
