<svg width="51" height="38" viewBox="0 0 51 38" fill="none" xmlns="http://www.w3.org/2000/svg">
<g clip-path="url(#clip0)">
<path d="M13.9219 7.86249V30.1753L26.6719 19.0189L13.9219 7.86249Z" fill="#B2B9C1"/>
<path d="M15.5186 6.32446L32.0467 20.7864L48.575 6.32446H15.5186Z" fill="#B2B9C1"/>
<path d="M35.674 20.4247L32.0468 23.5985L28.4197 20.4247L15.5186 31.7133H48.5755L35.674 20.4247Z" fill="#B2B9C1"/>
<path d="M37.2812 19.0189L50.0312 30.1749V7.86261L37.2812 19.0189Z" fill="#B2B9C1"/>
</g>
<path d="M13.0622 22.1036L13.0622 19.4922C13.0622 19.2387 13.207 19.0074 13.4351 18.8966C13.6631 18.7858 13.9344 18.815 14.1338 18.9716L21.672 24.8945C21.8316 25.0201 21.9248 25.212 21.9248 25.4151C21.9248 25.6182 21.8316 25.8101 21.672 25.9356L14.1338 31.8585C13.9344 32.0152 13.6631 32.0443 13.4351 31.9335C13.207 31.8228 13.0622 31.5915 13.0622 31.3379L13.0622 28.7199C13.0622 28.3575 12.7709 28.0623 12.4085 28.0576C9.54673 28.0212 3.25364 27.5556 2.01648 21.6453C1.96469 21.3727 2.08833 21.0967 2.32623 20.9539C2.56413 20.8111 2.86585 20.8317 3.0821 21.0055C4.13978 21.8692 5.98625 22.7659 9.08842 22.7659L12.3999 22.7659C12.7657 22.7659 13.0622 22.4694 13.0622 22.1036Z" fill="white"/>
<path d="M10.505 22.1101L10.505 19.6292C10.5051 19.3883 10.6426 19.1686 10.8593 19.0634C11.076 18.9581 11.3337 18.9858 11.5231 19.1346L18.6846 24.7615C18.8363 24.8808 18.9248 25.0631 18.9248 25.2561C18.9248 25.4491 18.8363 25.6313 18.6846 25.7506L11.5231 31.3775C11.3337 31.5264 11.076 31.5541 10.8593 31.4488C10.6426 31.3436 10.5051 31.1239 10.505 30.883L10.505 28.3958C10.5051 28.0515 10.2283 27.7711 9.88402 27.7666C7.16527 27.732 1.18664 27.2897 0.0113 21.6747C-0.0379 21.4157 0.079564 21.1535 0.305575 21.0178C0.531589 20.8821 0.818225 20.9017 1.02368 21.0669C2.0285 21.8874 3.78271 22.7393 6.72986 22.7393L9.87584 22.7393C10.2233 22.7393 10.505 22.4576 10.505 22.1101Z" fill="#1976D3"/>
<defs>
<clipPath id="clip0">
<rect width="36.1086" height="36.1086" fill="white" transform="translate(13.9219 0.9646)"/>
</clipPath>
</defs>
</svg>
