<svg width="51" height="38" viewBox="0 0 51 38" fill="none" xmlns="http://www.w3.org/2000/svg">
<g clip-path="url(#clip0)">
<path d="M13.9219 7.86255V30.1754L26.6719 19.019L13.9219 7.86255Z" fill="#B2B9C1"/>
<path d="M15.5195 6.32446L32.0477 20.7864L48.5759 6.32446H15.5195Z" fill="#B2B9C1"/>
<path d="M35.675 20.4246L32.0478 23.5984L28.4207 20.4246L15.5195 31.7132H48.5765L35.675 20.4246Z" fill="#B2B9C1"/>
<path d="M37.2812 19.0188L50.0312 30.1749V7.86255L37.2812 19.0188Z" fill="#B2B9C1"/>
</g>
<path d="M13.0631 22.1035L13.0631 19.4921C13.0632 19.2385 13.208 19.0073 13.436 18.8965C13.6641 18.7857 13.9354 18.8148 14.1347 18.9715L21.6729 24.8944C21.8326 25.02 21.9258 25.2118 21.9258 25.415C21.9258 25.6181 21.8326 25.8099 21.6729 25.9355L14.1347 31.8584C13.9354 32.0151 13.6641 32.0442 13.436 31.9334C13.208 31.8226 13.0632 31.5914 13.0631 31.3378L13.0631 28.7198C13.0632 28.3573 12.7719 28.0622 12.4095 28.0575C9.54771 28.0211 3.25461 27.5555 2.01745 21.6452C1.96566 21.3726 2.08931 21.0966 2.32721 20.9538C2.56511 20.8109 2.86682 20.8316 3.08308 21.0054C4.14076 21.869 5.98723 22.7658 9.0894 22.7658L12.4009 22.7658C12.7666 22.7658 13.0631 22.4693 13.0631 22.1035Z" fill="white"/>
<path d="M10.5041 22.1102L10.5041 19.6293C10.5041 19.3884 10.6417 19.1687 10.8583 19.0635C11.075 18.9582 11.3327 18.9859 11.5221 19.1348L18.6836 24.7617C18.8353 24.881 18.9238 25.0633 18.9238 25.2562C18.9238 25.4492 18.8353 25.6315 18.6836 25.7508L11.5221 31.3777C11.3327 31.5265 11.075 31.5542 10.8583 31.449C10.6417 31.3437 10.5041 31.124 10.5041 30.8831L10.5041 28.3959C10.5041 28.0516 10.2273 27.7712 9.88305 27.7667C7.16429 27.7321 1.18566 27.2898 0.0103234 21.6748C-0.0388766 21.4158 0.0785875 21.1537 0.304599 21.018C0.530612 20.8823 0.817248 20.9019 1.0227 21.067C2.02753 21.8875 3.78173 22.7394 6.72888 22.7394L9.87487 22.7394C10.2224 22.7394 10.5041 22.4577 10.5041 22.1102Z" fill="#1976D3"/>
<defs>
<clipPath id="clip0">
<rect width="36.1086" height="36.1086" fill="white" transform="translate(13.9219 0.9646)"/>
</clipPath>
</defs>
</svg>
