<svg width="35" height="36" viewBox="0 0 35 36" fill="none" xmlns="http://www.w3.org/2000/svg">
<g clip-path="url(#clip0)">
<path d="M13.9852 20.311C10.7616 17.0874 10.0337 13.8637 9.8695 12.5722C9.82361 12.215 9.94651 11.8569 10.202 11.6032L12.8107 8.99565C13.1945 8.61214 13.2626 8.01445 12.9749 7.55445L8.82135 1.10484C8.50313 0.595472 7.84974 0.411634 7.3126 0.680343L0.644635 3.82071C0.21027 4.0346 -0.0452174 4.4961 0.00409992 4.97775C0.353482 8.29689 1.80051 16.4561 9.81884 24.4751C17.8372 32.494 25.9952 33.9404 29.3161 34.2898C29.7978 34.3391 30.2593 34.0836 30.4732 33.6493L33.6135 26.9813C33.8812 26.4453 33.6986 25.7937 33.1914 25.4749L26.7418 21.3225C26.282 21.0345 25.6844 21.1021 25.3006 21.4855L22.693 24.0942C22.4393 24.3497 22.0812 24.4726 21.724 24.4267C20.4325 24.2625 17.2089 23.5346 13.9852 20.311Z" fill="#B2B9C1"/>
<path d="M24.5294 14.2819V16.6409C24.5294 16.8699 24.3986 17.0788 24.1926 17.1789C23.9866 17.279 23.7415 17.2526 23.5614 17.1111L16.7518 11.7607C16.6076 11.6473 16.5234 11.474 16.5234 11.2905C16.5234 11.107 16.6076 10.9337 16.7518 10.8202L23.5614 5.46985C23.7415 5.3283 23.9866 5.30198 24.1926 5.40206C24.3986 5.50214 24.5294 5.71105 24.5294 5.94009V8.30508C24.5294 8.63248 24.7926 8.8991 25.1199 8.90335C27.7051 8.93626 33.3899 9.35685 34.5075 14.6959C34.5543 14.9421 34.4426 15.1914 34.2277 15.3205C34.0128 15.4495 33.7402 15.4309 33.5449 15.2738C32.5894 14.4936 30.9214 13.6836 28.1191 13.6836H25.1277C24.7973 13.6836 24.5294 13.9514 24.5294 14.2819Z" fill="#1976D3"/>
</g>
<defs>
<clipPath id="clip0">
<rect width="34.7" height="34.7" fill="white" transform="translate(0 0.521484)"/>
</clipPath>
</defs>
</svg>
