<svg width="14" height="14" viewBox="0 0 14 14" fill="none" xmlns="http://www.w3.org/2000/svg">
<path d="M7 0C3.14005 0 0 3.14005 0 7C0 10.86 3.14005 14 7 14C10.86 14 14 10.86 14 7C14 3.14005 10.86 0 7 0ZM7 11.0833C6.67796 11.0833 6.4167 10.822 6.4167 10.5C6.4167 10.178 6.67796 9.9167 7 9.9167C7.32204 9.9167 7.5833 10.178 7.5833 10.5C7.5833 10.822 7.32204 11.0833 7 11.0833ZM7.92339 7.37448C7.71692 7.46954 7.5833 7.67783 7.5833 7.9048V8.1667C7.5833 8.48863 7.32257 8.75 7 8.75C6.67743 8.75 6.4167 8.48863 6.4167 8.1667V7.9048C6.4167 7.22398 6.81682 6.59988 7.43462 6.31459C8.02902 6.04105 8.4583 5.31473 8.4583 4.9583C8.4583 4.15454 7.8044 3.5 7 3.5C6.1956 3.5 5.5417 4.15454 5.5417 4.9583C5.5417 5.28033 5.28087 5.5417 4.9583 5.5417C4.63573 5.5417 4.375 5.28033 4.375 4.9583C4.375 3.51111 5.5527 2.3333 7 2.3333C8.4473 2.3333 9.625 3.51111 9.625 4.9583C9.625 5.74646 8.9413 6.90494 7.92339 7.37448Z" fill="#C4C4C4"/>
</svg>
