<svg width="41" height="33" viewBox="0 0 41 33" fill="none" xmlns="http://www.w3.org/2000/svg">
<path d="M16.6589 30.1139L1.62891 22.9573V6.49365L16.6589 12.9392V30.1139Z" stroke="#0054A4" stroke-width="1.4" stroke-linecap="round" stroke-linejoin="round"/>
<path d="M31.6862 6.50513V16.4601H31.5945C29.5332 16.4617 27.5568 17.2816 26.0998 18.7397C24.6428 20.1978 23.8243 22.1747 23.8243 24.236C23.8241 25.0135 23.9401 25.7866 24.1684 26.5298L16.6562 30.1024V12.9334L31.6862 6.50513Z" stroke="#0054A4" stroke-width="1.4" stroke-linecap="round" stroke-linejoin="round"/>
<path d="M16.6589 12.9392L1.62891 6.49367L16.6589 1.63086L31.6832 6.49367L16.6589 12.9392Z" stroke="#0054A4" stroke-width="1.4" stroke-linecap="round" stroke-linejoin="round"/>
<path d="M9.14453 9.71633L23.5552 3.86145" stroke="#0054A4" stroke-width="1.4" stroke-linecap="round" stroke-linejoin="round"/>
<path d="M9.0625 22.7164V14.8029" stroke="#0054A4" stroke-width="1.4" stroke-linecap="round" stroke-linejoin="round"/>
<path d="M11.8905 18.9775L9.06337 14.8029L6.14453 16.397" stroke="#0054A4" stroke-width="1.4" stroke-linecap="round" stroke-linejoin="round"/>
<path d="M39.3703 24.236C39.3688 26.2973 38.5489 28.2737 37.0908 29.7307C35.6327 31.1877 33.6557 32.0062 31.5944 32.0062C29.935 32.0052 28.3194 31.4739 26.9835 30.4897C25.6475 29.5055 24.6611 28.12 24.1683 26.5355C23.94 25.7923 23.824 25.0192 23.8242 24.2417C23.8242 22.1804 24.6427 20.2035 26.0997 18.7454C27.5567 17.2873 29.5331 16.4673 31.5944 16.4658H31.6862C33.7315 16.49 35.685 17.3191 37.1233 18.7735C38.5616 20.2279 39.3689 22.1905 39.3703 24.236V24.236Z" stroke="#0054A4" stroke-width="1.4" stroke-linecap="round" stroke-linejoin="round"/>
<path d="M35.6833 21.8103L30.2413 26.6616L27.5117 23.932" stroke="#0054A4" stroke-width="1.4" stroke-linecap="round" stroke-linejoin="round"/>
</svg>
