<svg width="41" height="27" viewBox="0 0 41 27" fill="none" xmlns="http://www.w3.org/2000/svg">
<path d="M28.9691 1.64307V21.5657H18.1677C18.1661 20.6618 17.8062 19.7953 17.167 19.1561C16.5278 18.5169 15.6614 18.1571 14.7574 18.1554C13.8535 18.1571 12.987 18.5169 12.3478 19.1561C11.7086 19.7953 11.3488 20.6618 11.3471 21.5657H8.15625V1.64307H28.9691Z" stroke="#0054A4" stroke-width="1.4" stroke-linecap="round" stroke-linejoin="round"/>
<path d="M39.3564 11.0151V21.5657H37.576C37.5749 21.3558 37.5581 21.1463 37.5258 20.9388C37.3748 20.1575 36.9572 19.4529 36.3444 18.9452C35.7315 18.4376 34.9615 18.1584 34.1657 18.1554C33.3691 18.1581 32.5982 18.4371 31.9843 18.9446C31.3704 19.4522 30.9516 20.157 30.7993 20.9388C30.7691 21.1464 30.7544 21.356 30.7554 21.5657H28.9688V7.07825H35.4069C36.4512 7.08153 37.452 7.49697 38.1915 8.23421C38.9311 8.97145 39.3498 9.97088 39.3564 11.0151V11.0151Z" stroke="#0054A4" stroke-width="1.4" stroke-linecap="round" stroke-linejoin="round"/>
<path d="M14.7501 24.9698C16.6336 24.9698 18.1604 23.4429 18.1604 21.5595C18.1604 19.676 16.6336 18.1492 14.7501 18.1492C12.8667 18.1492 11.3398 19.676 11.3398 21.5595C11.3398 23.4429 12.8667 24.9698 14.7501 24.9698Z" stroke="#0054A4" stroke-width="1.4" stroke-linecap="round" stroke-linejoin="round"/>
<path d="M37.5784 21.5657C37.5768 22.4691 37.2168 23.3349 36.5774 23.9731C35.938 24.6113 35.0715 24.9697 34.1682 24.9697C33.2648 24.9697 32.3983 24.6113 31.7589 23.9731C31.1195 23.3349 30.7595 22.4691 30.7579 21.5657C30.7569 21.3559 30.7715 21.1464 30.8017 20.9388C30.9541 20.157 31.3729 19.4522 31.9868 18.9446C32.6007 18.437 33.3716 18.1581 34.1682 18.1554C34.9639 18.1584 35.734 18.4375 36.3468 18.9452C36.9597 19.4528 37.3773 20.1575 37.5283 20.9388C37.5606 21.1462 37.5773 21.3558 37.5784 21.5657Z" stroke="#0054A4" stroke-width="1.4" stroke-linecap="round" stroke-linejoin="round"/>
<path d="M24.9747 7.04688H4.375" stroke="#0054A4" stroke-width="1.4" stroke-linecap="round" stroke-linejoin="round"/>
<path d="M1.64062 1.64307H13.9215" stroke="#0054A4" stroke-width="1.4" stroke-linecap="round" stroke-linejoin="round"/>
</svg>
