<svg width="330" height="497" fill="none" xmlns="http://www.w3.org/2000/svg"><mask id="a" fill="#fff"><path fill-rule="evenodd" clip-rule="evenodd" d="M306.295 9L299.5 0l-6.795 9H3a3 3 0 00-3 3v482a3 3 0 003 3h324a3 3 0 003-3V12a3 3 0 00-3-3h-20.705z"/></mask><path fill-rule="evenodd" clip-rule="evenodd" d="M306.295 9L299.5 0l-6.795 9H3a3 3 0 00-3 3v482a3 3 0 003 3h324a3 3 0 003-3V12a3 3 0 00-3-3h-20.705z" fill="#fff"/><path d="M299.5 0l.798-.603-.798-1.057-.798 1.057.798.603zm6.795 9l-.798.603.3.397h.498V9zm-13.59 0v1h.498l.3-.397-.798-.603zm5.997-8.397l6.795 9 1.596-1.206-6.795-9-1.596 1.206zm-5.199 9l6.795-9-1.596-1.206-6.795 9 1.596 1.206zM3 10h289.705V8H3v2zm-2 2a2 2 0 012-2V8a4 4 0 00-4 4h2zm0 482V12h-2v482h2zm2 2a2 2 0 01-2-2h-2a4 4 0 004 4v-2zm324 0H3v2h324v-2zm2-2a2 2 0 01-2 2v2a4 4 0 004-4h-2zm0-482v482h2V12h-2zm-2-2a2 2 0 012 2h2a4 4 0 00-4-4v2zm-20.705 0H327V8h-20.705v2z" fill="#ADAEAD" mask="url(#a)"/></svg>