<svg width="33" height="33" viewBox="0 0 33 33" fill="none" xmlns="http://www.w3.org/2000/svg">
<g clip-path="url(#clip0)">
<path d="M30.2479 0H2.75215C1.21172 0 0 1.21172 0 2.75215V30.2543C0 31.7947 1.21172 33.0064 2.75215 33.0064H15.4043H22.0043H30.2543C31.7947 33.0064 33.0064 31.7947 33.0064 30.2543V2.75215C33 1.21172 31.7883 0 30.2479 0ZM2.75215 31.8979C1.81758 31.8979 1.10215 31.1824 1.10215 30.2479V2.75215C1.10215 1.81758 1.81758 1.10215 2.75215 1.10215H30.2543C31.1889 1.10215 31.9043 1.81758 31.9043 2.75215V30.2543C31.9043 31.1889 31.1889 31.9043 30.2543 31.9043H2.75215V31.8979Z" fill="#78808C"/>
<path d="M17.9373 13.0712V10.3319C17.9373 9.57783 18.5496 8.95908 19.3102 8.95908H20.683V5.53662H17.9438C15.675 5.53662 13.8316 7.37998 13.8316 9.64873V13.0712H11.0859V16.4937H13.8252V27.4636H17.9373V16.5001H20.6766L22.0494 13.0776H17.9373V13.0712Z" fill="#78808C"/>
</g>
<defs>
<clipPath id="clip0">
<rect width="33" height="33" fill="white"/>
</clipPath>
</defs>
</svg>
