<svg width="34" height="33" viewBox="0 0 34 33" fill="none" xmlns="http://www.w3.org/2000/svg">
<g clip-path="url(#clip0)">
<path d="M31.1645 0H2.83555C1.24844 0 0 1.21172 0 2.75215V30.2543C0 31.7947 1.24844 33.0064 2.83555 33.0064H15.8711H22.6711H31.1711C32.7582 33.0064 34.0066 31.7947 34.0066 30.2543V2.75215C34 1.21172 32.7516 0 31.1645 0ZM2.83555 31.8979C1.87266 31.8979 1.13555 31.1824 1.13555 30.2479V2.75215C1.13555 1.81758 1.87266 1.10215 2.83555 1.10215H31.1711C32.134 1.10215 32.8711 1.81758 32.8711 2.75215V30.2543C32.8711 31.1889 32.134 31.9043 31.1711 31.9043H2.83555V31.8979Z" fill="#78808C"/>
<path d="M9.69497 17.3572C9.07739 18.5302 9.7813 19.091 11.375 20.0513C12.7297 20.8634 14.6024 21.1599 15.8043 21.2824C15.3129 21.74 17.5707 19.6324 11.0629 25.7103C9.68169 26.9929 11.9063 29.0554 13.2809 27.7986L17.0129 24.3052C18.4407 25.6394 19.8086 26.9156 20.745 27.805C22.1262 29.0683 24.3442 27.0252 22.9829 25.7168C22.8832 25.6201 17.9227 21.0117 18.2282 21.2888C19.4434 21.1728 21.2895 20.857 22.6309 20.0578C24.2247 19.091 24.9219 18.5367 24.3176 17.3572C23.9524 16.6933 22.9629 16.1326 21.6481 17.0994C21.6481 17.0994 19.875 18.4207 17.0063 18.4207C14.1375 18.4207 12.3645 17.0994 12.3645 17.0994C11.0497 16.1261 10.0536 16.6933 9.69497 17.3572Z" fill="#78808C"/>
<path d="M17 16.6354C20.493 16.6354 23.3418 13.9863 23.3418 10.725C23.3418 7.45078 20.493 4.80176 17 4.80176C13.507 4.80176 10.6582 7.45078 10.6582 10.725C10.6582 13.9863 13.507 16.6354 17 16.6354ZM17 7.80527C18.7133 7.80527 20.1145 9.11367 20.1145 10.725C20.1145 12.3299 18.7133 13.6318 17 13.6318C15.2867 13.6318 13.8855 12.3234 13.8855 10.725C13.8855 9.11367 15.2801 7.80527 17 7.80527Z" fill="#78808C"/>
</g>
<defs>
<clipPath id="clip0">
<rect width="34" height="33" fill="white"/>
</clipPath>
</defs>
</svg>
