<svg width="33" height="33" viewBox="0 0 33 33" fill="none" xmlns="http://www.w3.org/2000/svg">
<g clip-path="url(#clip0)">
<path d="M30.2479 0.0773926H2.75215C1.21172 0.0773926 0 1.28911 0 2.82954V30.3317C0 31.8721 1.21172 33.0838 2.75215 33.0838H15.4043H22.0043H30.2543C31.7947 33.0838 33.0064 31.8721 33.0064 30.3317V2.82954C33 1.28911 31.7883 0.0773926 30.2479 0.0773926ZM2.75215 31.9817C1.81758 31.9817 1.10215 31.2663 1.10215 30.3317V2.82954C1.10215 1.89497 1.81758 1.17954 2.75215 1.17954H30.2543C31.1889 1.17954 31.9043 1.89497 31.9043 2.82954V30.3317C31.9043 31.2663 31.1889 31.9817 30.2543 31.9817H2.75215Z" fill="#78808C"/>
<path d="M9.4814 18.9814C10.3515 20.1674 11.357 21.2115 12.6525 21.9527C14.122 22.7906 15.7011 23.042 17.364 22.9647C18.1439 22.926 18.3759 22.7262 18.4146 21.9463C18.4404 21.4178 18.4984 20.8828 18.7627 20.4059C19.0205 19.9354 19.4072 19.8516 19.8584 20.1416C20.0839 20.2898 20.2709 20.4703 20.4513 20.6701C20.8896 21.1471 21.315 21.6434 21.7662 22.1074C22.3398 22.6875 23.0166 23.0291 23.8673 22.9647H27.1609C27.6894 22.926 27.9666 22.2814 27.6636 21.6885C27.4509 21.276 27.1673 20.9086 26.8709 20.5477C26.2005 19.742 25.4078 19.0523 24.6537 18.3176C23.9769 17.6602 23.9318 17.2734 24.4796 16.5129C25.0726 15.6814 25.7107 14.8822 26.3101 14.0572C26.8709 13.2838 27.4445 12.5104 27.7345 11.5887C27.9214 10.9957 27.7539 10.7379 27.1544 10.6348C27.0513 10.6154 26.9417 10.6154 26.8386 10.6154L23.255 10.609C22.8167 10.6025 22.5718 10.7959 22.4171 11.1891C22.2044 11.7176 21.9918 12.2461 21.7339 12.7553C21.1668 13.9154 20.5287 15.0305 19.6392 15.9779C19.4394 16.1842 19.2203 16.4484 18.898 16.3453C18.4855 16.1971 18.3695 15.5203 18.3759 15.2883V11.1504C18.2986 10.5574 18.1632 10.2932 17.5767 10.1836H13.8513C13.355 10.1836 13.1037 10.377 12.8394 10.6863C12.6912 10.8668 12.6396 10.9828 12.9554 11.0408C13.5742 11.1568 13.9222 11.5564 14.0125 12.1752C14.1607 13.1678 14.1478 14.1604 14.064 15.1529C14.0382 15.443 13.9867 15.733 13.8771 16.0037C13.6966 16.4291 13.4066 16.5193 13.0263 16.2551C12.6847 16.0166 12.4398 15.6814 12.2013 15.3463C11.3054 14.083 10.5964 12.723 10.0164 11.2922C9.84878 10.8797 9.55875 10.6283 9.12046 10.6219C8.0441 10.6025 6.96773 10.6025 5.89136 10.6219C5.24683 10.6348 5.05347 10.9506 5.31773 11.5371C6.47789 14.1475 7.77984 16.674 9.4814 18.9814Z" fill="#78808C"/>
</g>
<defs>
<clipPath id="clip0">
<rect width="33" height="33" fill="white"/>
</clipPath>
</defs>
</svg>
