<svg width="107" height="47" viewBox="0 0 107 47" fill="none" xmlns="http://www.w3.org/2000/svg">
<path d="M46.5935 26.3456H46.3884C45.2608 26.294 44.5944 26.2682 43.9537 26.2682H43.4924H42.9798H42.4672H42.0059C41.3652 26.2682 40.6988 26.2682 39.5712 26.3456H39.3661V26.1391V25.6231V25.4424L39.5455 25.4166L40.1094 25.365C40.4682 25.3392 41.0064 25.2618 41.2883 24.8232C41.519 24.4877 41.5702 23.8684 41.5702 22.8621V18.7851H33.5997V22.8621C33.5997 23.8684 33.6509 24.4877 33.8816 24.8232C34.1891 25.2618 34.7017 25.3392 35.0605 25.365L35.6243 25.4166L35.8037 25.4424V25.6231V26.1391V26.3456H35.5987C34.471 26.294 33.8047 26.2682 33.164 26.2682H32.7026H32.1901H31.6775H31.2162C30.5755 26.2682 29.9091 26.2682 28.7814 26.3456H28.5764V26.1391V25.6231V25.4424L28.7558 25.4166L29.3196 25.365C29.6784 25.3392 30.2167 25.2618 30.4986 24.8232C30.7292 24.4877 30.7805 23.8684 30.7805 22.8621V13.9855C30.7805 12.9792 30.7292 12.3599 30.4986 12.0245C30.191 11.5858 29.6784 11.5084 29.3196 11.4826L28.7302 11.431H28.5508V11.2503V10.7343V10.5278H28.7558C29.8835 10.5794 30.5498 10.6052 31.2162 10.6052H31.6519H32.1388H32.6258H33.0615C33.7022 10.6052 34.3685 10.6052 35.5218 10.5278H35.7268V10.7343V11.2503V11.431H35.5474L35.1374 11.5084C34.5736 11.5342 34.1635 11.7148 33.9585 12.0503C33.7278 12.3857 33.6765 13.005 33.6765 14.0113V17.6497H41.6471V14.0113C41.6471 13.005 41.5958 12.3857 41.3652 12.0503C41.1345 11.7148 40.7501 11.5342 40.1863 11.5084L39.6224 11.4568H39.443V11.2761V10.7601V10.5536H39.648C40.7757 10.6052 41.4421 10.631 42.1084 10.631H42.5441H43.031H43.518H43.9537C44.5944 10.631 45.2608 10.631 46.4141 10.5536H46.6191V10.7601V11.2761V11.4568H46.4397L45.8759 11.5084C45.2864 11.5342 44.902 11.7148 44.6969 12.0503C44.4406 12.3857 44.415 13.005 44.415 14.0113V22.8879C44.415 23.8942 44.4663 24.5135 44.6969 24.849C45.0045 25.2876 45.5171 25.365 45.8759 25.3908L46.4397 25.4424L46.6191 25.4683V25.6489V26.165L46.5935 26.3456Z" fill="#B2B9C1"/>
<path d="M53.026 26.552C49.7968 26.552 47.2852 24.1523 47.2852 21.0817C47.2852 18.0111 49.8224 15.6113 53.026 15.6113C56.2552 15.6113 58.7668 18.0111 58.7668 21.0817C58.7668 24.1523 56.2552 26.552 53.026 26.552ZM53.026 16.5403C52.1033 16.5403 49.9762 16.9789 49.9762 21.1075C49.9762 25.2102 52.1033 25.6747 53.026 25.6747C53.9486 25.6747 56.0758 25.236 56.0758 21.1075C56.0758 16.9789 53.9486 16.5403 53.026 16.5403Z" fill="#B2B9C1"/>
<path d="M59.7402 26.3202V26.1138V25.5719V25.3912L59.9196 25.3654L60.3553 25.3138C61.3036 25.2106 61.3548 24.6945 61.3548 23.7914V18.3209C61.3548 17.4436 61.278 16.9017 60.3553 16.8243L59.9196 16.7727L59.7402 16.7469V16.5663V16.0502V15.8438H59.9196C61.3292 15.8696 61.7649 15.8696 62.0468 15.8954C62.2006 15.8954 62.3031 15.8954 62.5081 15.8954C62.9438 15.8954 63.3795 15.8696 63.7896 15.8696C64.2253 15.8437 64.661 15.8438 65.0967 15.8438C69.0179 15.8438 69.4279 17.7016 69.4279 18.5016C69.4279 19.4305 68.7616 20.2562 67.7877 20.6691C69.2485 20.9788 70.2224 21.9593 70.2224 23.2495C70.2224 23.9462 69.8892 26.2686 65.7374 26.2686C65.1992 26.2686 64.661 26.2428 64.1227 26.2428C63.6102 26.217 63.0464 26.217 62.5338 26.217C61.8931 26.217 60.8166 26.2428 59.9453 26.2944L59.7402 26.3202ZM63.6614 21.2884V23.7914C63.6614 25.1848 64.0971 25.417 65.071 25.417H65.1223C66.0962 25.417 66.7881 25.1332 67.1726 24.5913C67.4032 24.2559 67.5314 23.8172 67.5314 23.3269C67.5314 22.7592 67.3264 22.398 67.147 22.1141C66.7113 21.5206 66.1218 21.3142 64.9429 21.3142L63.6614 21.2884ZM63.6614 20.3595H64.9429C66.4037 20.3595 66.9163 19.4047 66.9163 18.579C66.9163 16.9791 65.6348 16.7727 64.379 16.7727C63.6871 16.7727 63.6614 16.7727 63.6614 17.4178V20.3595Z" fill="#B2B9C1"/>
<path d="M80.7554 26.552C79.8327 26.552 79.0126 25.9585 78.6794 25.0038C77.7568 25.7521 76.5522 26.552 75.0402 26.552C73.2974 26.552 72.4004 25.4166 72.4004 24.307C72.4004 22.0879 74.707 21.1589 76.9367 20.23C77.1673 20.1268 77.398 20.0494 77.6286 19.9462C78.5257 19.5849 78.5257 19.5333 78.5257 19.2236V19.172V18.8624C78.5257 17.1593 78.2437 16.5658 76.6291 16.5658C75.3221 16.5658 74.8095 16.8755 74.7326 17.6754V17.727C74.707 18.0366 74.6301 18.9398 73.5537 18.9398C73.0667 18.9398 72.5285 18.6043 72.5285 17.9076C72.5285 16.54 74.2456 15.6885 76.9367 15.6885C80.8322 15.6885 80.8322 17.727 80.8322 19.8687V23.2749C80.8322 24.307 80.8835 25.2102 81.473 25.2102C81.7805 25.2102 82.0112 24.9005 82.1137 24.7199L82.2162 24.5393L82.3187 24.3845L82.4725 24.4619L82.9082 24.7199L83.062 24.7973L82.9851 24.9521C82.4469 25.9585 81.6267 26.552 80.7554 26.552ZM78.4744 20.5396L78.3206 20.6171C76.7573 21.3138 74.7839 22.1653 74.7839 23.8942C74.7839 24.5651 75.1939 25.2102 76.1166 25.2102C77.0648 25.2102 78.09 24.3329 78.4488 23.9974L78.4744 20.5396Z" fill="#B2B9C1"/>
<path d="M83.3699 32.5642V32.3578V31.8417V31.6611L83.5236 31.6353L83.9337 31.5837C84.8819 31.4805 84.9588 30.9386 84.9588 30.0613V19.0431C84.9588 18.6819 84.9588 18.1916 84.8051 17.7787C84.6257 17.3401 84.2925 17.1078 83.7799 17.1078H83.4724H83.293V16.9272V16.4627V16.3079L83.4467 16.2821C85.0101 16.0757 86.1378 15.6628 86.7016 15.4822L86.9066 15.4048L86.9579 15.6112C87.0091 15.8693 87.086 16.3595 87.1116 17.1078C87.7267 16.3337 88.7262 15.5854 90.2896 15.5854C93.3907 15.5854 95.6204 17.9077 95.6204 21.0816C95.6204 24.6425 92.9294 26.5004 90.2896 26.5004C89.7514 26.5004 88.4443 26.3972 87.3167 25.4166V30.0871C87.3167 31.4805 87.7267 31.5321 88.2649 31.6095L88.9056 31.6869L89.085 31.7127V31.8933V32.4094V32.6158H88.88L88.3931 32.59C87.7011 32.5642 86.8553 32.5384 86.1634 32.5384C85.3176 32.5384 84.3437 32.5642 83.6005 32.6158L83.3699 32.5642ZM90.0589 16.7466C88.4443 16.7466 87.291 17.9852 87.291 19.6882V22.5266C87.291 24.2554 88.2649 25.4166 89.7001 25.4166C91.2379 25.4166 92.9037 24.2813 92.9037 21.0816C92.9037 17.1594 90.9303 16.7466 90.0589 16.7466Z" fill="#B2B9C1"/>
<path d="M107 29.4426H106.82H106.231H106.077L106.051 29.2878L105.949 28.7459C105.693 27.5073 104.821 26.2687 103.437 26.2687H99.3112C97.7991 26.2687 97.0046 27.6105 96.7483 28.7459L96.6201 29.2878L96.5945 29.4426H96.4407H95.8513H95.6719V29.262V25.4688V25.2882H95.8513H96.6201C97.0302 25.2882 97.5428 24.6431 97.8759 24.127C98.9523 22.3465 99.2599 20.9273 99.4393 19.1984C99.5162 18.3985 99.5418 17.547 99.1574 17.1083C98.978 16.9019 98.6704 16.7986 98.286 16.7986H97.9272H97.7478V16.618V16.1019V15.8955H97.9528C98.7729 15.9471 99.7725 15.9729 100.644 15.9729H104.309C104.898 15.9729 105.667 15.9471 106.282 15.9213L106.692 15.8955H106.897V16.1019V16.618V16.7986L106.718 16.8245L106.308 16.8761C105.334 17.0051 105.283 17.5212 105.283 18.3985V24.4883C105.283 25.2624 105.385 25.314 105.77 25.314H106.82H107V25.4946V29.2878V29.4426ZM101.592 16.9535C100.926 16.9535 100.849 16.9535 100.695 18.2437L100.567 19.3533C100.183 22.4497 99.5162 23.6109 98.7729 24.8237C98.6192 25.0817 98.5935 25.185 98.5935 25.2366C98.5935 25.314 98.7729 25.314 98.9267 25.314H99.0292H99.1061H102.566C102.822 25.314 102.925 25.314 102.925 24.7463V17.4438C102.925 17.0567 102.925 16.9535 102.566 16.9535H101.592Z" fill="#B2B9C1"/>
<path d="M9.61076 0V7.5089C10.354 8.02498 15.8642 12.6439 15.8642 16.7208C15.8642 16.7208 16.0179 18.4497 9.61076 34.2416V36.7704C9.61076 36.7704 18.2476 18.7335 18.2476 11.7923C18.2733 5.65103 9.61076 0 9.61076 0ZM0 11.7923C0 13.4696 0.512572 15.7919 1.2558 18.3465C1.51209 12.3342 7.73987 8.12819 8.63687 7.53471V0.0258044C8.6625 5.90217e-07 0 5.65103 0 11.7923ZM1.51209 19.069C3.97245 26.9908 8.6625 36.7704 8.6625 36.7704V8.64427C7.79113 9.23775 1.97341 13.0309 1.51209 19.069Z" fill="#B2B9C1"/>
<path d="M32.4982 36.7446V37.5187H29.6277V43.9437H28.7051V36.7188H32.4982V36.7446Z" fill="#B2B9C1"/>
<path d="M32.5493 40.4601C32.5493 39.7891 32.5237 39.273 32.498 38.757H33.3438L33.3951 39.6343H33.4207C33.8051 39.015 34.4202 38.6279 35.2403 38.6279C36.4961 38.6279 37.4188 39.6859 37.4188 41.26C37.4188 43.1179 36.2911 44.0469 35.0865 44.0469C34.3946 44.0469 33.8051 43.7372 33.4976 43.2211H33.4719V46.0854H32.5493V40.4601ZM33.4719 41.8535C33.4719 41.9825 33.4976 42.1115 33.5232 42.2406C33.7026 42.8857 34.2664 43.3502 34.9328 43.3502C35.9323 43.3502 36.4961 42.5244 36.4961 41.3374C36.4961 40.3052 35.9579 39.4021 34.9584 39.4021C34.3177 39.4021 33.7282 39.8665 33.5488 40.5633C33.5232 40.6923 33.4719 40.8213 33.4719 40.9503V41.8535Z" fill="#B2B9C1"/>
<path d="M38.8274 38.7836L39.9551 41.8541C40.0832 42.1895 40.2114 42.6024 40.2883 42.912H40.3139C40.4164 42.6024 40.5189 42.2153 40.6471 41.8283L41.6722 38.7836H42.6718L41.2622 42.4734C40.5958 44.2537 40.1345 45.1568 39.4938 45.7245C39.0324 46.1373 38.5711 46.2921 38.3405 46.3438L38.1098 45.5439C38.3405 45.4665 38.648 45.3117 38.9299 45.0794C39.1862 44.873 39.4938 44.5118 39.7244 44.0215C39.7757 43.9183 39.8013 43.8409 39.8013 43.7893C39.8013 43.7377 39.7757 43.6603 39.7501 43.5313L37.8535 38.7578H38.8274V38.7836Z" fill="#B2B9C1"/>
<path d="M47.7465 38.7832V43.9703H46.7983V39.5316H44.4148V43.9703H43.4922V38.7832H47.7465Z" fill="#B2B9C1"/>
<path d="M53.4887 38.7832V43.9703H52.5661V39.5316H50.1826V43.9703H49.2344V38.7832H53.4887Z" fill="#B2B9C1"/>
<path d="M58.6133 42.7048C58.6133 43.1435 58.6389 43.5821 58.6902 43.9434H57.8444L57.7675 43.2983H57.7419C57.46 43.7111 56.8962 44.0724 56.1786 44.0724C55.1278 44.0724 54.6152 43.3241 54.6152 42.5758C54.6152 41.3115 55.7173 40.6406 57.7163 40.6406V40.5374C57.7163 40.0988 57.5882 39.3505 56.5374 39.3505C56.0504 39.3505 55.5635 39.5053 55.2047 39.7375L54.9997 39.1183C55.4353 38.8344 56.0504 38.6538 56.6911 38.6538C58.2545 38.6538 58.6389 39.7375 58.6389 40.7696V42.7048H58.6133ZM57.7163 41.3115C56.6911 41.2857 55.5379 41.4663 55.5379 42.4726C55.5379 43.0919 55.9479 43.3757 56.4092 43.3757C57.0756 43.3757 57.5113 42.9371 57.665 42.4984C57.6907 42.3952 57.7163 42.292 57.7163 42.1888V41.3115Z" fill="#B2B9C1"/>
<path d="M63.3033 38.7832V41.0284H63.5339L65.4817 38.7832H66.6094L64.354 41.1316C65.1742 41.209 65.6867 41.7768 66.0968 42.7058C66.2249 43.0413 66.4044 43.5574 66.6606 43.9703H65.6867C65.5586 43.7381 65.3792 43.3252 65.1998 42.9123C64.841 42.0865 64.3797 41.6994 63.5083 41.6994H63.3289V43.9703H62.4062V38.7832H63.3033Z" fill="#B2B9C1"/>
<path d="M72.0681 41.3375C72.0681 43.2471 70.7611 44.0986 69.5053 44.0986C68.1213 44.0986 67.0449 43.0664 67.0449 41.4408C67.0449 39.7118 68.1726 38.6797 69.6078 38.6797C71.0686 38.6538 72.0681 39.7376 72.0681 41.3375ZM67.9932 41.3891C67.9932 42.5245 68.6339 43.3761 69.5565 43.3761C70.4535 43.3761 71.1199 42.5245 71.1199 41.3633C71.1199 40.486 70.6842 39.3764 69.5822 39.3764C68.4801 39.3764 67.9932 40.3828 67.9932 41.3891Z" fill="#B2B9C1"/>
<path d="M73.299 38.7836H74.4523L75.4005 41.3895C75.5287 41.7766 75.7593 42.3958 75.8618 42.8086H75.8875C76.0156 42.4216 76.2975 41.5959 76.5026 41.0283L77.3227 38.7578H78.476L78.8348 43.9438H77.9378L77.8096 41.4669C77.784 40.8993 77.7327 40.2543 77.7071 39.6093H77.6815C77.5533 40.0737 77.3996 40.4865 77.1176 41.2863L76.1181 43.8922H75.4262L74.5035 41.3379C74.3497 40.8477 74.1191 40.0995 73.9909 39.6093H73.9397C73.9141 40.2285 73.8884 40.8993 73.8628 41.4669L73.7346 43.918H72.8633L73.299 38.7836Z" fill="#B2B9C1"/>
<path d="M84.2678 38.7832V43.9703H83.3452V39.5316H80.9617V43.9703H80.0391V38.7832H84.2678Z" fill="#B2B9C1"/>
<path d="M89.418 42.7048C89.418 43.1435 89.4436 43.5821 89.4949 43.9434H88.6491L88.5722 43.2983H88.5466C88.2647 43.7111 87.7009 44.0724 86.9833 44.0724C85.9325 44.0724 85.4199 43.3241 85.4199 42.5758C85.4199 41.3115 86.5219 40.6406 88.521 40.6406V40.5374C88.521 40.0988 88.3928 39.3505 87.3421 39.3505C86.8551 39.3505 86.3682 39.5053 86.0094 39.7375L85.8044 39.1183C86.24 38.8344 86.8551 38.6538 87.4958 38.6538C89.0592 38.6538 89.4436 39.7375 89.4436 40.7696V42.7048H89.418ZM88.521 41.3115C87.4958 41.2857 86.3425 41.4663 86.3425 42.4726C86.3425 43.0919 86.7526 43.3757 87.2139 43.3757C87.8803 43.3757 88.316 42.9371 88.4697 42.4984C88.4954 42.3952 88.521 42.292 88.521 42.1888V41.3115Z" fill="#B2B9C1"/>
<path d="M91.8269 38.7832V40.8735H94.2617V38.7832H95.1843V43.9703H94.2617V41.6219H91.8269V43.9703H90.9043V38.7832H91.8269Z" fill="#B2B9C1"/>
<path d="M97.5943 38.7832V40.9768C97.5943 41.8026 97.5943 42.3187 97.543 43.0413H97.5686C97.8762 42.4219 98.0556 42.0606 98.3888 41.4671L100.003 38.7832H101.105V43.9703H100.208V41.7768C100.208 40.9252 100.234 40.4864 100.26 39.6606H100.234C99.9009 40.3316 99.6702 40.7445 99.3883 41.2606C98.9013 42.0606 98.3375 43.0671 97.7737 43.9703H96.6973V38.7832H97.5943Z" fill="#B2B9C1"/>
<path d="M103.489 38.783V40.9765C103.489 41.8023 103.489 42.3184 103.438 43.041H103.463C103.771 42.4216 103.95 42.0604 104.283 41.4668L105.898 38.783H107V43.97H106.103V41.7765C106.103 40.9249 106.129 40.4862 106.154 39.6604H106.129C105.795 40.3314 105.565 40.7443 105.283 41.2604C104.796 42.0604 104.232 43.0668 103.668 43.97H102.592V38.783H103.489ZM104.078 36.667C104.104 37.1315 104.335 37.4928 104.77 37.4928C105.232 37.4928 105.437 37.1573 105.488 36.667H106.18C106.129 37.5444 105.59 37.9831 104.77 37.9831C103.822 37.9831 103.463 37.3895 103.438 36.667H104.078Z" fill="#B2B9C1"/>
</svg>
