<svg width="290" height="67" viewBox="0 0 290 67" fill="none" xmlns="http://www.w3.org/2000/svg">
<path d="M132.307 33.9564L125.88 53.4057C123.862 59.57 121.472 62.9178 115.31 62.9178C112.602 62.9178 109.946 62.7053 108.246 62.2802V57.285C110.424 57.3381 111.486 57.3913 112.92 57.3913C114.779 57.3913 115.523 56.5942 116.319 54.4154L116.798 53.0869L109.627 33.9564L107.131 33.6907V28.0579H115.841L119.506 40.8647C120.144 43.0434 120.728 45.541 121.1 47.6135H121.206C121.472 45.541 122.003 43.256 122.587 40.9709L125.933 28.0579H134.697V33.6907L132.307 33.9564Z" fill="#78808C"/>
<path d="M165.928 42.8841V43.2561C165.928 46.4977 166.353 48.1982 171.823 48.1982C174.373 48.1982 178.834 48.0387 181.331 47.773V52.9808C179.365 53.459 175.807 54.0967 171.505 54.0967C162.21 54.0967 158.279 50.7489 158.279 42.087V39.802C158.279 31.3527 162.741 27.5266 170.442 27.5266C179.897 27.5266 182.499 33.6377 182.499 40.3334V42.9373H165.928V42.8841ZM174.957 38.2609C174.957 35.4445 174.373 33.0532 170.442 33.0532C166.565 33.0532 165.981 35.5508 165.981 38.2609V38.6329H174.957V38.2609Z" fill="#78808C"/>
<path d="M203.478 53.4057L195.724 41.7149V53.4057H186.004V47.7729L188.022 47.5603V33.8501L186.004 33.6907V28.0579H195.724V39.2704L203.638 28.0579H211.339V33.7439L208.471 34.0096L203.266 40.2801L208.843 47.454L211.392 47.7729V53.4057H203.478Z" fill="#78808C"/>
<path d="M246.926 54.0435C239.278 54.0435 234.816 50.4831 234.816 42.1401V39.3768C234.816 30.9806 239.225 27.4734 246.926 27.4734C254.681 27.4734 259.089 31.0338 259.089 39.3768V42.1401C259.089 50.4831 254.681 54.0435 246.926 54.0435ZM251.388 39.3768C251.388 34.9662 250.06 33.4251 246.926 33.4251C243.846 33.4251 242.518 34.913 242.518 39.3768V42.1401C242.518 46.5507 243.846 48.0918 246.926 48.0918C250.06 48.0918 251.388 46.6039 251.388 42.1401V39.3768Z" fill="#78808C"/>
<path d="M261.16 62.3865V56.7536L263.178 56.5411V33.9565L261.16 33.7439V28.1111H270.349V29.7053C272.686 28.1111 275.341 27.4734 277.838 27.4734C283.468 27.4734 287.08 30.5555 287.08 39.0579V42.1932C287.08 50.9082 282.565 54.0966 275.342 54.0966C273.854 54.0966 271.995 53.9372 270.933 53.7247V56.5942L272.951 56.8068V62.4396L261.16 62.3865ZM279.378 39.0048C279.378 34.7005 278.156 33.4782 275.235 33.4782C273.961 33.4782 272.686 33.6908 270.774 34.4879V47.7198C272.102 47.9324 273.376 48.1449 274.598 48.1449C277.678 48.1449 279.325 47.1353 279.325 42.1932L279.378 39.0048Z" fill="#78808C"/>
<path d="M142.77 53.4057H150.524V33.6907H157.27V28.0579H136.449V33.6907H142.77V53.4057Z" fill="#78808C"/>
<path d="M219.36 53.4057H227.114V33.6907H233.86V28.0579H213.039V33.6907H219.36V53.4057Z" fill="#78808C"/>
<path d="M77.0684 53.459V47.7198L79.1398 47.5604V26.5169L77.0684 26.3043V20.512C81.2112 20.1932 85.6728 20.0869 89.975 20.0869C98.5794 20.0869 105.431 21.6811 105.431 30.8744V31.2995C105.431 40.599 98.5794 42.2995 90.7717 42.2995C89.6032 42.2995 88.5409 42.2464 87.1599 42.2464V47.5073L89.2314 47.7198V53.459H77.0684ZM97.3577 30.8744C97.3577 27.1014 95.0739 26.4106 90.5061 26.4106C89.3376 26.4106 88.1691 26.4637 87.1068 26.4637V35.8164C88.1691 35.8696 89.3376 35.8696 90.5592 35.8696C95.127 35.8696 97.3577 34.9662 97.3577 31.2995V30.8744Z" fill="#78808C"/>
<path d="M18.803 38.0483V19.9275H3.45312V53.4058H36.9147V38.0483H18.803Z" fill="#0054A4"/>
<path d="M39.1445 19.9275V53.4058H54.4943V19.9275H39.1445Z" fill="#78808C"/>
<path d="M3.45312 2.33813V17.7488H21.0337V35.8696H36.9147V17.7488H54.4952V2.33813H3.45312Z" fill="#EF3E42"/>
</svg>
