<svg width="48" height="29" viewBox="0 0 48 29" fill="none" xmlns="http://www.w3.org/2000/svg">
<g clip-path="url(#clip0)">
<path fill-rule="evenodd" clip-rule="evenodd" d="M33.2847 28.4211H33.9795L34.7374 28.3579L35.4321 28.2316L36.1269 28.1684L36.8216 27.9789L37.5163 27.7895L38.1479 27.5368L38.7795 27.2842L39.4111 27.0316L40.0426 26.7158L40.6111 26.3368L41.2426 26.0211L41.7479 25.5789L42.3163 25.2L42.8216 24.7579L43.3269 24.2526L43.769 23.7474L44.2111 23.2421L44.6532 22.7368L45.0321 22.1684L45.4111 21.6L45.79 20.9684L46.1058 20.3368L46.3584 19.7053L46.6111 19.0737L46.8637 18.4421L47.0532 17.7474L47.1795 17.0526L47.3058 16.3579L47.4321 15.6632L47.4953 14.9053V14.2105V13.4526L47.4321 12.7579L47.3058 12L47.1795 11.3053L47.0532 10.6737L46.8637 9.97895L46.6111 9.28421L46.3584 8.65263L46.1058 8.02105L45.79 7.45263L45.4111 6.82105L45.0321 6.25263L44.6532 5.68421L44.2111 5.17895L43.769 4.67368L43.3269 4.16842L42.8216 3.66316L42.3163 3.22105L41.7479 2.84211L41.2426 2.4L40.6111 2.08421L40.0426 1.70526L39.4111 1.38947L38.7795 1.13684L38.1479 0.88421L37.5163 0.631579L36.8216 0.442105L36.1269 0.315789L35.4321 0.189474L34.7374 0.0631579L33.9795 0H33.2847H32.5269L31.769 0.0631579L31.0742 0.189474L30.3795 0.315789L29.6847 0.442105L29.0532 0.631579L28.3584 0.88421L27.7269 1.13684L27.0953 1.38947L26.4637 1.70526L25.8953 2.08421L25.3268 2.4L24.7584 2.84211L24.2532 3.22105L23.6847 3.66316L23.2426 4.16842L22.7374 4.67368L22.2953 5.17895L21.8532 5.68421L21.4742 6.25263L21.0953 6.82105L20.7795 7.45263L20.4637 8.02105L20.1479 8.65263L19.8953 9.28421L19.7058 9.97895L19.5163 10.6737L19.3269 11.3053L19.2005 12L19.1374 12.7579L19.0742 13.4526V14.2105V14.9053L19.1374 15.6632L19.2005 16.3579L19.3269 17.0526L19.5163 17.7474L19.7058 18.4421L19.8953 19.0737L20.1479 19.7053L20.4637 20.3368L20.7795 20.9684L21.0953 21.6L21.4742 22.1684L21.8532 22.7368L22.2953 23.2421L22.7374 23.7474L23.2426 24.2526L23.6847 24.7579L24.2532 25.2L24.7584 25.5789L25.3268 26.0211L25.8953 26.3368L26.4637 26.7158L27.0953 27.0316L27.7269 27.2842L28.3584 27.5368L29.0532 27.7895L29.6847 27.9789L30.3795 28.1684L31.0742 28.2316L31.769 28.3579L32.5269 28.4211H33.2847Z" fill="#FBB230"/>
<path fill-rule="evenodd" clip-rule="evenodd" d="M14.2105 28.4211H14.9684L15.6632 28.3579L16.4211 28.2316L17.1158 28.1684L17.8105 27.9789L18.4421 27.7895L19.1368 27.5368L19.7684 27.2842L20.4 27.0316L21.0316 26.7158L21.6 26.3368L22.1684 26.0211L22.7368 25.5789L23.2421 25.2L23.7474 24.7579L24.2526 24.2526L24.7579 23.7474L25.2 23.2421L25.5789 22.7368L26.0211 22.1684L26.4 21.6L26.7158 20.9684L27.0316 20.3368L27.2842 19.7053L27.5368 19.0737L27.7895 18.4421L27.9789 17.7474L28.1684 17.0526L28.2316 16.3579L28.3579 15.6632L28.4211 14.9053V14.2105V13.4526L28.3579 12.7579L28.2316 12L28.1684 11.3053L27.9789 10.6737L27.7895 9.97895L27.5368 9.28421L27.2842 8.65263L27.0316 8.02105L26.7158 7.45263L26.4 6.82105L26.0211 6.25263L25.5789 5.68421L25.2 5.17895L24.7579 4.67368L24.2526 4.16842L23.7474 3.66316L23.2421 3.22105L22.7368 2.84211L22.1684 2.4L21.6 2.08421L21.0316 1.70526L20.4 1.38947L19.7684 1.13684L19.1368 0.88421L18.4421 0.631579L17.8105 0.442105L17.1158 0.315789L16.4211 0.189474L15.6632 0.0631579L14.9684 0H14.2105H13.5158L12.7579 0.0631579L12.0632 0.189474L11.3684 0.315789L10.6737 0.442105L9.97895 0.631579L9.34737 0.88421L8.71579 1.13684L8.08421 1.38947L7.45263 1.70526L6.88421 2.08421L6.25263 2.4L5.74737 2.84211L5.17895 3.22105L4.67368 3.66316L4.16842 4.16842L3.72632 4.67368L3.22105 5.17895L2.84211 5.68421L2.4 6.25263L2.08421 6.82105L1.70526 7.45263L1.38947 8.02105L1.13684 8.65263L0.884211 9.28421L0.631579 9.97895L0.442105 10.6737L0.315789 11.3053L0.189474 12L0.0631579 12.7579L0 13.4526V14.2105V14.9053L0.0631579 15.6632L0.189474 16.3579L0.315789 17.0526L0.442105 17.7474L0.631579 18.4421L0.884211 19.0737L1.13684 19.7053L1.38947 20.3368L1.70526 20.9684L2.08421 21.6L2.4 22.1684L2.84211 22.7368L3.22105 23.2421L3.72632 23.7474L4.16842 24.2526L4.67368 24.7579L5.17895 25.2L5.74737 25.5789L6.25263 26.0211L6.88421 26.3368L7.45263 26.7158L8.08421 27.0316L8.71579 27.2842L9.34737 27.5368L9.97895 27.7895L10.6737 27.9789L11.3684 28.1684L12.0632 28.2316L12.7579 28.3579L13.5158 28.4211H14.2105Z" fill="#EB2230"/>
<path fill-rule="evenodd" clip-rule="evenodd" d="M22.1055 5.43172H29.6213V4.67383H22.737L22.1055 5.43172Z" fill="#FBB230"/>
<path fill-rule="evenodd" clip-rule="evenodd" d="M20.9688 7.1368H29.6214V6.37891H21.4109L20.9688 7.1368Z" fill="#FBB230"/>
<path fill-rule="evenodd" clip-rule="evenodd" d="M20.084 8.90528H29.6208V8.08423H20.4629L20.084 8.90528Z" fill="#FBB230"/>
<path fill-rule="evenodd" clip-rule="evenodd" d="M19.5156 10.6104H29.6209V9.85254H19.7683L19.5156 10.6104Z" fill="#FBB230"/>
<path fill-rule="evenodd" clip-rule="evenodd" d="M19.8321 18.8841H29.6847V18.1262H19.6426L19.8321 18.8841Z" fill="#FBB230"/>
<path fill-rule="evenodd" clip-rule="evenodd" d="M20.5899 20.5894H29.6846V19.8315H20.2109L20.5899 20.5894Z" fill="#FBB230"/>
<path fill-rule="evenodd" clip-rule="evenodd" d="M21.599 22.2948H29.6832V21.5369H21.0938L21.599 22.2948Z" fill="#FBB230"/>
<path fill-rule="evenodd" clip-rule="evenodd" d="M22.989 24.0632H29.6837V23.2422H22.3574L22.989 24.0632Z" fill="#FBB230"/>
<path fill-rule="evenodd" clip-rule="evenodd" d="M19.1992 12.3158H29.6203V11.5579H19.3255L19.1992 12.3158Z" fill="#FBB230"/>
<path fill-rule="evenodd" clip-rule="evenodd" d="M25.5781 17.179H29.5571V16.4211H25.7044L25.5781 17.179Z" fill="#FBB230"/>
<path fill-rule="evenodd" clip-rule="evenodd" d="M25.8945 15.4737H29.5577V14.7158H26.0208L25.8945 15.4737Z" fill="#FBB230"/>
<path fill-rule="evenodd" clip-rule="evenodd" d="M18.9473 14.7158H19.9578V15.4737H18.9473V14.7158Z" fill="#FBB230"/>
<path fill-rule="evenodd" clip-rule="evenodd" d="M16.9894 13.7684H16.9262H16.8631L16.7999 13.7052H16.7367H16.6736H16.6104H16.5473H16.4841L16.421 13.642H16.3578H16.2315H16.1683H16.042H15.9788H15.8525L15.6631 13.7052H15.5999H15.4736L15.4104 13.7684H15.3473L15.2841 13.8315H15.221L15.1578 13.8947L15.0946 13.9578V14.021V14.0841V14.1473V14.2105V14.2736L15.1578 14.3368V14.3999L15.2841 14.4631L15.4104 14.5894L15.5367 14.6526H15.6631L15.8525 14.7157L15.9788 14.7789L16.1683 14.842L16.2946 14.9052L16.421 14.9684L16.5473 15.0947L16.6736 15.221L16.7999 15.3473L16.8631 15.5368L16.9262 15.7263V15.9789V16.2947L16.8631 16.5473L16.7999 16.7368L16.7367 16.9263L16.6736 17.0526L16.5473 17.242L16.421 17.3052L16.2946 17.4315L16.1683 17.5578L15.9788 17.621L15.8525 17.6841H15.6631L15.4736 17.7473H15.3473L15.1578 17.8105H15.0315H14.842H14.6525H14.4631H14.2736H14.1473H14.021H13.8946L13.7683 17.7473H13.642H13.5157H13.4525L13.3894 17.6841H13.2631H13.1999L13.1367 17.621H13.0736L12.9473 17.5578L13.1999 16.5473H13.2631H13.3262L13.4525 16.6105H13.5157H13.5788L13.7052 16.6736H13.8315H13.9578L14.0841 16.7368H14.2104H14.3367H14.4631H14.5894H14.7788H14.9052H15.0315L15.1578 16.6736L15.221 16.6105L15.2841 16.5473L15.3473 16.4841L15.4104 16.421V16.3578V16.2315V16.1052V15.9789L15.2841 15.9157L15.1578 15.8526L15.0315 15.7263L14.9052 15.6631L14.7157 15.5999L14.5262 15.5368L14.3367 15.4736L14.1473 15.3473L13.9578 15.221L13.8315 15.0947L13.7052 14.9052L13.5788 14.6526V14.3999V14.0841V13.9578L13.642 13.7684V13.5789L13.7052 13.4526L13.8315 13.2631L13.8946 13.1368L14.021 13.0736L14.0841 12.9473L14.2736 12.821L14.3999 12.7578L14.5894 12.6947L14.7788 12.6315H14.9683L15.221 12.5684H15.4736H15.7894H15.9157H16.1052H16.2315H16.3578H16.4841H16.6104H16.7367H16.7999L16.8631 12.6315H16.9262H16.9894H17.0525H17.1157H17.1788V12.6947H17.242L16.9894 13.7684Z" fill="white"/>
<path d="M16.9894 13.7684H16.9262H16.8631L16.7999 13.7052H16.7367H16.6736H16.6104H16.5473H16.4841L16.421 13.642H16.3578H16.2315H16.1683H16.042H15.9788H15.8525L15.6631 13.7052H15.5999H15.4736L15.4104 13.7684H15.3473L15.2841 13.8315H15.221L15.1578 13.8947L15.0946 13.9578V14.021V14.0841V14.1473V14.2105V14.2736L15.1578 14.3368V14.3999L15.2841 14.4631L15.4104 14.5894L15.5367 14.6526H15.6631L15.8525 14.7157L15.9788 14.7789L16.1683 14.842L16.2946 14.9052L16.421 14.9684L16.5473 15.0947L16.6736 15.221L16.7999 15.3473L16.8631 15.5368L16.9262 15.7263V15.9789V16.2947L16.8631 16.5473L16.7999 16.7368L16.7367 16.9263L16.6736 17.0526L16.5473 17.242L16.421 17.3052L16.2946 17.4315L16.1683 17.5578L15.9788 17.621L15.8525 17.6841H15.6631L15.4736 17.7473H15.3473L15.1578 17.8105H15.0315H14.842H14.6525H14.4631H14.2736H14.1473H14.021H13.8946L13.7683 17.7473H13.642H13.5157H13.4525L13.3894 17.6841H13.2631H13.1999L13.1367 17.621H13.0736L12.9473 17.5578L13.1999 16.5473H13.2631H13.3262L13.4525 16.6105H13.5157H13.5788L13.7052 16.6736H13.8315H13.9578L14.0841 16.7368H14.2104H14.3367H14.4631H14.5894H14.7788H14.9052H15.0315L15.1578 16.6736L15.221 16.6105L15.2841 16.5473L15.3473 16.4841L15.4104 16.421V16.3578V16.2315V16.1052V15.9789L15.2841 15.9157L15.1578 15.8526L15.0315 15.7263L14.9052 15.6631L14.7157 15.5999L14.5262 15.5368L14.3367 15.4736L14.1473 15.3473L13.9578 15.221L13.8315 15.0947L13.7052 14.9052L13.5788 14.6526V14.3999V14.0841V13.9578L13.642 13.7684V13.5789L13.7052 13.4526L13.8315 13.2631L13.8946 13.1368L14.021 13.0736L14.0841 12.9473L14.2736 12.821L14.3999 12.7578L14.5894 12.6947L14.7788 12.6315H14.9683L15.221 12.5684H15.4736H15.7894H15.9157H16.1052H16.2315H16.3578H16.4841H16.6104H16.7367H16.7999L16.8631 12.6315H16.9262H16.9894H17.0525H17.1157H17.1788V12.6947H17.242L16.9894 13.7684Z" stroke="white" stroke-width="0.216" stroke-miterlimit="2.6131"/>
<path fill-rule="evenodd" clip-rule="evenodd" d="M18.1271 11.4946H19.4534L19.2639 12.6315H20.0849L19.8955 13.7052H19.0113L18.5692 16.3578V16.4841L18.6323 16.5473V16.6104L18.6955 16.6736L18.8218 16.7367H18.8849H19.0113H19.1376H19.2007H19.3271H19.3902H19.4534L19.5165 16.6736H19.5797H19.6428L19.4534 17.5578L19.3902 17.6209H19.3271L19.2639 17.6841H19.2007H19.1376L19.0744 17.7473H19.0113H18.9481H18.8849H18.8218H18.7586L18.6323 17.8104H18.3165L18.1271 17.7473H17.9376H17.8113L17.6218 17.6841L17.5586 17.6209H17.4323L17.3692 17.5578L17.306 17.4946L17.2428 17.4315V17.3052L17.1797 17.242V17.1788V17.0525V16.9262V16.863L17.2428 16.7367L18.1271 11.4946Z" fill="white"/>
<path d="M18.1271 11.4946H19.4534L19.2639 12.6315H20.0849L19.8955 13.7052H19.0113L18.5692 16.3578V16.4841L18.6323 16.5473V16.6104L18.6955 16.6736L18.8218 16.7367H18.8849H19.0113H19.1376H19.2007H19.3271H19.3902H19.4534L19.5165 16.6736H19.5797H19.6428L19.4534 17.5578L19.3902 17.6209H19.3271L19.2639 17.6841H19.2007H19.1376L19.0744 17.7473H19.0113H18.9481H18.8849H18.8218H18.7586L18.6323 17.8104H18.3165L18.1271 17.7473H17.9376H17.8113L17.6218 17.6841L17.5586 17.6209H17.4323L17.3692 17.5578L17.306 17.4946L17.2428 17.4315V17.3052L17.1797 17.242V17.1788V17.0525V16.9262V16.863L17.2428 16.7367L18.1271 11.4946Z" stroke="white" stroke-width="0.216" stroke-miterlimit="2.6131"/>
<path d="M21.0946 15.5368V15.5999V15.7263V15.7894L21.1577 15.9157V15.9789L21.2209 16.042L21.284 16.1684V16.2315L21.3472 16.2947L21.4735 16.421L21.5367 16.4841L21.5998 16.5473H21.7261L21.7893 16.6105L21.9156 16.6736H21.9788H22.1051H22.2314L22.3577 16.7368H22.484H22.6103H22.7367H22.863H22.9893L23.1156 16.6736H23.2419H23.3682L23.4946 16.6105L23.6209 16.5473L23.8103 16.4841L23.9367 16.421L24.063 16.3578L23.8735 17.4947L23.8103 17.5578L23.684 17.621H23.6209H23.5577L23.4946 17.6841H23.4314H23.3682L23.2419 17.7473H23.1788H23.0524H22.9893H22.863H22.7367H22.6103L22.484 17.8105H22.2946L22.0419 17.7473H21.8524H21.5998L21.3472 17.6841L21.0946 17.621L20.9051 17.4947L20.6524 17.3684L20.463 17.242L20.2735 17.0526L20.1472 16.8631L19.9577 16.6736L19.8946 16.421L19.7682 16.1052L19.7051 15.7894V15.4736L19.7682 15.0315V14.9052V14.7157L19.8314 14.5263L19.8946 14.3368L19.9577 14.1473L20.0209 13.8947L20.1472 13.7052L20.2735 13.5157L20.463 13.3263L20.6524 13.1368L20.8419 12.9473L21.0946 12.821L21.3472 12.6947L21.663 12.6315L21.9788 12.5684H22.4209H22.6103H22.7998L22.9893 12.6315H23.1788L23.3682 12.6947L23.5577 12.821L23.7472 12.9473L23.8735 13.0736L23.9998 13.1999L24.1261 13.3894L24.2524 13.642L24.3156 13.8947L24.3788 14.1473V14.5263L24.3156 14.842L24.2524 15.2841V15.5368H20.7156L20.9682 14.5894H23.0524V14.5263V14.3999V14.2736V14.2105L22.9893 14.0841V14.021L22.9261 13.9578L22.863 13.8947L22.7998 13.8315L22.7367 13.7684L22.6735 13.7052H22.6103L22.5472 13.642H22.4209H22.3577H22.2946H22.1682H22.1051H22.0419L21.9156 13.7052H21.8524L21.7893 13.7684L21.7261 13.8315L21.663 13.8947L21.5998 13.9578L21.5367 14.021L21.4735 14.0841L21.4103 14.1473V14.2736L21.3472 14.3368V14.4631L21.284 14.5263L21.0946 15.5368Z" stroke="white" stroke-width="0.216" stroke-miterlimit="2.6131"/>
<path fill-rule="evenodd" clip-rule="evenodd" d="M32.5253 12.9475L32.4621 12.8843H32.399L32.3358 12.8211H32.2726L32.2095 12.758H32.1463L32.0832 12.6948H31.9568H31.8937L31.7674 12.6317H31.7042H31.5779H31.4516L31.3884 12.5685H31.2621H31.1358H31.0095L30.8832 12.6317H30.7568H30.6305L30.5042 12.6948L30.3779 12.758L30.1884 12.8211L30.0621 12.8843L29.9358 13.0106L29.8095 13.1369L29.6832 13.2632L29.62 13.4527L29.4937 13.6422L29.3674 13.8948L29.3042 14.1475L29.2411 14.4632L29.1779 14.6527V14.8422V14.9685V15.158V15.2843L29.2411 15.4738V15.6001L29.3042 15.7264L29.3674 15.8527L29.4937 15.979L29.5568 16.1053L29.6832 16.2317L29.8095 16.2948L29.9358 16.358L30.1253 16.4211L30.3147 16.4843H30.3779H30.4411L30.5042 16.5475H30.6305H30.7568H30.82H30.9463H31.0726L31.199 16.4843H31.3253H31.4516L31.5779 16.4211L31.7042 16.358L31.7674 16.2948L31.8937 16.2317L32.02 16.1685L31.7674 17.4317L31.7042 17.4948L31.6411 17.558H31.5779L31.5147 17.6211H31.4516L31.3884 17.6843H31.2621L31.1358 17.7475H31.0095H30.82H30.6305H30.3779H30.1884H29.8726H29.6832L29.4305 17.6843L29.2411 17.6211L28.9884 17.4948L28.799 17.4317L28.6095 17.2422L28.42 17.1159L28.2305 16.9264L28.1042 16.6738L27.9147 16.4211L27.8516 16.1685L27.7253 15.8527L27.6621 15.5369V15.2211V14.8422L27.7253 14.4632L27.7884 14.2738V14.0843L27.8516 13.8948L27.9147 13.7053L27.9779 13.5159L28.0411 13.3896L28.1042 13.2001L28.1674 13.0738L28.2305 12.8843L28.2937 12.758L28.3568 12.6317L28.4832 12.5053L28.5463 12.379L28.6095 12.2527L28.7358 12.1896L28.8621 12.0632L28.9253 12.0001L29.0516 11.8738L29.1779 11.8106L29.3042 11.7475L29.4305 11.6211L29.5568 11.558H29.6832L29.8095 11.4948L29.999 11.4317L30.1253 11.3685H30.2516L30.4411 11.3053H30.6305H30.7568H30.9463L31.1358 11.2422L31.2621 11.3053H31.4516H31.5779H31.7042L31.8305 11.3685H31.9568H32.0832L32.2095 11.4317H32.3358L32.399 11.4948H32.5253L32.5884 11.558H32.6516H32.7147L32.7779 11.6211L32.5253 12.9475Z" fill="white"/>
<path d="M32.5253 12.9475L32.4621 12.8843H32.399L32.3358 12.8211H32.2726L32.2095 12.758H32.1463L32.0832 12.6948H31.9568H31.8937L31.7674 12.6317H31.7042H31.5779H31.4516L31.3884 12.5685H31.2621H31.1358H31.0095L30.8832 12.6317H30.7568H30.6305L30.5042 12.6948L30.3779 12.758L30.1884 12.8211L30.0621 12.8843L29.9358 13.0106L29.8095 13.1369L29.6832 13.2632L29.62 13.4527L29.4937 13.6422L29.3674 13.8948L29.3042 14.1475L29.2411 14.4632L29.1779 14.6527V14.8422V14.9685V15.158V15.2843L29.2411 15.4738V15.6001L29.3042 15.7264L29.3674 15.8527L29.4937 15.979L29.5568 16.1053L29.6832 16.2317L29.8095 16.2948L29.9358 16.358L30.1253 16.4211L30.3147 16.4843H30.3779H30.4411L30.5042 16.5475H30.6305H30.7568H30.82H30.9463H31.0726L31.199 16.4843H31.3253H31.4516L31.5779 16.4211L31.7042 16.358L31.7674 16.2948L31.8937 16.2317L32.02 16.1685L31.7674 17.4317L31.7042 17.4948L31.6411 17.558H31.5779L31.5147 17.6211H31.4516L31.3884 17.6843H31.2621L31.1358 17.7475H31.0095H30.82H30.6305H30.3779H30.1884H29.8726H29.6832L29.4305 17.6843L29.2411 17.6211L28.9884 17.4948L28.799 17.4317L28.6095 17.2422L28.42 17.1159L28.2305 16.9264L28.1042 16.6738L27.9147 16.4211L27.8516 16.1685L27.7253 15.8527L27.6621 15.5369V15.2211V14.8422L27.7253 14.4632L27.7884 14.2738V14.0843L27.8516 13.8948L27.9147 13.7053L27.9779 13.5159L28.0411 13.3896L28.1042 13.2001L28.1674 13.0738L28.2305 12.8843L28.2937 12.758L28.3568 12.6317L28.4832 12.5053L28.5463 12.379L28.6095 12.2527L28.7358 12.1896L28.8621 12.0632L28.9253 12.0001L29.0516 11.8738L29.1779 11.8106L29.3042 11.7475L29.4305 11.6211L29.5568 11.558H29.6832L29.8095 11.4948L29.999 11.4317L30.1253 11.3685H30.2516L30.4411 11.3053H30.6305H30.7568H30.9463L31.1358 11.2422L31.2621 11.3053H31.4516H31.5779H31.7042L31.8305 11.3685H31.9568H32.0832L32.2095 11.4317H32.3358L32.399 11.4948H32.5253L32.5884 11.558H32.6516H32.7147L32.7779 11.6211L32.5253 12.9475Z" stroke="white" stroke-width="0.216" stroke-miterlimit="2.6131"/>
<path fill-rule="evenodd" clip-rule="evenodd" d="M44.3364 17.8104H43.0101L43.1364 17.242V17.1788L43.0733 17.3052L42.9469 17.3683L42.8838 17.4315L42.8206 17.5578L42.6943 17.6209H42.6311L42.568 17.6841L42.4417 17.7473H42.3785L42.2522 17.8104H42.189H42.0627H41.9996L41.8733 17.8736H41.8101H41.6838L41.4311 17.8104H41.2417L40.989 17.6841L40.7996 17.6209L40.6733 17.4315L40.4838 17.3052L40.3575 17.1157L40.2311 16.9262L40.168 16.6736L40.0417 16.4841V16.2315L39.9785 15.9788V15.7262V15.4736V15.2209L40.0417 15.0315L40.1048 14.7157L40.168 14.463L40.2943 14.2104L40.4206 13.9578L40.5469 13.7683L40.6733 13.5788L40.7996 13.3894L40.989 13.263L41.1785 13.0736L41.3048 13.0104L41.4943 12.8841L41.6838 12.8209L41.8733 12.7578L42.0627 12.6946L42.2522 12.6315H42.4417H42.6311L42.7575 12.6946H42.8838H43.0101L43.0733 12.7578L43.1996 12.8209L43.2627 12.8841H43.389L43.4522 12.9473L43.5154 13.0104L43.5785 13.0736L43.6417 13.1367L43.7048 13.1999V13.263L43.768 13.3262V13.3894L44.1469 11.4946H45.4101L44.3364 17.8104Z" fill="white"/>
<path d="M44.3364 17.8104H43.0101L43.1364 17.242V17.1788L43.0733 17.3052L42.9469 17.3683L42.8838 17.4315L42.8206 17.5578L42.6943 17.6209H42.6311L42.568 17.6841L42.4417 17.7473H42.3785L42.2522 17.8104H42.189H42.0627H41.9996L41.8733 17.8736H41.8101H41.6838L41.4311 17.8104H41.2417L40.989 17.6841L40.7996 17.6209L40.6733 17.4315L40.4838 17.3052L40.3575 17.1157L40.2311 16.9262L40.168 16.6736L40.0417 16.4841V16.2315L39.9785 15.9788V15.7262V15.4736V15.2209L40.0417 15.0315L40.1048 14.7157L40.168 14.463L40.2943 14.2104L40.4206 13.9578L40.5469 13.7683L40.6733 13.5788L40.7996 13.3894L40.989 13.263L41.1785 13.0736L41.3048 13.0104L41.4943 12.8841L41.6838 12.8209L41.8733 12.7578L42.0627 12.6946L42.2522 12.6315H42.4417H42.6311L42.7575 12.6946H42.8838H43.0101L43.0733 12.7578L43.1996 12.8209L43.2627 12.8841H43.389L43.4522 12.9473L43.5154 13.0104L43.5785 13.0736L43.6417 13.1367L43.7048 13.1999V13.263L43.768 13.3262V13.3894L44.1469 11.4946H45.4101L44.3364 17.8104Z" stroke="white" stroke-width="0.216" stroke-miterlimit="2.6131"/>
<path fill-rule="evenodd" clip-rule="evenodd" d="M42.1889 16.6105H42.3152H42.4415L42.5678 16.5473L42.6941 16.4842L42.7573 16.421L42.8836 16.3579L42.9468 16.2947L43.0099 16.1684L43.1362 16.1052L43.1994 15.9789L43.2626 15.9158V15.7894L43.3257 15.6631L43.3889 15.5368V15.4105L43.452 15.2842V15.1579V14.9684V14.8421V14.7158V14.5894V14.4631L43.3889 14.4V14.2736L43.3257 14.1473L43.2626 14.0842L43.1994 14.021L43.1362 13.9579L43.0731 13.8947L42.9468 13.8315H42.8836H42.7573H42.631H42.5047L42.3784 13.8947H42.3152L42.1889 13.9579L42.1257 14.0842L41.9994 14.1473L41.9362 14.2105L41.8731 14.3368L41.8099 14.4631L41.7468 14.5894L41.6836 14.7158L41.6205 14.8421V14.9684L41.5573 15.0947V15.221L41.4941 15.4105V15.6631L41.5573 15.9158L41.6205 16.1052L41.6836 16.2947L41.8099 16.4842L41.9994 16.6105H42.1889Z" fill="#FBB230"/>
<path fill-rule="evenodd" clip-rule="evenodd" d="M12.7583 16.7368L12.5688 17.8105H11.3688V17.5578L11.432 17.4315V17.3052V17.1789L11.3688 17.3052L11.3057 17.3684L11.1793 17.4315L11.1162 17.4947L10.9899 17.5578L10.8635 17.621L10.7372 17.6841L10.6109 17.7473H10.4846L10.3583 17.8105H10.1688L10.0425 17.8736H9.91618H9.78986H9.66355L9.53723 17.8105H9.34776L9.22144 17.7473L9.03197 17.6841L8.90565 17.621L8.8425 17.5578L8.71618 17.4315L8.65302 17.3684L8.58986 17.242L8.52671 17.1789L8.46355 17.0526V16.9263L8.40039 16.8631V16.7368V16.6105V16.4841V16.421V16.2315V16.042L8.46355 15.8526L8.52671 15.7263L8.58986 15.5368L8.71618 15.4105L8.77934 15.2841L8.90565 15.1578L9.03197 15.0315L9.15829 14.9684L9.2846 14.842L9.47407 14.7789L9.60039 14.7157L9.72671 14.6526H9.91618L10.1057 14.5894H10.1688H10.232H10.2951H10.3583L10.4214 14.5263H10.4846H10.5478H10.6741H10.7372H10.8004H10.8635H10.9899H11.053H11.1793H11.3057H11.432H11.4951H11.6214H11.6846H11.7478V14.4631V14.3999L11.8109 14.2736V14.2105V14.0841L11.7478 14.021L11.6846 13.8947L11.6214 13.8315L11.4951 13.7684H11.432L11.3057 13.7052H11.1793H11.053H10.9267H10.7372H10.6109H10.4214H10.2951L10.1057 13.7684H9.97934H9.85302L9.72671 13.8315H9.60039H9.47407L9.34776 13.8947H9.2846L9.22144 13.9578H9.15829L9.47407 12.821L9.60039 12.7578H9.72671L9.78986 12.6947H9.91618L10.0425 12.6315H10.1688H10.2951H10.4214L10.5478 12.5684H10.6741H10.8635H10.9899H11.1162H11.3057H11.4951H11.6214L11.7478 12.6315H11.9372H12.0635L12.1899 12.6947L12.3793 12.7578L12.5057 12.821L12.632 12.8841L12.7583 13.0105L12.8846 13.1368L13.0109 13.1999L13.1372 13.3263L13.2004 13.5157V13.642L13.2635 13.8315V14.021L13.2004 14.2105L12.7583 16.7368Z" fill="white"/>
<path d="M12.7583 16.7368L12.5688 17.8105H11.3688V17.5578L11.432 17.4315V17.3052V17.1789L11.3688 17.3052L11.3057 17.3684L11.1793 17.4315L11.1162 17.4947L10.9899 17.5578L10.8635 17.621L10.7372 17.6841L10.6109 17.7473H10.4846L10.3583 17.8105H10.1688L10.0425 17.8736H9.91618H9.78986H9.66355L9.53723 17.8105H9.34776L9.22144 17.7473L9.03197 17.6841L8.90565 17.621L8.8425 17.5578L8.71618 17.4315L8.65302 17.3684L8.58986 17.242L8.52671 17.1789L8.46355 17.0526V16.9263L8.40039 16.8631V16.7368V16.6105V16.4841V16.421V16.2315V16.042L8.46355 15.8526L8.52671 15.7263L8.58986 15.5368L8.71618 15.4105L8.77934 15.2841L8.90565 15.1578L9.03197 15.0315L9.15829 14.9684L9.2846 14.842L9.47407 14.7789L9.60039 14.7157L9.72671 14.6526H9.91618L10.1057 14.5894H10.1688H10.232H10.2951H10.3583L10.4214 14.5263H10.4846H10.5478H10.6741H10.7372H10.8004H10.8635H10.9899H11.053H11.1793H11.3057H11.432H11.4951H11.6214H11.6846H11.7478V14.4631V14.3999L11.8109 14.2736V14.2105V14.0841L11.7478 14.021L11.6846 13.8947L11.6214 13.8315L11.4951 13.7684H11.432L11.3057 13.7052H11.1793H11.053H10.9267H10.7372H10.6109H10.4214H10.2951L10.1057 13.7684H9.97934H9.85302L9.72671 13.8315H9.60039H9.47407L9.34776 13.8947H9.2846L9.22144 13.9578H9.15829L9.47407 12.821L9.60039 12.7578H9.72671L9.78986 12.6947H9.91618L10.0425 12.6315H10.1688H10.2951H10.4214L10.5478 12.5684H10.6741H10.8635H10.9899H11.1162H11.3057H11.4951H11.6214L11.7478 12.6315H11.9372H12.0635L12.1899 12.6947L12.3793 12.7578L12.5057 12.821L12.632 12.8841L12.7583 13.0105L12.8846 13.1368L13.0109 13.1999L13.1372 13.3263L13.2004 13.5157V13.642L13.2635 13.8315V14.021L13.2004 14.2105L12.7583 16.7368Z" stroke="white" stroke-width="0.216" stroke-miterlimit="2.6131"/>
<path fill-rule="evenodd" clip-rule="evenodd" d="M11.5588 15.4738V15.4106H11.4956H11.4325H11.3693H11.3061H11.243H11.1798H11.0535H10.9904H10.9272H10.864H10.8009L10.7377 15.4738H10.6746H10.6114L10.5483 15.537H10.4851H10.4219L10.3588 15.6001H10.2956L10.2325 15.6633L10.1693 15.7264L10.1061 15.7896L10.043 15.8528H9.97983V15.9159L9.91667 15.9791V16.1054L9.85352 16.1685V16.2949L9.91667 16.4843V16.5475L9.97983 16.6106L10.043 16.6738H10.1693L10.2325 16.737H10.2956H10.4219L10.6114 16.6738H10.7377H10.8009L10.9272 16.6106L10.9904 16.5475H11.0535L11.1798 16.4843L11.243 16.4212L11.3061 16.358V16.2949L11.3693 16.2317L11.4325 16.1685V16.1054V16.0422L11.4956 15.9159L11.5588 15.7264V15.6001V15.4738Z" fill="#EB2230"/>
<path fill-rule="evenodd" clip-rule="evenodd" d="M2.65249 17.8104H1.32617L2.46301 11.4946H4.7367L4.92617 15.2209L6.50512 11.4946H8.84196L7.76828 17.8104H6.44196L7.26301 13.0736H7.19986L5.24196 17.8104H3.78933V17.5578L3.72617 17.0525V16.2946L3.66301 15.4736L3.59986 14.5894L3.5367 13.8315V13.3262V13.0736H3.47354L2.65249 17.8104Z" fill="white"/>
<path d="M2.65249 17.8104H1.32617L2.46301 11.4946H4.7367L4.92617 15.2209L6.50512 11.4946H8.84196L7.76828 17.8104H6.44196L7.26301 13.0736H7.19986L5.24196 17.8104H3.78933V17.5578L3.72617 17.0525V16.2946L3.66301 15.4736L3.59986 14.5894L3.5367 13.8315V13.3262V13.0736H3.47354L2.65249 17.8104Z" stroke="white" stroke-width="0.216" stroke-miterlimit="2.6131"/>
<path fill-rule="evenodd" clip-rule="evenodd" d="M36.5688 16.7368L36.3162 17.8105H35.1162V17.5578L35.1794 17.4315V17.3052V17.242L35.1162 17.3052L35.053 17.3684L34.9267 17.4315L34.8636 17.4947L34.7373 17.5578L34.6109 17.621L34.4846 17.6841L34.3583 17.7473H34.232L34.1057 17.8105H33.9794L33.853 17.8736H33.7267H33.6004H33.4741L33.3478 17.8105H33.1583L32.9688 17.7473L32.8425 17.6841L32.7162 17.621L32.653 17.5578L32.5267 17.4315L32.4636 17.3684L32.4004 17.242L32.3373 17.1789L32.2741 17.0526V16.9263L32.2109 16.8631V16.7368V16.6105V16.4841V16.421V16.2315V16.042L32.2741 15.8526L32.3373 15.7263L32.4004 15.5368L32.5267 15.4105L32.5899 15.2841L32.7162 15.1578L32.8425 15.0315L32.9688 14.9684L33.0951 14.842L33.2846 14.7789L33.4109 14.7157L33.5373 14.6526H33.7267L33.853 14.5894H33.9162H33.9794H34.0425H34.1057L34.1688 14.5263H34.2951H34.3583H34.4215H34.5478H34.6109H34.6741H34.7373H34.8004H34.8636H34.9899H35.1162H35.1794H35.3057H35.432H35.4951H35.5583V14.4631V14.3999V14.2736L35.6215 14.2105L35.5583 14.0841V14.021L35.4951 13.8947L35.3688 13.8315L35.3057 13.7684H35.2425L35.1162 13.7052H34.9899H34.8636H34.7373H34.5478H34.4215H34.232H34.1057L33.9794 13.7684H33.7899H33.6636L33.5373 13.8315H33.4109H33.2846L33.1583 13.8947H33.0951L33.032 13.9578H32.9688L33.2846 12.821L33.4109 12.7578H33.5373L33.6004 12.6947H33.7267L33.853 12.6315H33.9794H34.1057H34.232L34.3583 12.5684H34.4846H34.6741H34.8004H34.9267H35.1162H35.2425H35.432L35.5583 12.6315H35.6846H35.8741L36.0004 12.6947L36.1267 12.7578L36.3162 12.821L36.4425 12.8841L36.5688 13.0105L36.6951 13.1368L36.8215 13.1999L36.8846 13.3263L36.9478 13.5157L37.0109 13.642L37.0741 13.8315V14.021L37.0109 14.2105L36.5688 16.7368Z" fill="white"/>
<path fill-rule="evenodd" clip-rule="evenodd" d="M36.3164 17.8105H36.3796L36.569 16.7368H36.5059L36.3164 17.7473V17.8105H36.3796H36.3164Z" fill="white"/>
<path fill-rule="evenodd" clip-rule="evenodd" d="M35.1152 17.8105H36.3152V17.7473H35.1152L35.1784 17.8105H35.1152Z" fill="white"/>
<path fill-rule="evenodd" clip-rule="evenodd" d="M35.1784 17.2421L35.1152 17.179V17.3053V17.4316V17.5579V17.8105H35.1784V17.5579V17.4316V17.3053V17.2421L35.1152 17.179L35.1784 17.2421Z" fill="white"/>
<path fill-rule="evenodd" clip-rule="evenodd" d="M33.3477 17.8737H33.474H33.6003H33.7266H33.8529H33.9792L34.1056 17.8105H34.295L34.4213 17.7474L34.5477 17.6842H34.674L34.7371 17.6211L34.8635 17.5579L34.9898 17.4316L35.0529 17.3684L35.1161 17.3053L35.1792 17.2421L35.1161 17.179L35.0529 17.3053L34.9898 17.3684L34.9266 17.4316L34.8003 17.4947L34.7371 17.5579L34.6108 17.6211L34.4845 17.6842H34.3582L34.2319 17.7474H34.1056L33.9792 17.8105H33.8529H33.7266H33.6003H33.474H33.3477V17.8737Z" fill="white"/>
<path fill-rule="evenodd" clip-rule="evenodd" d="M32.1465 16.4211V16.4843V16.6106L32.2096 16.7369V16.8632V16.9264L32.2728 17.0527L32.336 17.179L32.3991 17.2422L32.4623 17.3685L32.5254 17.4317L32.5886 17.558L32.7149 17.6211L32.8412 17.6843L32.9675 17.7475L33.157 17.8106L33.3465 17.8738V17.8106L33.157 17.7475L33.0307 17.6843L32.9044 17.6211L32.7781 17.558L32.6517 17.4948L32.5886 17.4317L32.4623 17.3054L32.3991 17.2422V17.1159L32.336 17.0527L32.2728 16.9264V16.8632V16.7369L32.2096 16.6106V16.4843V16.4211H32.1465Z" fill="white"/>
<path fill-rule="evenodd" clip-rule="evenodd" d="M33.8517 14.5894H33.7254L33.536 14.6525L33.4096 14.7157L33.2202 14.7788L33.0939 14.842L32.9675 14.9051L32.8412 15.0315L32.7149 15.1578L32.5886 15.2841L32.4623 15.4104L32.3991 15.5367L32.336 15.7262L32.2728 15.8525L32.2096 16.042L32.1465 16.2315V16.4209H32.2096V16.2315L32.2728 16.042V15.8525L32.336 15.7262L32.4623 15.5999L32.5254 15.4104L32.6517 15.2841L32.7149 15.1578L32.8412 15.0946L32.9675 14.9683L33.0939 14.9051L33.2833 14.842L33.4096 14.7788L33.5991 14.7157L33.7254 14.6525H33.8517V14.5894Z" fill="white"/>
<path fill-rule="evenodd" clip-rule="evenodd" d="M34.864 14.4631H34.8009H34.7377H34.6746H34.6114H34.5483L34.4219 14.5263H34.3588H34.2956H34.1693H34.1061H34.043H33.9798L33.9167 14.5895H33.8535V14.6526H33.9167V14.5895H33.9798H34.043H34.1061H34.1693H34.2956H34.3588L34.4219 14.5263H34.5483H34.6114H34.6746H34.7377H34.8009H34.864V14.4631Z" fill="white"/>
<path fill-rule="evenodd" clip-rule="evenodd" d="M35.4949 14.5263L35.558 14.4631H35.4949H35.4317H35.3054H35.1791H35.1159H34.9896H34.8633V14.5263H34.9896H35.1159H35.1791H35.3054H35.4317H35.4949H35.558H35.4949Z" fill="white"/>
<path fill-rule="evenodd" clip-rule="evenodd" d="M35.5573 14.2104V14.2736V14.3999L35.4941 14.4631V14.5262H35.5573V14.4631L35.6205 14.3999V14.2736V14.2104H35.5573Z" fill="white"/>
<path fill-rule="evenodd" clip-rule="evenodd" d="M34.9902 13.7052V13.7684H35.1165H35.1797L35.306 13.8316L35.3692 13.8947L35.4323 13.9579L35.4955 14.021L35.5586 14.0842V14.2105H35.6218V14.0842L35.5586 14.021L35.4955 13.8947L35.4323 13.8316L35.306 13.7684L35.2429 13.7052H35.1165L34.9902 13.6421V13.7052Z" fill="white"/>
<path fill-rule="evenodd" clip-rule="evenodd" d="M32.9062 13.9579L32.9694 14.021L33.0326 13.9579H33.0957L33.1589 13.8947H33.2852L33.4115 13.8316H33.5378H33.6641L33.7905 13.7684H33.9799H34.1062H34.2326L34.422 13.7052H34.5484H34.7378H34.8641H34.9905L34.8641 13.6421H34.7378H34.5484H34.422L34.2326 13.7052H34.1062H33.9799H33.7905L33.6641 13.7684H33.5378H33.4115L33.2852 13.8316H33.1589L33.0957 13.8947H33.0326L32.9694 13.9579H32.9062Z" fill="white"/>
<path fill-rule="evenodd" clip-rule="evenodd" d="M33.2852 12.7578V12.821L32.9062 13.9578H32.9694L33.3484 12.821H33.2852V12.7578V12.821V12.7578Z" fill="white"/>
<path fill-rule="evenodd" clip-rule="evenodd" d="M35.4325 12.5684H35.2431H35.1167H34.9273H34.8009H34.6746H34.4852H34.3588H34.2325H34.1062L33.9799 12.6315H33.8536H33.7273L33.6009 12.6947H33.5378L33.4115 12.7578H33.2852V12.821H33.4115L33.5378 12.7578H33.6009L33.7273 12.6947H33.8536L33.9799 12.6315H34.1062H34.2325H34.3588H34.4852H34.6746H34.8009H34.9273H35.1167H35.2431H35.4325V12.5684Z" fill="white"/>
<path fill-rule="evenodd" clip-rule="evenodd" d="M37.0737 14.2105V14.021V13.8315V13.642L37.0106 13.5157L36.9474 13.3263L36.8211 13.1999L36.6948 13.0736L36.5685 12.9473L36.4422 12.8841L36.3159 12.821L36.1895 12.7578L36.0001 12.6947L35.8737 12.6315L35.6843 12.5684H35.558H35.4316V12.6315H35.558H35.6843L35.8737 12.6947L36.0001 12.7578L36.1264 12.821L36.3159 12.8841L36.4422 12.9473L36.5685 13.0105L36.6948 13.1368L36.758 13.2631L36.8843 13.3894L36.9474 13.5157L37.0106 13.642V13.8315V14.021V14.2105H37.0737Z" fill="white"/>
<path fill-rule="evenodd" clip-rule="evenodd" d="M36.569 16.7368L37.0743 14.2104H37.0111L36.5059 16.7368H36.569Z" fill="white"/>
<path fill-rule="evenodd" clip-rule="evenodd" d="M35.3674 15.4737V15.4106H35.3042H35.2411L35.1779 15.3474H35.0516L34.9884 15.4106H34.9253H34.8621H34.799H34.6726H34.6095L34.5463 15.4737H34.4832H34.42H34.3568L34.2937 15.5369H34.2305L34.1674 15.6H34.1042L34.0411 15.6632L33.9779 15.7264H33.9147L33.8516 15.7895L33.7884 15.8527V15.9158L33.7253 15.979V16.1053L33.6621 16.1685V16.2948L33.7253 16.4843V16.5474L33.7884 16.6106L33.8516 16.6737H33.9779L34.0411 16.7369H34.1042H34.2937L34.42 16.6737H34.5463L34.6095 16.6106H34.7358L34.799 16.5474L34.9253 16.4843H34.9884L35.0516 16.4211L35.1147 16.3579L35.1779 16.2948L35.2411 16.2316V16.1685V16.1053L35.3042 16.0422V15.979V15.8527L35.3674 15.7264V15.6V15.4737Z" fill="#FBB230"/>
<path fill-rule="evenodd" clip-rule="evenodd" d="M45.2207 17.1157L45.2839 16.9894V16.8631L45.347 16.7999L45.4733 16.6736L45.5365 16.6104L45.6628 16.5473L45.7891 16.4841H45.9154H46.0418L46.1681 16.5473L46.2944 16.6104L46.4207 16.6736L46.4839 16.7999L46.547 16.8631L46.6102 16.9894V17.1157H46.4207V17.0526V16.9262L46.3575 16.8631L46.2944 16.7368L46.2312 16.6736L46.1681 16.6104H46.0418H45.9154H45.7891H45.726L45.5996 16.6736L45.5365 16.7368L45.4733 16.8631L45.4102 16.9262V17.0526V17.1157H45.2207Z" fill="white"/>
<path fill-rule="evenodd" clip-rule="evenodd" d="M45.6621 17.1157V16.863H45.9147H45.9779H46.0411H46.1042L46.1674 16.9262V16.9894V17.0525V17.1157H45.9147H45.9779H46.0411V17.0525H46.1042V16.9894L46.0411 16.9262H45.9779H45.9147H45.7884V17.1157H45.6621Z" fill="white"/>
<path fill-rule="evenodd" clip-rule="evenodd" d="M45.2207 17.1157V17.1789L45.2839 17.3052V17.4315L45.347 17.5578L45.4733 17.621L45.5365 17.6841L45.6628 17.7473L45.7891 17.8105H45.9154H46.0418L46.1681 17.7473L46.2944 17.6841L46.4207 17.621L46.4839 17.5578L46.547 17.4315L46.6102 17.3052V17.1789V17.1157H46.4207L46.4839 17.1789L46.4207 17.242V17.3684L46.3575 17.4947L46.2944 17.5578L46.2312 17.621L46.1681 17.6841H46.0418H45.9154H45.7891H45.726L45.5996 17.621L45.5365 17.5578L45.4733 17.4947L45.4102 17.3684V17.242V17.1789V17.1157H45.2207Z" fill="white"/>
<path fill-rule="evenodd" clip-rule="evenodd" d="M45.6621 17.1157V17.4315H45.7884V17.1789H45.9147L46.0411 17.4315H46.1674L46.0411 17.1789H46.1042L46.1674 17.1157H45.9147H45.7884H45.6621Z" fill="white"/>
<path d="M45.2207 17.1789V17.0526L45.2839 16.9262L45.347 16.7999L45.4102 16.6736L45.5365 16.6104L45.6628 16.5473L45.7891 16.4841H45.9154H46.0418L46.1681 16.5473L46.2944 16.6104L46.4207 16.6736L46.4839 16.7999L46.547 16.9262L46.6102 17.0526V17.1789V17.3052L46.547 17.4315L46.4839 17.5578L46.4207 17.6841H46.2944L46.1681 17.7473L46.0418 17.8104H45.9154H45.7891L45.6628 17.7473L45.5365 17.6841L45.4733 17.621L45.4102 17.4947L45.347 17.3683L45.2839 17.242L45.2207 17.1789ZM45.7891 17.4315H45.6628V16.8631H45.9154H45.9786H46.0418H46.1049H46.1681V16.9262V16.9894V17.0526V17.1157H46.1049H46.0418L46.1681 17.3683H46.0418L45.9154 17.1157H45.7891V17.4315V17.4315ZM45.9154 17.1157H45.9786V17.0526H45.8523V17.242H45.9154V17.1157ZM45.9154 17.6841H46.0418L46.1681 17.621L46.2312 17.5578L46.2944 17.4947L46.3575 17.4315L46.4207 17.3683V17.242V17.1157V16.9894V16.8631L46.3575 16.7368L46.2944 16.6736L46.2312 16.6104L46.1681 16.5473L46.0418 16.4841H45.9154H45.7891L45.6628 16.5473L45.5996 16.6104L45.5365 16.6736L45.4733 16.8631L45.4102 16.9894V17.1157V17.242V17.3683V17.4947L45.4733 17.5578L45.5365 17.621L45.5996 17.6841L45.6628 17.7473L45.7891 17.8104L45.9154 17.6841Z" stroke="white" stroke-width="0.216" stroke-miterlimit="2.6131"/>
<path fill-rule="evenodd" clip-rule="evenodd" d="M36.8848 17.8105H38.2742L38.7163 15.0315L38.7795 14.9684V14.842V14.7157L38.8427 14.6526L38.9058 14.5263L38.969 14.3999L39.0321 14.3368L39.0953 14.2105L39.1584 14.1473L39.2848 14.0841L39.4111 14.021L39.5374 13.9578L39.6637 13.8947H39.79L39.9795 13.8315H40.169H40.2321H40.2953L40.4848 12.5684L40.3585 12.6315H40.2321H40.1058L39.9795 12.6947H39.9163L39.79 12.7578L39.6637 12.821L39.6006 12.8841L39.5374 12.9473L39.4111 13.0105L39.3479 13.0736L39.2848 13.1368L39.2216 13.2631L39.1584 13.3263L39.0953 13.3894L38.969 13.5157L39.1584 12.6315H37.769L36.8848 17.8105Z" fill="white"/>
<path d="M36.8848 17.8105H38.2742L38.7163 15.0315L38.7795 14.9684V14.842V14.7157L38.8427 14.6526L38.9058 14.5263L38.969 14.3999L39.0321 14.3368L39.0953 14.2105L39.1584 14.1473L39.2848 14.0841L39.4111 14.021L39.5374 13.9578L39.6637 13.8947H39.79L39.9795 13.8315H40.169H40.2321H40.2953L40.4848 12.5684L40.3585 12.6315H40.2321H40.1058L39.9795 12.6947H39.9163L39.79 12.7578L39.6637 12.821L39.6006 12.8841L39.5374 12.9473L39.4111 13.0105L39.3479 13.0736L39.2848 13.1368L39.2216 13.2631L39.1584 13.3263L39.0953 13.3894L38.969 13.5157L39.1584 12.6315H37.769L36.8848 17.8105Z" stroke="white" stroke-width="0.216" stroke-miterlimit="2.6131"/>
<path fill-rule="evenodd" clip-rule="evenodd" d="M24.1895 17.8105H25.5789L26.021 15.0315L26.0842 14.9684V14.842V14.7789L26.1473 14.6526V14.5263L26.2105 14.4631L26.2737 14.3999L26.3368 14.2736L26.4 14.2105L26.5263 14.1473L26.5895 14.0841L26.7158 14.021H26.8421L27.0316 13.9578H27.1579L27.3473 13.8947H27.4105V13.9578H27.4737H27.5368V13.8947V13.7684L27.6 13.7052V13.5789L27.6631 13.3894V13.2631L27.7263 13.1368L27.7895 13.0736V12.9473L27.8526 12.8841L27.9158 12.821L27.9789 12.6947V12.6315H28.0421H27.9789H27.9158L27.8526 12.5684H27.7895L27.6631 12.6315H27.5368H27.4105L27.2842 12.6947H27.1579L27.0947 12.7578L26.9684 12.821L26.9052 12.8841L26.7789 12.9473L26.7158 13.0105L26.6526 13.0736L26.5895 13.1368L26.5263 13.2631L26.4631 13.3263L26.4 13.3894L26.2737 13.5157L26.4631 12.6315H25.0737L24.1895 17.8105Z" fill="white"/>
<path d="M24.1895 17.8105H25.5789L26.021 15.0315L26.0842 14.9684V14.842V14.7789L26.1473 14.6526V14.5263L26.2105 14.4631L26.2737 14.3999L26.3368 14.2736L26.4 14.2105L26.5263 14.1473L26.5895 14.0841L26.7158 14.021H26.8421L27.0316 13.9578H27.1579L27.3473 13.8947H27.4105V13.9578H27.4737H27.5368V13.8947V13.7684L27.6 13.7052V13.5789L27.6631 13.3894V13.2631L27.7263 13.1368L27.7895 13.0736V12.9473L27.8526 12.8841L27.9158 12.821L27.9789 12.6947V12.6315H28.0421H27.9789H27.9158L27.8526 12.5684H27.7895L27.6631 12.6315H27.5368H27.4105L27.2842 12.6947H27.1579L27.0947 12.7578L26.9684 12.821L26.9052 12.8841L26.7789 12.9473L26.7158 13.0105L26.6526 13.0736L26.5895 13.1368L26.5263 13.2631L26.4631 13.3263L26.4 13.3894L26.2737 13.5157L26.4631 12.6315H25.0737L24.1895 17.8105Z" stroke="white" stroke-width="0.216" stroke-miterlimit="2.6131"/>
<path fill-rule="evenodd" clip-rule="evenodd" d="M45.2852 22.8002V22.6739L45.3483 22.5476L45.4746 22.4844L45.5378 22.4212L45.6641 22.3581L45.7904 22.2949H45.9167H46.0431L46.1694 22.3581L46.2957 22.4212L46.422 22.4844L46.4852 22.5476L46.5483 22.6739L46.6115 22.8002H46.422V22.737L46.3588 22.6107L46.2957 22.5476L46.2325 22.4844L46.1694 22.4212H46.0431L45.9167 22.3581L45.7904 22.4212H45.7273L45.6009 22.4844L45.5378 22.5476L45.4746 22.6107L45.4115 22.737V22.8002H45.2852Z" fill="#FBB230"/>
<path fill-rule="evenodd" clip-rule="evenodd" d="M45.6621 22.8001V22.6738H45.9147H45.9779H46.0411H46.1042L46.1674 22.737V22.8001H46.1042V22.737H46.0411H45.9779H45.9147H45.7884V22.8001H45.6621Z" fill="#FBB230"/>
<path fill-rule="evenodd" clip-rule="evenodd" d="M45.2207 22.9264L45.2839 22.8H45.4102V22.9264H45.2207Z" fill="#FBB230"/>
<path fill-rule="evenodd" clip-rule="evenodd" d="M45.6621 22.9264V22.8H45.7884V22.9264H45.9147H45.9779H46.0411V22.8632H46.1042V22.8H46.1674V22.8632V22.9264H45.6621Z" fill="#FBB230"/>
<path fill-rule="evenodd" clip-rule="evenodd" d="M46.485 22.9264L46.4219 22.8H46.6114V22.9264H46.485Z" fill="#FBB230"/>
<path fill-rule="evenodd" clip-rule="evenodd" d="M45.2207 22.9263L45.2839 23.0526V23.2421L45.347 23.3052L45.4733 23.4315L45.5365 23.4947L45.6628 23.5578L45.7891 23.621H45.9154H46.0418L46.1681 23.5578L46.2944 23.4947L46.4207 23.4315L46.4839 23.3052L46.547 23.2421L46.6102 23.0526V22.9263H46.4839L46.4207 23.0526V23.1789L46.3575 23.2421L46.2944 23.3684L46.2312 23.4315H46.1681L46.0418 23.4947H45.9154H45.7891L45.726 23.4315H45.5996L45.5365 23.3684L45.4733 23.2421L45.4102 23.1789V23.0526V22.9263H45.2207Z" fill="#FBB230"/>
<path fill-rule="evenodd" clip-rule="evenodd" d="M45.6621 22.9263V23.1789H45.7884V22.9894H45.9147L46.0411 23.1789H46.1674L46.0411 22.9894H46.1042V22.9263H46.1674H45.6621Z" fill="#FBB230"/>
<path fill-rule="evenodd" clip-rule="evenodd" d="M24.3781 14.1473L24.3149 13.8947L24.2518 13.642L24.1255 13.4526L23.9992 13.1999L23.8728 13.0105L23.6834 12.8841L23.4939 12.7578L23.3676 12.6947L23.1781 12.6315H22.9886L22.7992 12.5684H22.6097H22.4202H22.0413L21.6623 12.6315L21.3465 12.6947L21.0939 12.821L20.8413 12.9473L20.6518 13.1368L20.4623 13.3263L20.336 13.5157L20.2097 13.7052L20.0202 13.8947L19.9571 14.0841L19.8939 14.2736L19.8307 14.5263L19.7676 14.7157V14.9052V15.0315V15.4105V15.7894L19.8307 16.1052L19.8939 16.3578L20.0202 16.6105L20.1465 16.7999L20.336 16.9894L20.5255 17.1789L20.7149 17.3052L20.9044 17.4315L21.1571 17.4947L21.4097 17.5578L21.6623 17.621L21.9149 17.6841H22.1676H22.4202H22.6097H22.736H22.8623H22.9886H23.1149H23.2413H23.3044H23.3676H23.4307H23.4939H23.5571H23.6202H23.6834L23.7465 17.621L23.8097 17.5578L23.9992 16.3578L23.936 16.421L23.8097 16.4841L23.6834 16.5473L23.5571 16.6105L23.3676 16.6736H23.2413H23.1149H22.9886H22.8623H22.736H22.6097H22.4834H22.3571H22.2307H22.1044H21.9781H21.8518L21.7255 16.6105L21.5992 16.5473L21.536 16.4841L21.4728 16.421L21.4097 16.3578L21.3465 16.2947L21.2834 16.2315L21.2202 16.1684L21.1571 16.1052L21.0939 16.042V15.9789V15.9157V15.8526V15.7894H24.1886V15.4736L24.2518 15.0947L24.3149 14.7157L24.3781 14.1473ZM23.0518 14.5894H21.2834V14.5263V14.3999V14.2736L21.3465 14.1473L21.4097 14.0841L21.4728 14.021L21.536 13.9578L21.5992 13.8947L21.6623 13.8315L21.7255 13.7684L21.7886 13.7052L21.8518 13.642L21.9149 13.5789H21.9781H22.0413H22.1044H22.1676H22.2307H22.2939H22.3571H22.4202L22.4834 13.642L22.5465 13.7052L22.6097 13.7684L22.6728 13.8315L22.736 13.8947L22.7992 13.9578L22.8623 14.021L22.9255 14.0841V14.2105V14.3368V14.4631L23.0518 14.5894Z" fill="white"/>
</g>
<defs>
<clipPath id="clip0">
<rect width="48" height="28.7368" fill="white"/>
</clipPath>
</defs>
</svg>
