<svg width="56" height="34" viewBox="0 0 56 34" fill="none" xmlns="http://www.w3.org/2000/svg">
<path d="M14.8842 9.50537C14.8842 9.50537 12.7474 9.50537 12.1579 11.5685C11.6421 13.4843 10.1684 18.6422 10.0947 18.7896H9.65263C9.65263 18.7896 8.10526 13.4843 7.58948 11.5685C7 9.50537 4.86316 9.50537 4.86316 9.50537H0V25.1264H4.93684V15.8422H5.1579H5.37895L8.25263 25.1264H11.6421L14.5158 15.8422H14.9579V25.1264H19.8947V9.50537H14.8842Z" fill="#4DB45E"/>
<path d="M32.8637 9.50537C32.8637 9.50537 31.39 9.65274 30.7269 11.1264L27.2637 18.7896H26.8216V9.50537H21.8848V25.1264H26.5269C26.5269 25.1264 28.0006 24.9791 28.7374 23.5054L32.1269 15.8422H32.569V25.1264H37.5058V9.50537H32.8637Z" fill="#4DB45E"/>
<path d="M39.7148 16.5789V25.1262H44.6517V20.1157H49.957C52.3149 20.1157 54.2306 18.642 54.9675 16.5789H39.7148Z" fill="#4DB45E"/>
<path d="M49.9594 9.50537H38.9805C39.4963 12.4527 41.7805 14.8843 44.6542 15.6212C45.3173 15.7685 45.9805 15.9159 46.7173 15.9159H55.1173C55.191 15.5475 55.191 15.1791 55.191 14.8106C55.2647 11.8633 52.9068 9.50537 49.9594 9.50537Z" fill="url(#paint0_linear)"/>
<defs>
<linearGradient id="paint0_linear" x1="39" y1="12.7048" x2="55.2647" y2="12.7048" gradientUnits="userSpaceOnUse">
<stop offset="0.3" stop-color="#00B4E6"/>
<stop offset="1" stop-color="#088CCB"/>
</linearGradient>
</defs>
</svg>
