<svg width="56" height="19" viewBox="0 0 56 19" fill="none" xmlns="http://www.w3.org/2000/svg">
<path d="M24.0215 17.6842H19.4531L22.3268 0.294678H26.8215L24.0215 17.6842Z" fill="#0A67B2"/>
<path d="M15.6947 0.294678L11.4211 12.2315L10.9053 9.65257L9.35789 1.84205C9.35789 1.84205 9.21053 0.294678 7.22105 0.294678H0.0736842L0 0.589415C0 0.589415 2.21053 1.03152 4.71579 2.57889L8.62105 17.6842H13.3368L20.4842 0.368362H15.6947V0.294678Z" fill="#0A67B2"/>
<path d="M51.2103 17.6842H55.3366L51.7261 0.294678H48.1155C46.4208 0.294678 46.0524 1.62099 46.0524 1.62099L39.2734 17.6842H43.9892L44.9471 15.1052H50.6945L51.2103 17.6842ZM46.1997 11.4947L48.5576 5.01047L49.8839 11.4947H46.1997Z" fill="#0A67B2"/>
<path d="M39.6428 4.49474L40.2323 0.736842C40.2323 0.736842 38.2428 0 36.1796 0C33.9691 0 28.5902 0.957895 28.5902 5.74737C28.5902 10.2421 34.8533 10.3158 34.8533 12.6C34.8533 14.9579 29.2533 14.5158 27.4112 13.0421L26.748 16.9474C26.748 16.9474 28.7375 17.9053 31.8323 17.9053C34.927 17.9053 39.5691 16.2842 39.5691 11.9368C39.5691 7.44211 33.2323 7 33.2323 5.08421C33.3059 3.16842 37.727 3.38947 39.6428 4.49474Z" fill="#0A67B2"/>
<path d="M10.8316 9.65258L9.35789 1.84205C9.35789 1.84205 9.21053 0.294678 7.22105 0.294678H0.0736842L0 0.589415C0 0.589415 3.38947 1.32626 6.70526 3.97889C9.87368 6.48415 10.8316 9.65258 10.8316 9.65258Z" fill="#FAA634"/>
</svg>
