<svg width="330" height="497" viewBox="0 0 330 497" fill="none" xmlns="http://www.w3.org/2000/svg">
<mask id="path-1-inside-1" fill="white">
<path fill-rule="evenodd" clip-rule="evenodd" d="M306.295 9L299.5 0L292.705 9H3C1.34315 9 0 10.3432 0 12V494C0 495.657 1.34314 497 3 497H327C328.657 497 330 495.657 330 494V12C330 10.3431 328.657 9 327 9H306.295Z"/>
</mask>
<path fill-rule="evenodd" clip-rule="evenodd" d="M306.295 9L299.5 0L292.705 9H3C1.34315 9 0 10.3432 0 12V494C0 495.657 1.34314 497 3 497H327C328.657 497 330 495.657 330 494V12C330 10.3431 328.657 9 327 9H306.295Z" fill="white"/>
<path d="M299.5 0L300.298 -0.602548L299.5 -1.65962L298.702 -0.602548L299.5 0ZM306.295 9L305.497 9.60255L305.797 10H306.295V9ZM292.705 9V10H293.203L293.503 9.60255L292.705 9ZM298.702 0.602548L305.497 9.60255L307.093 8.39745L300.298 -0.602548L298.702 0.602548ZM293.503 9.60255L300.298 0.602548L298.702 -0.602548L291.907 8.39745L293.503 9.60255ZM3 10H292.705V8H3V10ZM1 12C1 10.8954 1.89544 10 3 10V8C0.790856 8 -1 9.79088 -1 12H1ZM1 494V12H-1V494H1ZM3 496C1.89543 496 1 495.105 1 494H-1C-1 496.209 0.790858 498 3 498V496ZM327 496H3V498H327V496ZM329 494C329 495.105 328.105 496 327 496V498C329.209 498 331 496.209 331 494H329ZM329 12V494H331V12H329ZM327 10C328.105 10 329 10.8954 329 12H331C331 9.79086 329.209 8 327 8V10ZM306.295 10H327V8H306.295V10Z" fill="#ADAEAD" mask="url(#path-1-inside-1)"/>
</svg>
