<svg width="18" height="18" viewBox="0 0 18 18" fill="none" xmlns="http://www.w3.org/2000/svg">
<g clip-path="url(#clip0)">
<path d="M6.96344 9.85467C5.35812 8.24935 4.99565 6.64403 4.91387 6.00086C4.89102 5.82303 4.95222 5.64468 5.07945 5.51834L6.37856 4.21982C6.56966 4.02884 6.60357 3.7312 6.46033 3.50213L4.39191 0.290331C4.23345 0.0366721 3.90807 -0.0548758 3.64058 0.0789367L0.320037 1.64279C0.103731 1.7493 -0.0234981 1.97912 0.0010612 2.21897C0.175048 3.87185 0.895644 7.93502 4.88865 11.9283C8.88165 15.9216 12.9442 16.6419 14.598 16.8159C14.8378 16.8404 15.0677 16.7132 15.1742 16.4969L16.738 13.1764C16.8713 12.9095 16.7804 12.585 16.5278 12.4262L13.316 10.3584C13.0871 10.215 12.7894 10.2486 12.5983 10.4396L11.2998 11.7387C11.1734 11.8659 10.9951 11.9271 10.8173 11.9042C10.1741 11.8225 8.56876 11.46 6.96344 9.85467Z" fill="#B2B9C1"/>
<path d="M12.2154 6.85331V8.02805C12.2154 8.14211 12.1502 8.24614 12.0476 8.29598C11.945 8.34582 11.823 8.33271 11.7333 8.26222L8.34226 5.59782C8.27044 5.54134 8.22852 5.45502 8.22852 5.36365C8.22852 5.27228 8.27044 5.18596 8.34226 5.12947L11.7333 2.46507C11.823 2.39459 11.945 2.38148 12.0476 2.43132C12.1502 2.48115 12.2154 2.58519 12.2154 2.69925V3.87697C12.2154 4.04001 12.3464 4.17278 12.5094 4.1749C13.7968 4.19129 16.6278 4.40073 17.1843 7.05947C17.2076 7.18211 17.152 7.30626 17.045 7.37051C16.9379 7.43476 16.8022 7.42549 16.7049 7.34728C16.2291 6.95877 15.3985 6.55537 14.003 6.55537H12.5133C12.3488 6.55537 12.2154 6.68876 12.2154 6.85331Z" fill="#B2B9C1"/>
</g>
<defs>
<clipPath id="clip0">
<rect width="17.2801" height="17.28" fill="white"/>
</clipPath>
</defs>
</svg>
