<svg width="25" height="19" viewBox="0 0 25 19" fill="none" xmlns="http://www.w3.org/2000/svg">
<g clip-path="url(#clip0)">
<path d="M6.93164 3.73389V14.8454L13.281 9.28963L6.93164 3.73389Z" fill="#B2B9C1"/>
<path d="M7.72461 2.96802L15.9554 10.1699L24.1862 2.96802H7.72461Z" fill="#B2B9C1"/>
<path d="M17.7617 9.98975L15.9554 11.5703L14.1492 9.98975L7.72461 15.6113H24.1865L17.7617 9.98975Z" fill="#B2B9C1"/>
<path d="M18.5645 9.28955L24.9137 14.8451V3.73389L18.5645 9.28955Z" fill="#B2B9C1"/>
</g>
<path d="M6.50452 10.8261L6.50452 9.52558C6.50454 9.39931 6.57665 9.28413 6.69022 9.22896C6.80379 9.17378 6.93889 9.18829 7.03815 9.26633L10.7921 12.2161C10.8716 12.2786 10.918 12.3742 10.918 12.4753C10.918 12.5765 10.8716 12.6721 10.7921 12.7346L7.03815 15.6844C6.93889 15.7624 6.80379 15.7769 6.69022 15.7217C6.57665 15.6665 6.50454 15.5514 6.50452 15.4251L6.50452 14.1212C6.50453 13.9407 6.35947 13.7937 6.179 13.7914C4.75388 13.7733 1.62002 13.5414 1.00394 10.5979C0.978147 10.4621 1.03972 10.3247 1.15819 10.2535C1.27666 10.1824 1.42691 10.1927 1.5346 10.2793C2.06131 10.7094 2.98082 11.156 4.52565 11.156L6.17471 11.156C6.35686 11.156 6.50452 11.0083 6.50452 10.8261Z" fill="white"/>
<path d="M5.23092 10.8296L5.23092 9.59416C5.23094 9.47421 5.29944 9.3648 5.40733 9.31238C5.51523 9.25997 5.64358 9.27375 5.73788 9.34788L9.30421 12.15C9.37974 12.2094 9.42383 12.3002 9.42383 12.3963C9.42383 12.4924 9.37974 12.5832 9.30421 12.6426L5.73788 15.4447C5.64358 15.5188 5.51523 15.5326 5.40733 15.4802C5.29944 15.4278 5.23094 15.3184 5.23092 15.1984L5.23092 13.9598C5.23093 13.7884 5.09311 13.6487 4.92166 13.6465C3.56776 13.6293 0.590495 13.409 0.00519509 10.6128C-0.0193057 10.4838 0.0391898 10.3533 0.15174 10.2857C0.26429 10.2181 0.407032 10.2279 0.509344 10.3101C1.00973 10.7187 1.8833 11.143 3.35093 11.143L4.91759 11.143C5.09063 11.143 5.23092 11.0027 5.23092 10.8296Z" fill="#B2B9C1"/>
<defs>
<clipPath id="clip0">
<rect width="17.9815" height="17.9816" fill="white" transform="translate(6.93164 0.298828)"/>
</clipPath>
</defs>
</svg>
