<svg width="11" height="16" viewBox="0 0 11 16" fill="none" xmlns="http://www.w3.org/2000/svg">
<path d="M5.52504 0.362793C2.74482 0.362793 0.484375 2.62323 0.484375 5.40345C0.484375 6.52158 1.14317 8.21993 2.55443 10.7493C3.51844 12.4749 4.47641 13.9345 4.51872 13.9949L5.21075 15.0466C5.28025 15.1523 5.39811 15.2158 5.52504 15.2158C5.65196 15.2158 5.76982 15.1523 5.83932 15.0466L6.53135 13.9949C6.57064 13.9345 7.52256 12.487 8.49564 10.7493C9.9069 8.21993 10.5657 6.51856 10.5657 5.40345C10.5657 2.62323 8.30526 0.362793 5.52504 0.362793ZM7.83685 10.3837C6.87888 12.1002 5.94207 13.5235 5.90278 13.5809L5.52504 14.1551L5.14729 13.5809C5.108 13.5205 4.16212 12.085 3.21322 10.3806C1.90168 8.03559 1.23987 6.36142 1.23987 5.40345C1.23987 3.04026 3.16185 1.11829 5.52504 1.11829C7.88822 1.11829 9.8102 3.04026 9.8102 5.40345C9.8102 6.36142 9.14536 8.03559 7.83685 10.3837Z" fill="#57667F"/>
<path d="M5.5258 2.57788C3.98459 2.57788 2.73047 3.832 2.73047 5.37321C2.73047 6.91442 3.98459 8.16854 5.5258 8.16854C7.06701 8.16854 8.32113 6.91442 8.32113 5.37321C8.32113 3.832 7.06701 2.57788 5.5258 2.57788ZM5.5258 7.41305C4.40162 7.41305 3.48596 6.49739 3.48596 5.37321C3.48596 4.24904 4.40162 3.33338 5.5258 3.33338C6.64998 3.33338 7.56564 4.24904 7.56564 5.37321C7.56564 6.49739 6.64998 7.41305 5.5258 7.41305Z" fill="#57667F"/>
</svg>
