<svg width="30" height="22" viewBox="0 0 30 22" fill="none" xmlns="http://www.w3.org/2000/svg">
<g clip-path="url(#clip0)">
<path d="M8.81348 4.32642V17.1724L16.1539 10.7494L8.81348 4.32642Z" fill="#0054A4"/>
<path d="M9.73047 3.44092L19.246 11.767L28.7617 3.44092H9.73047Z" fill="#0054A4"/>
<path d="M21.3343 11.5588L19.2461 13.3861L17.1579 11.5588L9.73047 18.0579H28.762L21.3343 11.5588Z" fill="#0054A4"/>
<path d="M22.2617 10.7495L29.6021 17.1723V4.32666L22.2617 10.7495Z" fill="#0054A4"/>
</g>
<path d="M8.31851 12.5253L8.31851 11.0218C8.31853 10.8759 8.40189 10.7427 8.53319 10.679C8.66449 10.6152 8.82068 10.6319 8.93544 10.7222L13.2753 14.1321C13.3672 14.2044 13.4209 14.3148 13.4209 14.4318C13.4209 14.5487 13.3672 14.6592 13.2753 14.7315L8.93544 18.1414C8.82068 18.2316 8.66449 18.2484 8.53319 18.1846C8.40189 18.1208 8.31853 17.9876 8.31851 17.8417L8.31851 16.3344C8.31852 16.1258 8.15081 15.9558 7.94217 15.9531C6.2946 15.9322 2.67154 15.6641 1.95928 12.2614C1.92947 12.1045 2.00065 11.9456 2.13761 11.8634C2.27458 11.7811 2.44828 11.793 2.57279 11.8931C3.18171 12.3903 4.24476 12.9066 6.03074 12.9066L7.93721 12.9066C8.1478 12.9066 8.31851 12.7359 8.31851 12.5253Z" fill="white"/>
<path d="M6.84691 12.5292L6.84691 11.1009C6.84694 10.9622 6.92613 10.8358 7.05087 10.7752C7.17561 10.7146 7.32399 10.7305 7.43302 10.8162L11.556 14.0557C11.6434 14.1244 11.6943 14.2294 11.6943 14.3404C11.6943 14.4515 11.6434 14.5565 11.556 14.6252L7.43302 17.8647C7.32399 17.9504 7.17561 17.9663 7.05087 17.9057C6.92613 17.8451 6.84694 17.7186 6.84691 17.58L6.84691 16.148C6.84693 15.9498 6.6876 15.7884 6.48938 15.7858C4.92414 15.7659 1.48213 15.5112 0.80546 12.2786C0.777135 12.1295 0.844761 11.9785 0.974882 11.9004C1.105 11.8223 1.27002 11.8336 1.38831 11.9286C1.9668 12.401 2.97673 12.8915 4.67347 12.8915L6.48467 12.8915C6.68473 12.8915 6.84691 12.7293 6.84691 12.5292Z" fill="#0054A4"/>
<defs>
<clipPath id="clip0">
<rect width="20.7884" height="20.7884" fill="white" transform="translate(8.81348 0.355225)"/>
</clipPath>
</defs>
</svg>
