<svg width="21" height="21" viewBox="0 0 21 21" fill="none" xmlns="http://www.w3.org/2000/svg">
<g clip-path="url(#clip0)">
<path d="M8.91304 12.3517C7.05713 10.4958 6.63808 8.63987 6.54354 7.8963C6.51712 7.6907 6.58787 7.48451 6.73496 7.33845L8.23686 5.83723C8.45779 5.61643 8.49699 5.27233 8.33139 5.0075L5.9401 1.29433C5.75689 1.00108 5.38072 0.89524 5.07148 1.04994L1.2326 2.85791C0.982533 2.98105 0.835443 3.24675 0.863836 3.52404C1.06498 5.43493 1.89806 10.1324 6.51437 14.749C11.1307 19.3657 15.8274 20.1984 17.7393 20.3996C18.0166 20.428 18.2823 20.2809 18.4055 20.0308L20.2134 16.1919C20.3676 15.8833 20.2624 15.5082 19.9704 15.3246L16.2572 12.934C15.9925 12.7682 15.6485 12.8072 15.4275 13.0279L13.9263 14.5298C13.7802 14.6769 13.574 14.7476 13.3684 14.7212C12.6249 14.6267 10.769 14.2076 8.91304 12.3517Z" fill="#0054A4"/>
<path d="M14.9862 8.88078V10.2389C14.9861 10.3708 14.9108 10.491 14.7922 10.5487C14.6736 10.6063 14.5325 10.5911 14.4289 10.5096L10.5085 7.42932C10.4254 7.36401 10.377 7.26422 10.377 7.15859C10.377 7.05295 10.4254 6.95316 10.5085 6.88786L14.4289 3.80754C14.5325 3.72605 14.6736 3.71089 14.7922 3.76851C14.9108 3.82613 14.9861 3.94641 14.9862 4.07827V5.43984C14.9861 5.62833 15.1376 5.78182 15.3261 5.78427C16.8144 5.80322 20.0873 6.04536 20.7307 9.11913C20.7577 9.26091 20.6934 9.40444 20.5696 9.47872C20.4459 9.55301 20.289 9.54228 20.1765 9.45186C19.6265 9.00272 18.6662 8.53634 17.0528 8.53634H15.3306C15.1404 8.53634 14.9862 8.69055 14.9862 8.88078Z" fill="#0054A4"/>
</g>
<defs>
<clipPath id="clip0">
<rect width="19.9775" height="19.9775" fill="white" transform="translate(0.861328 0.95874)"/>
</clipPath>
</defs>
</svg>
