<svg width="30" height="32" viewBox="0 0 30 32" fill="none" xmlns="http://www.w3.org/2000/svg">
<path d="M28.2511 7.29477H23.9825V0.640117C23.9825 0.286563 23.6959 0 23.3423 0H6.67934C6.32578 0 6.03922 0.286563 6.03922 0.640117V7.29477H1.77059C0.826406 7.29477 0.0585938 8.06258 0.0585938 9.00648V22.8296C0.0585938 23.7738 0.826406 24.5416 1.77059 24.5416H6.03922V31.36C6.03922 31.7136 6.32578 32.0001 6.67934 32.0001H23.3423C23.6959 32.0001 23.9825 31.7136 23.9825 31.36V24.5416H28.2511C29.1953 24.5416 29.9631 23.7738 29.9631 22.8296V9.00648C29.9631 8.06258 29.1953 7.29477 28.2511 7.29477ZM7.31918 1.27996H22.7025V7.29477H7.31918V1.27996ZM7.31918 30.7199V18.4737H22.7025V30.7199H7.31918ZM28.6831 22.8296C28.6831 23.0677 28.4893 23.2616 28.2511 23.2616H23.9825V18.4737H25.9906C26.3439 18.4737 26.6304 18.1871 26.6304 17.8339C26.6304 17.4803 26.3439 17.1938 25.9906 17.1938H4.03109C3.67781 17.1938 3.39125 17.4803 3.39125 17.8339C3.39125 18.1871 3.67781 18.4737 4.03109 18.4737H6.03922V23.2616H1.77059C1.53242 23.2616 1.33855 23.0677 1.33855 22.8296V9.00648C1.33855 8.76832 1.53242 8.57473 1.77059 8.57473H28.2511C28.4893 8.57473 28.6831 8.76832 28.6831 9.00648V22.8296Z" fill="#0054A4"/>
</svg>
