<svg width="33" height="33" viewBox="0 0 33 33" fill="none" xmlns="http://www.w3.org/2000/svg">
<path d="M16.5058 0.00341815C9.90378 0.00245585 3.93697 3.93778 1.33842 10.0069L1.13276 10.0751L1.2125 10.3143C-2.20889 18.7527 1.85813 28.367 10.2965 31.7884C12.2674 32.5875 14.3742 32.9977 16.501 32.9965C25.6117 32.9979 32.9986 25.6132 33 16.5025C33.0014 7.39168 25.6167 0.00472412 16.5058 0.00341815ZM29.4455 24.8173L28.5984 23.9707V21.9988C28.5994 21.9137 28.5806 21.8296 28.5435 21.753L26.3989 17.47V15.4002C26.3989 15.2164 26.3071 15.0447 26.1542 14.9427L24.5045 13.8429C24.3753 13.7566 24.2154 13.729 24.0646 13.767L22.0444 14.2718L18.651 12.8157L18.1842 9.54503L19.478 8.2517H22.2555L23.1903 9.65666C23.2747 9.78299 23.4077 9.86884 23.5576 9.89366L26.857 10.4435C26.9453 10.4584 27.0359 10.4512 27.1209 10.4226L30.1596 9.40976C32.7082 14.3006 32.4356 20.1831 29.4455 24.8173ZM27.1775 5.42199L26.2834 6.01807L23.7908 5.51932L22.1736 4.98098C22.0746 4.94737 21.9681 4.94311 21.8667 4.96888L19.8223 5.47973L18.926 5.18114L19.5902 3.85262H21.4499C21.5352 3.85268 21.6194 3.83296 21.6957 3.79488L23.5983 2.84358C24.9086 3.5275 26.1139 4.39577 27.1775 5.42199ZM10.4781 2.33108L11.7978 3.2109C11.8627 3.25407 11.936 3.28293 12.0128 3.29558L14.6775 3.73989L14.4174 4.51798L13.029 4.98153C12.9046 5.02291 12.7991 5.10732 12.7315 5.21963L11.1522 7.85138L8.6156 9.37347L4.87638 9.9074C4.60536 9.94569 4.40383 10.1775 4.40348 10.4512V12.1009C4.40348 12.2468 4.46149 12.3866 4.5646 12.4897L5.50325 13.4283V14.373L3.21573 12.8476L2.38595 10.3583C3.96467 6.75106 6.85824 3.88066 10.4781 2.33108ZM8.91254 20.3602L6.42706 19.8625L5.50325 18.0199V16.7276L7.55213 14.6788L8.31042 16.1959C8.40355 16.3823 8.59416 16.5 8.80256 16.5H12.3405L13.8302 18.9827C13.9296 19.1482 14.1084 19.2493 14.3014 19.2494H15.8301L15.4452 21.1779L13.3633 23.2597C13.26 23.3628 13.2019 23.5026 13.2016 23.6485V25.0232L11.2221 26.5079C11.0836 26.6118 11.0021 26.7747 11.0021 26.9478V28.934L10.318 28.7074L9.35245 26.2923V20.8991C9.35252 20.6377 9.16858 20.4124 8.91254 20.3602ZM7.25959 28.8134C2.07492 24.9237 -0.117677 18.203 1.77558 12.0041L2.23253 13.3744C2.27103 13.4904 2.34705 13.5903 2.44864 13.6582L5.18982 15.4854L4.5646 16.1112C4.46149 16.2143 4.40348 16.3541 4.40348 16.5V18.1496C4.40341 18.2349 4.42314 18.3191 4.46122 18.3954L5.56099 20.595C5.63715 20.7469 5.77923 20.8551 5.94591 20.8881L8.25543 21.3494V26.3979C8.25536 26.4678 8.26863 26.537 8.29447 26.6019L9.39424 29.3514C9.45445 29.5015 9.57777 29.6176 9.73132 29.6686L11.381 30.2185C11.4361 30.2372 11.4938 30.2468 11.552 30.2471C11.8557 30.2471 12.1019 30.0009 12.1019 29.6972V27.2227L14.0815 25.7381C14.2199 25.6342 14.3014 25.4712 14.3014 25.2981V23.8761L16.3398 21.8377C16.4165 21.7609 16.4687 21.6631 16.49 21.5567L17.0399 18.8073C17.0994 18.5095 16.9062 18.2198 16.6084 18.1603C16.573 18.1532 16.537 18.1496 16.501 18.1496H14.6127L13.123 15.6669C13.0236 15.5015 12.8448 15.4003 12.6518 15.4002H9.14239L8.19769 13.5048C8.11858 13.3465 7.96818 13.236 7.79353 13.2078C7.61894 13.1776 7.44071 13.2352 7.31677 13.3618L6.60302 14.0728V13.2007C6.60302 13.0548 6.54501 12.915 6.44191 12.8119L5.50325 11.8732V10.928L8.88065 10.4457C8.95317 10.4352 9.02293 10.4103 9.08576 10.3726L11.8352 8.72295C11.9123 8.67662 11.9769 8.61201 12.0232 8.53489L13.5684 5.95978L15.0251 5.47368C15.1896 5.41972 15.3186 5.2907 15.3726 5.12615L15.9225 3.47649C16.0177 3.18815 15.8612 2.87712 15.5729 2.78185C15.5463 2.77305 15.519 2.76632 15.4914 2.76164L12.3086 2.231L11.7494 1.85818C15.2098 0.731879 18.9576 0.871275 22.3248 2.25135L21.3202 2.75285H19.2504C19.041 2.75168 18.8491 2.86963 18.7555 3.05693L17.6557 5.25647C17.5202 5.52825 17.6307 5.85846 17.9025 5.99394C17.9256 6.00549 17.9496 6.01538 17.9741 6.02356L19.6238 6.57345C19.7227 6.60706 19.8293 6.61132 19.9306 6.58555L21.9751 6.0747L23.473 6.57345C23.4944 6.58115 23.5165 6.58706 23.5389 6.59105L26.2884 7.14093C26.4313 7.17008 26.5801 7.14079 26.7013 7.05955L27.9529 6.22482C28.5688 6.91087 29.1223 7.65047 29.6069 8.43481L26.9015 9.33662L23.9723 8.84832L23.0045 7.39663C22.903 7.24452 22.7325 7.15282 22.5497 7.15193H19.2504C19.1045 7.15193 18.9647 7.20994 18.8616 7.31305L17.212 8.9627C17.0895 9.08512 17.0318 9.25813 17.0563 9.42955L17.6062 13.2788C17.6339 13.4691 17.759 13.6311 17.9362 13.706L21.7854 15.3557C21.8956 15.4034 22.0187 15.4133 22.1351 15.3837L24.0987 14.8927L25.2991 15.6944V17.5998C25.2982 17.6848 25.317 17.769 25.3541 17.8456L27.4987 22.1286V24.1984C27.4987 24.3442 27.5567 24.484 27.6598 24.5871L28.8101 25.7381C23.7084 32.5383 14.0598 33.9152 7.25959 28.8134Z" fill="#0054A4"/>
</svg>
